<svg width="210" height="128" viewBox="0 0 210 128" fill="none" xmlns="http://www.w3.org/2000/svg">
<rect width="210" height="128" rx="20" fill="url(#paint0_linear_3_429)" fill-opacity="0.1"/>
<path d="M72.8893 89.301H74.8173V90.5904H72.8893V93.2337H75.3153V94.5233H71.4846V85.4972H75.3153V86.7866H72.8893V89.301Z" fill="white"/>
<path d="M76.0069 87.6634C76.0069 86.9328 76.1772 86.374 76.5177 85.9872C76.8668 85.5919 77.3859 85.3941 78.0755 85.3941C78.765 85.3941 79.28 85.5919 79.6206 85.9872C79.9695 86.374 80.144 86.9328 80.144 87.6634V87.9471H78.8161V87.5733C78.8161 87.2466 78.7522 87.0188 78.6246 86.8899C78.5053 86.7524 78.3351 86.6836 78.1138 86.6836C77.8924 86.6836 77.718 86.7524 77.5903 86.8899C77.471 87.0188 77.4116 87.2466 77.4116 87.5733C77.4116 87.8827 77.4795 88.1578 77.6158 88.3985C77.752 88.6305 77.9222 88.8541 78.1266 89.069C78.3308 89.2753 78.548 89.4858 78.7778 89.7007C79.0161 89.907 79.2375 90.1348 79.4417 90.3841C79.646 90.6334 79.8163 90.9171 79.9525 91.2352C80.0887 91.5533 80.1568 91.9272 80.1568 92.3569C80.1568 93.0877 79.978 93.6507 79.6206 94.0462C79.2715 94.433 78.7522 94.6264 78.0626 94.6264C77.3733 94.6264 76.8496 94.433 76.4922 94.0462C76.1431 93.6507 75.9686 93.0877 75.9686 92.3569V91.8026H77.2966V92.4472C77.2966 92.7739 77.3604 93.0017 77.4882 93.1306C77.6243 93.2596 77.8031 93.324 78.0245 93.324C78.2457 93.324 78.4202 93.2596 78.548 93.1306C78.6842 93.0017 78.7522 92.7739 78.7522 92.4472C78.7522 92.1378 78.6842 91.8671 78.548 91.6349C78.4117 91.3942 78.2415 91.1707 78.0371 90.9644C77.8329 90.7495 77.6116 90.5389 77.3733 90.3326C77.1434 90.1177 76.9262 89.8855 76.722 89.6363C76.5177 89.387 76.3475 89.1034 76.2112 88.7853C76.075 88.4672 76.0069 88.0933 76.0069 87.6634Z" fill="white"/>
<path d="M80.5529 85.4972H84.8944V86.7866H83.4259V94.5233H82.0213V86.7866H80.5529V85.4972Z" fill="white"/>
<path d="M125.724 87.7151C125.724 87.3111 125.655 87.0403 125.519 86.9028C125.392 86.7566 125.217 86.6836 124.996 86.6836C124.774 86.6836 124.596 86.7524 124.459 86.8899C124.332 87.0188 124.268 87.2466 124.268 87.5733V88.5404H122.94V87.6634C122.94 86.9328 123.114 86.374 123.464 85.9872C123.821 85.5919 124.345 85.3941 125.034 85.3941C125.724 85.3941 126.243 85.5919 126.592 85.9872C126.949 86.374 127.128 86.9328 127.128 87.6634C127.128 88.1363 127.06 88.5661 126.924 88.9529C126.788 89.3312 126.613 89.6792 126.4 89.9973C126.196 90.3069 125.971 90.5948 125.724 90.8612C125.485 91.1278 125.26 91.3813 125.047 91.622C124.843 91.8627 124.672 92.0991 124.536 92.3312C124.4 92.5547 124.332 92.791 124.332 93.0403C124.332 93.1263 124.336 93.1907 124.345 93.2337H127V94.5233H122.94V93.4143C122.94 92.9759 123.008 92.5891 123.144 92.2538C123.281 91.9186 123.451 91.6134 123.655 91.3383C123.868 91.0547 124.093 90.7925 124.332 90.5518C124.57 90.3025 124.791 90.0403 124.996 89.7652C125.209 89.4902 125.383 89.1894 125.519 88.8627C125.655 88.536 125.724 88.1534 125.724 87.7151Z" fill="white"/>
<path d="M129.037 92.4472C129.037 92.7739 129.101 93.0059 129.228 93.1436C129.365 93.2725 129.543 93.3369 129.765 93.3369C129.986 93.3369 130.161 93.2725 130.288 93.1436C130.424 93.0059 130.492 92.7739 130.492 92.4472V87.5733C130.492 87.2466 130.424 87.0188 130.288 86.8899C130.161 86.7524 129.986 86.6836 129.765 86.6836C129.543 86.6836 129.365 86.7524 129.228 86.8899C129.101 87.0188 129.037 87.2466 129.037 87.5733V92.4472ZM127.632 87.6634C127.632 86.9328 127.815 86.374 128.181 85.9872C128.547 85.5919 129.075 85.3941 129.765 85.3941C130.454 85.3941 130.982 85.5919 131.348 85.9872C131.714 86.374 131.897 86.9328 131.897 87.6634V92.3569C131.897 93.0877 131.714 93.6507 131.348 94.0462C130.982 94.433 130.454 94.6264 129.765 94.6264C129.075 94.6264 128.547 94.433 128.181 94.0462C127.815 93.6507 127.632 93.0877 127.632 92.3569V87.6634Z" fill="white"/>
<path d="M133.423 86.632C133.695 86.632 133.917 86.6018 134.087 86.5417C134.265 86.4815 134.41 86.3999 134.521 86.2968C134.632 86.1935 134.721 86.0732 134.789 85.9357C134.857 85.7982 134.917 85.652 134.968 85.4972H135.913V94.5233H134.508V87.6377H133.423V86.632Z" fill="white"/>
<path d="M138.626 91.6091V92.4472C138.626 92.7739 138.69 93.0017 138.817 93.1306C138.954 93.2596 139.132 93.324 139.354 93.324C139.575 93.324 139.75 93.2596 139.877 93.1306C140.013 93.0017 140.082 92.7739 140.082 92.4472V90.4615C140.082 90.1348 140.013 89.907 139.877 89.7781C139.75 89.6406 139.575 89.5718 139.354 89.5718C139.132 89.5718 138.954 89.6406 138.817 89.7781C138.69 89.907 138.626 90.1348 138.626 90.4615V90.7323H137.298L137.553 85.4972H141.256V86.7866H138.817L138.702 88.9401C138.966 88.5016 139.375 88.2824 139.928 88.2824C140.448 88.2824 140.835 88.4586 141.09 88.8111C141.354 89.1635 141.486 89.675 141.486 90.3455V92.3569C141.486 93.0877 141.307 93.6507 140.95 94.0462C140.601 94.433 140.082 94.6264 139.392 94.6264C138.702 94.6264 138.179 94.433 137.821 94.0462C137.472 93.6507 137.298 93.0877 137.298 92.3569V91.6091H138.626Z" fill="white"/>
<path d="M115.012 30.5931C114.672 30.98 114.501 31.5387 114.501 32.2694C114.501 32.6992 114.57 33.0731 114.706 33.3912C114.842 33.7092 115.012 33.9929 115.216 34.2422C115.421 34.4915 115.638 34.7236 115.868 34.9385C116.106 35.1448 116.327 35.3554 116.532 35.5703C116.736 35.7766 116.906 36.0001 117.043 36.2408C117.179 36.4729 117.247 36.7437 117.247 37.0531C117.247 37.3798 117.179 37.6076 117.043 37.7365C116.915 37.8655 116.74 37.9299 116.519 37.9299C116.298 37.9299 116.119 37.8655 115.983 37.7365C115.855 37.6076 115.791 37.3798 115.791 37.0531V36.4084H114.463V36.9629C114.463 37.6935 114.638 38.2566 114.987 38.652C115.344 39.0388 115.868 39.2322 116.557 39.2322C117.247 39.2322 117.766 39.0388 118.115 38.652C118.473 38.2566 118.651 37.6935 118.651 36.9629C118.651 36.5331 118.583 36.1591 118.447 35.8411C118.311 35.523 118.141 35.2393 117.936 34.9901C117.732 34.7408 117.511 34.513 117.272 34.3067C117.043 34.0918 116.825 33.8812 116.621 33.6748C116.417 33.4599 116.247 33.2364 116.11 33.0043C115.974 32.7637 115.906 32.4886 115.906 32.1791C115.906 31.8525 115.966 31.6247 116.085 31.4957C116.212 31.3582 116.387 31.2894 116.608 31.2894C116.83 31.2894 117 31.3582 117.119 31.4957C117.247 31.6247 117.311 31.8525 117.311 32.1791V32.553H118.639V32.2694C118.639 31.5387 118.464 30.98 118.115 30.5931C117.775 30.1977 117.26 30 116.57 30C115.881 30 115.361 30.1977 115.012 30.5931Z" fill="white"/>
<path fill-rule="evenodd" clip-rule="evenodd" d="M70.1609 30.1032C70.893 30.1032 71.4208 30.2751 71.7443 30.6189C72.0762 30.9628 72.2423 31.4828 72.2423 32.1791V32.5015C72.2423 32.9657 72.1698 33.3482 72.0251 33.6491C71.8805 33.9499 71.6507 34.1734 71.3357 34.3195C71.7188 34.4657 71.9868 34.7064 72.14 35.0416C72.3019 35.3683 72.3827 35.7723 72.3827 36.2537V36.9887C72.3827 37.6849 72.204 38.2179 71.8464 38.5875C71.489 38.9486 70.9568 39.1291 70.2503 39.1291H68.0413V30.1032H70.1609ZM69.4459 35.0674V37.8397H70.2503C70.4887 37.8397 70.6674 37.7752 70.7866 37.6463C70.9143 37.5173 70.9781 37.2852 70.9781 36.95V36.1634C70.9781 35.7422 70.9057 35.4542 70.7611 35.2995C70.6249 35.1448 70.395 35.0674 70.0716 35.0674H69.4459ZM69.4459 31.3926V33.778H69.995C70.2588 33.778 70.4632 33.7092 70.6079 33.5717C70.7611 33.4341 70.8377 33.1849 70.8377 32.8238V32.3209C70.8377 31.9943 70.7781 31.7579 70.6589 31.6118C70.5483 31.4656 70.3695 31.3926 70.1226 31.3926H69.4459Z" fill="white"/>
<path fill-rule="evenodd" clip-rule="evenodd" d="M80.4557 39.1291H79.0384L78.7959 37.4915H77.0721L76.8294 39.1291H75.5398L76.97 30.1032H79.0257L80.4557 39.1291ZM77.2508 36.2666H78.6043L77.9275 31.702L77.2508 36.2666Z" fill="white"/>
<path fill-rule="evenodd" clip-rule="evenodd" d="M86.677 38.9615C86.6941 39.013 86.7111 39.0689 86.7281 39.1291H88.1583C88.0902 38.9572 88.0475 38.7895 88.0306 38.6262C88.0136 38.4543 88.0051 38.2566 88.0051 38.0331V36.6405C88.0051 36.1677 87.9369 35.768 87.8007 35.4413C87.673 35.1061 87.4305 34.8654 87.0729 34.7193C87.6858 34.427 87.9922 33.8167 87.9922 32.8883V32.1791C87.9922 31.4828 87.8262 30.9628 87.4943 30.6189C87.1708 30.2751 86.643 30.1032 85.911 30.1032H83.7913V39.1291H85.1958V35.4542H85.6811C86.0046 35.4542 86.2386 35.5402 86.3834 35.7121C86.5281 35.8841 86.6004 36.1806 86.6004 36.6018V38.4715C86.609 38.5918 86.6175 38.6907 86.626 38.7681C86.643 38.8454 86.66 38.9099 86.677 38.9615ZM85.1958 34.1648V31.3926H85.8727C86.1195 31.3926 86.2982 31.4656 86.4088 31.6118C86.5281 31.7579 86.5877 31.9943 86.5877 32.3209V33.2106C86.5877 33.5717 86.5111 33.821 86.3579 33.9585C86.2131 34.0961 86.0088 34.1648 85.7449 34.1648H85.1958Z" fill="white"/>
<path fill-rule="evenodd" clip-rule="evenodd" d="M93.7298 30.1032C94.4619 30.1032 94.9896 30.2751 95.3132 30.6189C95.6451 30.9628 95.8112 31.4828 95.8112 32.1791V32.5015C95.8112 32.9657 95.7388 33.3482 95.594 33.6491C95.4493 33.9499 95.2194 34.1734 94.9045 34.3195C95.2876 34.4657 95.5557 34.7064 95.7089 35.0416C95.8707 35.3683 95.9516 35.7723 95.9516 36.2537V36.9887C95.9516 37.6849 95.7727 38.2179 95.4153 38.5875C95.0577 38.9486 94.5257 39.1291 93.8192 39.1291H91.6102V30.1032H93.7298ZM93.0148 35.0674V37.8397H93.8192C94.0576 37.8397 94.2363 37.7752 94.3555 37.6463C94.4831 37.5173 94.5471 37.2852 94.5471 36.95V36.1634C94.5471 35.7422 94.4746 35.4542 94.3299 35.2995C94.1938 35.1448 93.964 35.0674 93.6404 35.0674H93.0148ZM93.0148 31.3926V33.778H93.5638C93.8277 33.778 94.0321 33.7092 94.1767 33.5717C94.3299 33.4341 94.4065 33.1849 94.4065 32.8238V32.3209C94.4065 31.9943 94.347 31.7579 94.2278 31.6118C94.1172 31.4656 93.9383 31.3926 93.6915 31.3926H93.0148Z" fill="white"/>
<path d="M102.812 33.9069H100.883V31.3926H103.31V30.1032H99.4789V39.1291H103.31V37.8397H100.883V35.1964H102.812V33.9069Z" fill="white"/>
<path fill-rule="evenodd" clip-rule="evenodd" d="M109.798 39.1291C109.781 39.0689 109.764 39.013 109.747 38.9615C109.73 38.9099 109.713 38.8454 109.696 38.7681C109.688 38.6907 109.679 38.5918 109.67 38.4715V36.6018C109.67 36.1806 109.598 35.8841 109.453 35.7121C109.309 35.5402 109.075 35.4542 108.751 35.4542H108.266V39.1291H106.861V30.1032H108.981C109.713 30.1032 110.241 30.2751 110.564 30.6189C110.896 30.9628 111.062 31.4828 111.062 32.1791V32.8883C111.062 33.8167 110.756 34.427 110.143 34.7193C110.501 34.8654 110.743 35.1061 110.871 35.4413C111.007 35.768 111.075 36.1677 111.075 36.6405V38.0331C111.075 38.2566 111.084 38.4543 111.101 38.6262C111.118 38.7895 111.16 38.9572 111.228 39.1291H109.798ZM108.266 31.3926V34.1648H108.815C109.079 34.1648 109.283 34.0961 109.428 33.9585C109.581 33.821 109.658 33.5717 109.658 33.2106V32.3209C109.658 31.9943 109.598 31.7579 109.479 31.6118C109.368 31.4656 109.19 31.3926 108.943 31.3926H108.266Z" fill="white"/>
<path d="M123.542 39.1291H122.138V30.1032H123.542V33.9714H125.138V30.1032H126.568V39.1291H125.138V35.2608H123.542V39.1291Z" fill="white"/>
<path fill-rule="evenodd" clip-rule="evenodd" d="M130.702 30.5931C130.336 30.98 130.153 31.5387 130.153 32.2694V36.9629C130.153 37.6935 130.336 38.2566 130.702 38.652C131.068 39.0388 131.596 39.2322 132.286 39.2322C132.975 39.2322 133.503 39.0388 133.869 38.652C134.235 38.2566 134.418 37.6935 134.418 36.9629V32.2694C134.418 31.5387 134.235 30.98 133.869 30.5931C133.503 30.1977 132.975 30 132.286 30C131.596 30 131.068 30.1977 130.702 30.5931ZM131.749 37.7494C131.622 37.6119 131.558 37.3798 131.558 37.0531V32.1791C131.558 31.8525 131.622 31.6247 131.749 31.4957C131.886 31.3582 132.064 31.2894 132.286 31.2894C132.507 31.2894 132.682 31.3582 132.809 31.4957C132.945 31.6247 133.013 31.8525 133.013 32.1791V37.0531C133.013 37.3798 132.945 37.6119 132.809 37.7494C132.682 37.8784 132.507 37.9428 132.286 37.9428C132.064 37.9428 131.886 37.8784 131.749 37.7494Z" fill="white"/>
<path fill-rule="evenodd" clip-rule="evenodd" d="M140.081 30.1032C140.787 30.1032 141.311 30.2923 141.651 30.6705C142 31.0487 142.175 31.6032 142.175 32.3339V33.5072C142.175 34.2379 142 34.7923 141.651 35.1706C141.311 35.5488 140.787 35.7379 140.081 35.7379H139.417V39.1291H138.012V30.1032H140.081ZM139.417 31.3926V34.4485H140.081C140.302 34.4485 140.472 34.3883 140.592 34.268C140.711 34.1476 140.77 33.9241 140.77 33.5975V32.2436C140.77 31.9169 140.711 31.6934 140.592 31.5731C140.472 31.4528 140.302 31.3926 140.081 31.3926H139.417Z" fill="white"/>
<path d="M61.061 83.2831L56.3567 79.381C55.5502 78.5667 56.5247 78.3348 57.1127 78.3206C58.2468 78.2782 61.0862 78.1255 63.3711 77.854C66.2273 77.5147 69.6715 76.9634 72.3596 76.4119C74.5102 75.9708 76.812 75.9171 77.694 75.9454H85.7584C85.4224 75.7898 84.6328 75.4109 84.1624 75.1395C83.5744 74.8002 82.9863 74.1639 82.8603 73.7822C82.7343 73.4004 83.0703 73.0187 83.5744 72.8491C83.9776 72.7134 85.0864 72.7925 85.5905 72.8491C86.7806 73.3016 89.4211 74.3337 90.4628 74.8426C91.7648 75.4788 92.857 75.8605 93.823 75.9454C94.789 76.0303 95.9231 75.7332 96.2172 75.6485C96.3892 75.5989 97.1225 75.3021 97.7516 75.0477L97.754 75.0466C98.1988 74.8667 98.591 74.7081 98.6953 74.673L98.7477 74.655C99.0016 74.5677 99.3701 74.4411 99.4093 74.7577C99.4513 75.097 99.2413 75.3939 98.9893 75.5637C98.7372 75.7332 97.3932 76.1574 96.1751 76.5392C95.2007 76.8446 94.621 76.9209 94.453 76.9209C94.8031 77.1471 96.6035 78.2952 101.005 81.0776C102.153 81.8031 103.569 82.7922 105.1 83.9109C106.614 82.8055 108.014 81.8285 109.15 81.1101C113.552 78.3277 115.353 77.1797 115.703 76.9534C115.535 76.9534 114.955 76.8771 113.981 76.5717C112.763 76.1899 111.418 75.7659 111.166 75.5962C110.915 75.4266 110.705 75.1297 110.746 74.7904C110.786 74.4736 111.154 74.6002 111.408 74.6875L111.461 74.7055C111.565 74.7406 111.957 74.8993 112.402 75.0792L112.403 75.0798C113.032 75.3344 113.767 75.6314 113.939 75.681C114.233 75.7659 115.367 76.0628 116.333 75.9779C117.299 75.893 118.391 75.5113 119.693 74.8751C120.735 74.3662 123.375 73.3341 124.565 72.8816C125.069 72.825 126.178 72.7459 126.581 72.8816C127.085 73.0513 127.421 73.4329 127.295 73.8147C127.169 74.1964 126.581 74.8327 125.993 75.172C125.523 75.4434 124.733 75.8223 124.397 75.9779H132.462C133.344 75.9496 135.646 76.0033 137.796 76.4445C140.484 76.9959 143.929 77.5472 146.785 77.8865C149.07 78.158 151.909 78.3107 153.043 78.3531C153.631 78.3673 154.606 78.5992 153.799 79.4135L149.095 83.3158C148.913 83.4571 148.196 83.6974 146.785 83.5278C145.373 83.3581 144.797 83.1743 144.685 83.1036C142.402 82.5806 137.527 81.4749 136.284 81.2374C134.73 80.9404 131.664 80.5588 130.32 80.4739C129.244 80.4061 128.583 80.3608 128.387 80.3466C128.121 80.3042 127.606 80.0327 127.674 79.2862C127.741 78.5397 127.87 77.8442 127.926 77.5896L123.725 77.3352H122.507C122.311 77.3069 121.734 77.3861 120.995 77.929C120.256 78.4719 114.247 82.6794 111.335 84.7154L108.966 86.8151C112.239 89.3289 115.472 91.93 117.386 93.5052C117.624 93.7315 118.226 94.362 118.73 95.0746C119.235 95.7871 118.856 96.4178 118.605 96.6439C118.269 96.9408 117.168 97.611 115.454 97.9165C113.741 98.2218 112.192 97.0823 111.632 96.4743C110.008 94.8907 106.55 91.5371 105.71 90.7906L105.096 90.2461C104.808 90.5018 104.583 90.7011 104.446 90.8233C103.606 91.5698 100.148 94.9234 98.5237 96.5068C97.9637 97.1148 96.4152 98.2543 94.7015 97.949C92.9878 97.6435 91.8873 96.9734 91.5513 96.6764C91.2993 96.4503 90.9212 95.8198 91.4253 95.1071C91.9294 94.3946 92.5313 93.764 92.7693 93.5378C94.6918 91.9561 97.9429 89.3406 101.229 86.8174L98.8213 84.6829C95.9091 82.6469 89.8999 78.4394 89.1607 77.8965C88.4214 77.3535 87.8447 77.2744 87.6486 77.3027H86.4306L82.2303 77.5571C82.2863 77.8116 82.4151 78.5072 82.4822 79.2537C82.5496 80.0002 82.0343 80.2717 81.7683 80.3141C81.5722 80.3283 80.9114 80.3736 79.8361 80.4414C78.492 80.5262 75.4258 80.9079 73.8718 81.2048C72.6284 81.4424 67.7533 82.5481 65.4712 83.0711C65.3593 83.1418 64.7824 83.3256 63.3711 83.4953C61.9598 83.6649 61.243 83.4246 61.061 83.2831Z" fill="white"/>
<path fill-rule="evenodd" clip-rule="evenodd" d="M63.2387 45.1486C62.2272 46.2174 61.7215 47.7613 61.7215 49.7804V62.7492C61.7215 64.7681 62.2272 66.324 63.2387 67.4166C64.25 68.4854 65.7084 69.0199 67.6136 69.0199C69.5188 69.0199 70.9772 68.4854 71.9886 67.4166C73.0001 66.324 73.5057 64.7681 73.5057 62.7492V49.7804C73.5057 47.7613 73.0001 46.2174 71.9886 45.1486C70.9772 44.056 69.5188 43.5097 67.6136 43.5097C65.7084 43.5097 64.25 44.056 63.2387 45.1486ZM66.1318 64.9225C65.7789 64.5425 65.6025 63.9011 65.6025 62.9986V49.531C65.6025 48.6283 65.7789 47.9989 66.1318 47.6426C66.5081 47.2626 67.002 47.0726 67.6136 47.0726C68.2252 47.0726 68.7074 47.2626 69.0602 47.6426C69.4366 47.9989 69.6247 48.6283 69.6247 49.531V62.9986C69.6247 63.9011 69.4366 64.5425 69.0602 64.9225C68.7074 65.2788 68.2252 65.457 67.6136 65.457C67.002 65.457 66.5081 65.2788 66.1318 64.9225Z" fill="white"/>
<path fill-rule="evenodd" clip-rule="evenodd" d="M57.2318 45.2199C56.338 44.2698 54.8797 43.7947 52.8568 43.7947H47V68.7348H53.1038C55.0561 68.7348 56.5262 68.236 57.5141 67.2384C58.502 66.2171 58.9959 64.7445 58.9959 62.8205V60.7896C58.9959 59.4595 58.7725 58.3431 58.3256 57.4406C57.9022 56.5141 57.1613 55.8491 56.1028 55.4453C56.9731 55.0415 57.6082 54.424 58.008 53.5926C58.4079 52.7612 58.6078 51.7042 58.6078 50.4216V49.531C58.6078 47.607 58.1492 46.17 57.2318 45.2199ZM50.881 65.1719V57.5117H52.6099C53.5037 57.5117 54.1388 57.7255 54.5151 58.1531C54.915 58.5807 55.1149 59.3764 55.1149 60.5401V62.7136C55.1149 63.6399 54.9385 64.2812 54.5857 64.6376C54.2564 64.9937 53.7624 65.1719 53.1038 65.1719H50.881ZM50.881 53.9489V47.3575H52.751C53.4331 47.3575 53.9271 47.5595 54.2328 47.9633C54.5621 48.3671 54.7268 49.0203 54.7268 49.9229V51.3124C54.7268 52.31 54.5151 52.9988 54.0917 53.3788C53.6919 53.7589 53.1273 53.9489 52.3982 53.9489H50.881Z" fill="white"/>
<path fill-rule="evenodd" clip-rule="evenodd" d="M84.8484 68.7348C84.8013 68.5685 84.7544 68.4141 84.7073 68.2716C84.6602 68.1291 84.6131 67.9509 84.5661 67.7373C84.5426 67.5235 84.5191 67.2503 84.4955 66.9177V61.7516C84.4955 60.5877 84.2956 59.7682 83.8958 59.2932C83.4959 58.8181 82.849 58.5807 81.9553 58.5807H80.6145V68.7348H76.7335V43.7947H82.5903C84.6131 43.7947 86.0715 44.2698 86.9654 45.2199C87.8826 46.17 88.3413 47.607 88.3413 49.531V51.4906C88.3413 54.0558 87.4945 55.7422 85.8011 56.5498C86.7889 56.9536 87.4593 57.6186 87.812 58.545C88.1884 59.4475 88.3765 60.5521 88.3765 61.8585V65.7064C88.3765 66.324 88.4001 66.8703 88.4472 67.3453C88.4941 67.7966 88.6118 68.2598 88.7999 68.7348H84.8484ZM80.6145 47.3575V55.0177H82.1317C82.8609 55.0177 83.4254 54.8277 83.8251 54.4478C84.2485 54.0676 84.4603 53.3788 84.4603 52.3812V49.9229C84.4603 49.0203 84.2956 48.3671 83.9664 47.9633C83.6606 47.5595 83.1666 47.3575 82.4845 47.3575H80.6145Z" fill="white"/>
<path fill-rule="evenodd" clip-rule="evenodd" d="M92.8343 45.1486C91.8228 46.2174 91.3171 47.7613 91.3171 49.7804V62.7492C91.3171 64.7681 91.8228 66.324 92.8343 67.4166C93.8457 68.4854 95.304 69.0199 97.2093 69.0199C99.1145 69.0199 100.573 68.4854 101.584 67.4166C102.596 66.324 103.101 64.7681 103.101 62.7492V49.7804C103.101 47.7613 102.596 46.2174 101.584 45.1486C100.573 44.056 99.1145 43.5097 97.2093 43.5097C95.304 43.5097 93.8457 44.056 92.8343 45.1486ZM95.7274 64.9225C95.3746 64.5425 95.1981 63.9011 95.1981 62.9986V49.531C95.1981 48.6283 95.3746 47.9989 95.7274 47.6426C96.1037 47.2626 96.5977 47.0726 97.2093 47.0726C97.8208 47.0726 98.303 47.2626 98.6559 47.6426C99.0322 47.9989 99.2204 48.6283 99.2204 49.531V62.9986C99.2204 63.9011 99.0322 64.5425 98.6559 64.9225C98.303 65.2788 97.8208 65.457 97.2093 65.457C96.5977 65.457 96.1037 65.2788 95.7274 64.9225Z" fill="white"/>
<path fill-rule="evenodd" clip-rule="evenodd" d="M106.329 43.7947H112.468C114.421 43.7947 115.867 44.3173 116.808 45.3624C117.772 46.4074 118.254 47.9395 118.254 49.9585V62.571C118.254 64.59 117.772 66.122 116.808 67.1672C115.867 68.2123 114.421 68.7348 112.468 68.7348H106.329V43.7947ZM110.21 47.3575V65.1719H112.398C113.009 65.1719 113.491 64.9937 113.844 64.6376C114.197 64.2812 114.373 63.6518 114.373 62.7492V49.7804C114.373 48.8777 114.197 48.2483 113.844 47.892C113.491 47.5357 113.009 47.3575 112.398 47.3575H110.21Z" fill="white"/>
<path fill-rule="evenodd" clip-rule="evenodd" d="M130.047 68.7348H133.963L130.011 43.7947H124.331L120.379 68.7348H123.943L124.613 64.21H129.376L130.047 68.7348ZM126.977 48.2127L128.847 60.8252H125.107L126.977 48.2127Z" fill="white"/>
<path d="M147.697 59.4357V62.7492C147.697 64.7681 147.203 66.324 146.215 67.4166C145.25 68.4854 143.816 69.0199 141.91 69.0199C140.005 69.0199 138.559 68.4854 137.571 67.4166C136.606 66.324 136.124 64.7681 136.124 62.7492V49.7804C136.124 47.7613 136.606 46.2174 137.571 45.1486C138.559 44.056 140.005 43.5097 141.91 43.5097C143.816 43.5097 145.25 44.056 146.215 45.1486C147.203 46.2174 147.697 47.7613 147.697 49.7804V52.2031H144.027V49.531C144.027 48.6283 143.839 47.9989 143.463 47.6426C143.11 47.2626 142.628 47.0726 142.016 47.0726C141.405 47.0726 140.911 47.2626 140.534 47.6426C140.182 47.9989 140.005 48.6283 140.005 49.531V62.9986C140.005 63.9011 140.182 64.5307 140.534 64.8868C140.911 65.2432 141.405 65.4213 142.016 65.4213C142.628 65.4213 143.11 65.2432 143.463 64.8868C143.839 64.5307 144.027 63.9011 144.027 62.9986V59.4357H147.697Z" fill="white"/>
<path d="M150.757 68.7348H154.638V58.0462H159.048V68.7348H163V43.7947H159.048V54.4834H154.638V43.7947H150.757V68.7348Z" fill="white"/>
<defs>
<linearGradient id="paint0_linear_3_429" x1="105" y1="0" x2="105" y2="128" gradientUnits="userSpaceOnUse">
<stop stop-color="white" stop-opacity="0"/>
<stop offset="1" stop-color="white"/>
</linearGradient>
</defs>
</svg>
