<svg width="210" height="128" viewBox="4 4 210 128" fill="none" xmlns="http://www.w3.org/2000/svg">
    <g filter="url(#filter0_d_3_443)">
    <rect x="4" y="4" width="210" height="128" rx="20" fill="url(#paint0_linear_3_443)" fill-opacity="0.1" shape-rendering="crispEdges"/>
    <rect x="4" y="4" width="210" height="128" rx="20" fill="url(#paint1_radial_3_443)" fill-opacity="0.3" shape-rendering="crispEdges"/>
    <path d="M74.8108 58.708C72.8843 50.716 66.5697 44.344 58.6497 42.4C58.6497 42.4 55.3319 47.584 53.4054 47.584C51.586 47.584 48.2681 42.4 48.2681 42.4C40.2411 44.344 33.9265 50.716 32 58.708C32 58.708 37.2443 62.056 37.2443 63.892C37.2443 65.728 32 69.184 32 69.184C33.9265 77.392 40.3481 83.764 48.4822 85.6C48.4822 85.6 51.907 80.308 53.7265 80.308C55.546 80.308 58.8638 85.492 58.8638 85.492C66.7838 83.44 72.8843 77.176 74.8108 69.184C74.8108 69.184 69.5665 65.836 69.5665 63.892C69.5665 62.164 74.8108 58.708 74.8108 58.708Z" fill="#48C5C7"/>
    <path d="M97.7551 59.7552H93.8378V35.2797H97.7551V45.7692H102.206V35.2797H106.195V59.7552H102.206V49.2657H97.7551V59.7552Z" fill="white"/>
    <path d="M110.139 41.1538C110.139 37.2378 112.24 35 116.086 35C119.932 35 122.033 37.2378 122.033 41.1538V53.8811C122.033 57.7972 119.932 60.035 116.086 60.035C112.24 60.035 110.139 57.7972 110.139 53.8811V41.1538ZM114.056 54.1259C114.056 55.8741 114.84 56.5385 116.086 56.5385C117.333 56.5385 118.116 55.8741 118.116 54.1259V40.9091C118.116 39.1608 117.333 38.4965 116.086 38.4965C114.84 38.4965 114.056 39.1608 114.056 40.9091V54.1259Z" fill="white"/>
    <path d="M125.683 41.1538C125.683 37.2378 127.784 35 131.63 35C135.476 35 137.577 37.2378 137.577 41.1538V53.8811C137.577 57.7972 135.476 60.035 131.63 60.035C127.784 60.035 125.683 57.7972 125.683 53.8811V41.1538ZM129.6 54.1259C129.6 55.8741 130.383 56.5385 131.63 56.5385C132.876 56.5385 133.66 55.8741 133.66 54.1259V40.9091C133.66 39.1608 132.876 38.4965 131.63 38.4965C130.383 38.4965 129.6 39.1608 129.6 40.9091V54.1259Z" fill="white"/>
    <path d="M146.675 50L145.464 52.2378V59.7552H141.547V35.2797H145.464V45.9441L150.592 35.2797H154.509L149.061 46.1888L154.509 59.7552H150.485L146.675 50Z" fill="white"/>
    <path d="M170.394 59.7552H166.441L165.765 55.3147H160.957L160.281 59.7552H156.684L160.672 35.2797H166.406L170.394 59.7552ZM161.456 51.993H165.231L163.343 39.6154L161.456 51.993Z" fill="white"/>
    <path d="M177.56 59.7552H173.643V35.2797H177.56V45.7692H182.012V35.2797H186V59.7552H182.012V49.2657H177.56V59.7552Z" fill="white"/>
    <path d="M99.6068 68.2448C103.524 68.2448 105.447 70.3776 105.447 74.2937V77.4755C105.447 81.3916 103.524 83.5245 99.6068 83.5245H97.7551V92.7203H93.8378V68.2448H99.6068ZM97.7551 71.7413V80.028H99.6068C100.853 80.028 101.53 79.4685 101.53 77.7203V74.0489C101.53 72.3007 100.853 71.7413 99.6068 71.7413H97.7551Z" fill="white"/>
    <path d="M108.86 68.2448H112.777V89.2238H119.223V92.7203H108.86V68.2448Z" fill="white"/>
    <path d="M135.029 92.7203H131.077L130.4 88.2797H125.592L124.916 92.7203H121.319L125.308 68.2448H131.041L135.029 92.7203ZM126.091 84.958H129.866L127.978 72.5804L126.091 84.958Z" fill="white"/>
    <path d="M149.638 83.5944V86.8462C149.638 90.7622 147.644 93 143.798 93C139.952 93 137.958 90.7622 137.958 86.8462V74.1189C137.958 70.2028 139.952 67.965 143.798 67.965C147.644 67.965 149.638 70.2028 149.638 74.1189V76.4965H145.934V73.8741C145.934 72.1259 145.151 71.4615 143.905 71.4615C142.658 71.4615 141.875 72.1259 141.875 73.8741V87.0909C141.875 88.8392 142.658 89.4685 143.905 89.4685C145.151 89.4685 145.934 88.8392 145.934 87.0909V83.5944H149.638Z" fill="white"/>
    <path d="M157.356 78.5594H162.734V82.0559H157.356V89.2238H164.123V92.7203H153.439V68.2448H164.123V71.7413H157.356V78.5594Z" fill="white"/>
    </g>
    <defs>
    <filter id="filter0_d_3_443" x="0" y="0" width="218" height="136" filterUnits="userSpaceOnUse" color-interpolation-filters="sRGB">
    <feFlood flood-opacity="0" result="BackgroundImageFix"/>
    <feColorMatrix in="SourceAlpha" type="matrix" values="0 0 0 0 0 0 0 0 0 0 0 0 0 0 0 0 0 0 127 0" result="hardAlpha"/>
    <feOffset dy="4"/>
    <feGaussianBlur stdDeviation="2"/>
    <feComposite in2="hardAlpha" operator="out"/>
    <feColorMatrix type="matrix" values="0 0 0 0 0 0 0 0 0 0 0 0 0 0 0 0 0 0 0.25 0"/>
    <feBlend mode="normal" in2="BackgroundImageFix" result="effect1_dropShadow_3_443"/>
    <feBlend mode="normal" in="SourceGraphic" in2="effect1_dropShadow_3_443" result="shape"/>
    </filter>
    <linearGradient id="paint0_linear_3_443" x1="109" y1="0" x2="109" y2="128" gradientUnits="userSpaceOnUse">
    <stop stop-color="white" stop-opacity="0"/>
    <stop offset="1" stop-color="white"/>
    </linearGradient>
    <radialGradient id="paint1_radial_3_443" cx="0" cy="0" r="1" gradientUnits="userSpaceOnUse" gradientTransform="translate(109 128) rotate(-90) scale(128 208.905)">
    <stop stop-color="#48C5C7"/>
    <stop offset="1" stop-color="#48C5C7" stop-opacity="0.1"/>
    </radialGradient>
    </defs>
    </svg>
    