<svg width="154" height="58" viewBox="0 0 154 58" fill="none" xmlns="http://www.w3.org/2000/svg">
<path d="M42.8108 23.708C40.8843 15.716 34.5697 9.344 26.6497 7.4C26.6497 7.4 23.3319 12.584 21.4054 12.584C19.586 12.584 16.2681 7.4 16.2681 7.4C8.24108 9.344 1.92649 15.716 0 23.708C0 23.708 5.24432 27.056 5.24432 28.892C5.24432 30.728 0 34.184 0 34.184C1.92649 42.392 8.3481 48.764 16.4822 50.6C16.4822 50.6 19.907 45.308 21.7265 45.308C23.546 45.308 26.8638 50.492 26.8638 50.492C34.7838 48.44 40.8843 42.176 42.8108 34.184C42.8108 34.184 37.5665 30.836 37.5665 28.892C37.5665 27.164 42.8108 23.708 42.8108 23.708Z" fill="white"/>
<path d="M65.7551 24.7552H61.8378V0.279719H65.7551V10.7692H70.2065V0.279719H74.1949V24.7552H70.2065V14.2657H65.7551V24.7552Z" fill="white"/>
<path d="M78.1391 6.15385C78.1391 2.23776 80.2402 0 84.0862 0C87.9322 0 90.0332 2.23776 90.0332 6.15385V18.8811C90.0332 22.7972 87.9322 25.035 84.0862 25.035C80.2402 25.035 78.1391 22.7972 78.1391 18.8811V6.15385ZM82.0563 19.1259C82.0563 20.8741 82.8398 21.5385 84.0862 21.5385C85.3326 21.5385 86.116 20.8741 86.116 19.1259V5.90909C86.116 4.16084 85.3326 3.4965 84.0862 3.4965C82.8398 3.4965 82.0563 4.16084 82.0563 5.90909V19.1259Z" fill="white"/>
<path d="M93.6828 6.15385C93.6828 2.23776 95.7839 0 99.6299 0C103.476 0 105.577 2.23776 105.577 6.15385V18.8811C105.577 22.7972 103.476 25.035 99.6299 25.035C95.7839 25.035 93.6828 22.7972 93.6828 18.8811V6.15385ZM97.6 19.1259C97.6 20.8741 98.3835 21.5385 99.6299 21.5385C100.876 21.5385 101.66 20.8741 101.66 19.1259V5.90909C101.66 4.16084 100.876 3.4965 99.6299 3.4965C98.3835 3.4965 97.6 4.16084 97.6 5.90909V19.1259Z" fill="white"/>
<path d="M114.675 15L113.464 17.2378V24.7552H109.547V0.279719H113.464V10.9441L118.592 0.279719H122.509L117.061 11.1888L122.509 24.7552H118.485L114.675 15Z" fill="white"/>
<path d="M138.394 24.7552H134.441L133.765 20.3147H128.957L128.281 24.7552H124.684L128.672 0.279719H134.406L138.394 24.7552ZM129.456 16.993H133.231L131.343 4.61538L129.456 16.993Z" fill="white"/>
<path d="M145.56 24.7552H141.643V0.279719H145.56V10.7692H150.012V0.279719H154V24.7552H150.012V14.2657H145.56V24.7552Z" fill="white"/>
<path d="M67.6068 33.2448C71.5241 33.2448 73.4471 35.3776 73.4471 39.2937V42.4755C73.4471 46.3916 71.5241 48.5245 67.6068 48.5245H65.7551V57.7203H61.8378V33.2448H67.6068ZM65.7551 36.7413V45.028H67.6068C68.8532 45.028 69.5298 44.4685 69.5298 42.7203V39.0489C69.5298 37.3007 68.8532 36.7413 67.6068 36.7413H65.7551Z" fill="white"/>
<path d="M76.8599 33.2448H80.7771V54.2238H87.2227V57.7203H76.8599V33.2448Z" fill="white"/>
<path d="M103.029 57.7203H99.0765L98.3999 53.2797H93.5924L92.9158 57.7203H89.3191L93.3075 33.2448H99.0409L103.029 57.7203ZM94.091 49.958H97.8657L95.9783 37.5804L94.091 49.958Z" fill="white"/>
<path d="M117.638 48.5944V51.8462C117.638 55.7622 115.644 58 111.798 58C107.952 58 105.958 55.7622 105.958 51.8462V39.1189C105.958 35.2028 107.952 32.965 111.798 32.965C115.644 32.965 117.638 35.2028 117.638 39.1189V41.4965H113.934V38.8741C113.934 37.1259 113.151 36.4615 111.905 36.4615C110.658 36.4615 109.875 37.1259 109.875 38.8741V52.0909C109.875 53.8392 110.658 54.4685 111.905 54.4685C113.151 54.4685 113.934 53.8392 113.934 52.0909V48.5944H117.638Z" fill="white"/>
<path d="M125.356 43.5594H130.734V47.0559H125.356V54.2238H132.123V57.7203H121.439V33.2448H132.123V36.7413H125.356V43.5594Z" fill="white"/>
</svg>
