<svg width="210" height="128" viewBox="0 0 210 128" fill="none" xmlns="http://www.w3.org/2000/svg">
<rect width="210" height="128" rx="20" fill="url(#paint0_linear_3_455)" fill-opacity="0.1"/>
<rect width="210" height="128" rx="20" fill="url(#paint1_radial_3_455)" fill-opacity="0.3"/>
<path d="M167.395 68.2625C167.138 66.968 166.487 65.7855 166.399 64.4622C166.325 63.3687 166.228 62.278 166.091 61.1873C165.771 58.7475 164.875 56.4169 163.762 54.2067C162.647 51.9966 161.349 49.8697 160.139 47.7802C159.446 46.6378 158.629 45.5615 157.691 44.9185C156.758 44.2612 155.745 44.0632 154.524 44.1435C153.677 44.201 152.746 44.3904 151.85 44.8295C150.96 45.263 150.118 45.9145 149.456 46.701C148.775 47.5133 148.284 48.4346 147.882 49.3445C147.474 50.2601 147.126 51.2015 146.798 52.1488C144.9 57.5191 143.26 62.9841 141.616 68.5983C143.511 68.8681 145.442 68.9169 147.342 68.7907C147.351 68.6586 147.362 68.5266 147.374 68.3916C147.608 68.3831 147.848 68.3831 148.084 68.4031C148.535 68.162 148.994 67.9439 149.476 67.7918C149.542 67.7717 149.605 67.7717 149.665 67.7746C150.327 66.6437 150.992 65.5041 151.642 64.3905C151.756 64.1867 151.882 63.9915 152.007 63.8308C152.13 63.6873 152.261 63.5553 152.427 63.4462C152.832 63.1677 153.012 62.7832 153.206 62.4014C153.377 62.0627 153.497 61.6838 153.685 61.3911C153.939 61.0064 154.138 60.6218 154.378 60.2315C154.615 59.844 154.926 59.445 155.417 59.1206C155.896 58.8164 156.561 58.6126 157.314 58.6413C158.062 58.67 158.886 58.8853 159.645 59.2957C160.244 59.6172 160.895 60.1827 161.08 60.8658C161.306 61.7068 160.45 62.2808 160.661 63.162C160.747 63.5179 160.995 63.8222 161.063 64.181C161.121 64.4766 161.052 64.7981 161.174 65.0736C161.252 65.2487 161.4 65.3836 161.497 65.5501C161.668 65.8486 161.663 66.2131 161.648 66.5547C161.617 67.4531 161.608 68.3515 161.551 69.247C161.56 69.1236 166.864 69.1121 167.5 69.1351C167.489 68.8394 167.452 68.5467 167.395 68.2625ZM157.522 57.1803C156.715 57.1057 155.97 57.2177 155.314 57.3124C154.649 57.4157 154.062 57.4731 153.297 57.3812C152.763 57.3238 152.119 57.189 151.437 57.1718C151.031 57.1545 150.615 57.1746 150.21 57.2464C150.107 57.2636 150.021 57.1689 150.055 57.0713C150.221 56.5862 150.387 56.1011 150.555 55.6161C150.84 54.7751 151.169 53.9484 151.571 53.162C151.834 52.6654 152.041 52.1516 152.244 51.635C152.444 51.1183 152.618 50.5816 152.792 50.1051C153.103 49.2354 153.363 48.4633 153.716 47.8778C153.834 47.6769 153.956 47.5018 154.078 47.3324C154.201 47.1659 154.293 47.0397 154.424 46.899C154.675 46.6235 154.972 46.391 155.26 46.2188C155.548 46.058 155.813 45.9375 156.085 45.903C156.376 45.86 156.726 45.9317 157.137 46.1585C157.54 46.3996 157.973 46.7899 158.373 47.2836C158.778 47.7716 159.158 48.3456 159.522 48.957C160.265 50.2085 160.992 51.4886 161.671 52.7888C162.339 54.069 162.978 55.4237 162.927 56.8904C162.921 57.0339 162.587 59.0087 162.498 58.98C161.626 58.7246 160.906 58.1419 160.05 57.7946C159.24 57.4674 158.39 57.2607 157.522 57.1803Z" fill="#48C5C7"/>
<path d="M64.1379 65.1797C64.1294 65.0649 64.1209 64.9472 64.1066 64.8324C63.9525 64.8468 63.7984 64.8583 63.6415 64.8726C63.6187 64.8755 63.593 64.8755 63.5759 64.8583C63.5645 64.8439 63.5617 64.8238 63.5588 64.8066C63.5531 64.7234 63.5474 64.643 63.5445 64.5598C63.5445 64.5454 63.5416 64.5282 63.5303 64.5196C63.5246 64.5138 63.516 64.5138 63.5074 64.511C63.1251 64.4421 62.6828 64.5856 62.3034 64.6401C61.8783 64.7033 61.4503 64.7607 61.0252 64.8095C58.9766 65.0506 56.8966 65.1108 54.8651 64.7033C53.9578 64.5225 53.1247 64.1264 52.1946 64.1149C51.1731 64.1034 50.1432 64.1923 49.1188 64.2354C48.668 64.2555 48.203 64.2986 47.7636 64.399C47.3727 64.488 46.9561 64.4679 46.5681 64.5712C46.1972 64.6688 45.755 65.1826 45.3897 65.1797C44.782 65.1769 45.3726 64.4737 45.5609 64.2727C46.6252 63.1332 46.7621 61.6952 47.0246 60.2285C47.1787 59.3674 47.6837 58.3341 47.6038 57.496C47.5867 57.3152 47.5553 57.1315 47.5838 56.9535C47.6409 56.5976 47.7408 56.2417 47.8178 55.8887C47.8321 55.8226 47.8492 55.7508 47.8264 55.6877C47.6266 55.1567 47.7893 54.6315 47.8121 54.1062C47.8207 53.8881 47.8035 53.6814 47.7065 53.4719C47.6723 53.3972 47.6152 53.3169 47.6238 53.2422C47.6837 52.829 47.775 52.4185 47.8349 52.0052C47.8606 51.8272 47.8492 51.6463 47.8406 51.4656C47.8321 51.2618 47.8007 51.0609 47.7921 50.8571C47.6295 47.3467 47.6095 48.0844 47.7265 44.5597C47.7322 44.3702 47.7265 44.1578 47.5667 44.0229C47.4497 43.9224 47.2785 44.1865 47.1188 44.1607C46.434 44.0602 45.715 43.9655 45.0417 44.0344C44.4225 43.9827 43.7863 44.0947 43.1728 44.1693C43.1814 44.2497 43.1871 44.3329 43.1957 44.4133C43.0273 44.4707 42.8504 44.5022 42.6735 44.508C42.6108 44.5109 42.5366 44.5166 42.5109 44.5711C42.4966 44.5998 42.4995 44.6314 42.5023 44.663C42.568 45.3863 42.665 46.1067 42.722 46.8329C42.7534 47.2175 42.7734 47.6021 42.7876 47.9896C42.8019 48.3542 42.6992 48.6929 42.8647 49.0402C42.9189 49.155 42.9988 49.2813 42.9588 49.4018C42.936 49.4736 42.8761 49.5281 42.8362 49.5941C42.7905 49.6716 42.7762 49.7692 42.7962 49.8582C42.8133 49.93 42.8533 49.996 42.8704 50.0677C42.8847 50.1309 42.879 50.194 42.8732 50.2571C42.6336 53.1274 42.7876 56.0264 42.7163 58.9053C42.6792 60.4667 42.6536 62.031 42.6393 63.5925C42.6336 64.3876 42.5166 65.24 42.6165 66.0294C42.7391 66.9937 42.8761 67.9926 42.9046 68.9714C43.1985 68.9169 43.5095 69.0661 43.7948 68.9743C44.0973 68.8766 44.2542 68.5552 44.4197 68.2854C44.7706 67.7142 45.2699 67.3325 45.6722 66.8186C46.0232 66.3738 46.6423 65.7997 47.2186 65.6821C47.5154 65.6218 47.8178 65.7308 48.1003 65.8399C48.4141 65.9605 48.7365 66.081 48.9933 66.2991C49.2016 66.4742 49.3557 66.701 49.5554 66.8847C50.1089 67.3927 50.9164 67.4989 51.5469 67.9065C52.36 68.4346 53.0077 68.5782 53.9892 68.6241C54.2032 68.6356 54.4086 68.7131 54.6198 68.7475C54.8052 68.7791 54.9936 68.7791 55.179 68.7791C56.0435 68.7762 56.928 68.6987 57.784 68.7618C58.1121 68.782 58.4402 68.7963 58.7654 68.8307C59.5272 68.9197 60.3147 68.9972 61.0993 69.0345C61.4959 69.0374 61.8954 69.0115 62.292 68.9628C62.4917 68.9369 62.6886 68.9082 62.8854 68.8594C63.0823 68.8049 63.2791 68.7418 63.4732 68.6643C63.6387 68.6011 63.8127 68.5207 63.9211 68.3686C64.0353 68.2107 64.0609 68.0069 64.078 67.8147C64.1722 66.9507 64.2007 66.0581 64.1379 65.1797Z" fill="#48C5C7"/>
<path d="M139.316 64.2669C139.331 64.5884 139.328 64.9185 139.308 65.2572C139.299 65.3461 139.299 65.4093 139.282 65.5442L139.234 65.9173C139.191 66.1613 139.151 66.411 139.08 66.6406C138.957 67.1142 138.766 67.5477 138.526 67.9179C138.263 68.3111 137.944 68.6183 137.581 68.8393L137.302 68.9856L137.002 69.089C136.8 69.1464 136.6 69.1981 136.386 69.2009C135.533 69.2382 134.725 68.8048 134.123 68.2595C133.507 67.7314 133.071 67.1487 132.754 66.6349C132.423 66.1125 132.121 65.6073 131.767 65.1136C131.105 64.1779 130.6 63.1561 130.121 62.1257C129.641 61.0924 129.176 60.039 128.608 58.9885C128.098 58.0355 127.632 57.0568 127.207 56.0608C126.993 55.5643 126.797 55.0591 126.603 54.5539L126.266 53.6383L125.912 52.6136C125.629 51.7869 125.373 50.9517 125.105 50.1222C124.882 49.4304 124.691 48.5464 124.283 47.9379C124.174 47.7772 124.038 47.6336 123.941 47.4643C123.86 47.3237 123.809 47.1658 123.718 47.0309C123.606 46.8673 123.376 46.4999 123.216 46.3908C122.774 46.0923 122.368 46.2904 122.098 46.6778C122.06 46.7238 122.023 46.7726 121.994 46.8271C121.963 46.8759 121.938 46.9821 121.909 47.0567C121.86 47.2232 121.818 47.3897 121.778 47.5533C121.706 47.8862 121.649 48.2163 121.612 48.5349C121.535 49.175 121.51 49.7691 121.501 50.2944C121.487 51.1296 121.538 51.8214 121.552 52.4069C121.572 52.9953 121.584 53.4804 121.59 53.9138C121.59 54.1176 121.59 54.3214 121.59 54.5252L121.587 54.8065L121.584 54.9442C121.584 54.9901 121.584 55.0246 121.575 55.1251C121.524 55.7996 121.473 56.4684 121.424 57.1199C121.418 57.1716 121.395 57.229 121.424 57.2749C121.587 57.5275 121.578 57.7428 121.392 57.9351C121.367 57.9609 121.37 58.0097 121.381 58.0499C121.747 59.4018 121.264 61.1297 121.279 62.496C121.298 64.6056 121.609 66.6923 121.701 68.7962C121.703 68.8479 121.703 68.9024 121.687 68.9483C121.632 69.0775 121.458 69.0947 121.318 69.0918C120.34 69.0689 119.361 69.0431 118.382 69.0201C118.314 69.0172 118.24 69.0144 118.183 68.977C118.112 68.9282 118.083 68.8335 118.06 68.7503C117.986 68.4575 117.897 68.2308 117.889 67.9265C117.881 67.5649 117.872 67.2003 117.866 66.8387C117.855 66.1125 117.849 65.3863 117.849 64.6602C117.846 61.744 117.906 58.8306 117.837 55.9144C117.832 55.6762 117.806 55.4351 117.803 55.1968C117.8 54.9845 117.792 54.772 117.823 54.5654L118.191 52.1228C118.214 51.9706 118.174 51.7669 118.157 51.5803C118.114 51.0694 118.143 50.5872 118.197 50.1021C118.229 49.8093 118.271 49.5252 118.311 49.241C118.365 48.9827 118.434 48.7502 118.491 48.4976C118.548 48.2479 118.602 47.9896 118.642 47.7111C118.662 47.5705 118.682 47.427 118.699 47.2749C118.708 47.2002 118.714 47.1227 118.722 47.0452C118.733 46.985 118.742 46.9218 118.753 46.8587C118.774 46.7352 118.825 46.6577 118.871 46.5803L119.247 45.9775C119.31 45.8856 119.367 45.7622 119.433 45.6905L119.621 45.4666C119.743 45.3173 119.849 45.0934 119.969 44.9098C120.251 44.485 120.645 44.2869 121.107 44.1635C121.339 44.1032 121.59 44.0602 121.878 44.0314C122.163 44.0085 122.499 43.997 122.825 44.0458L122.967 44.0688L123.004 44.0745C123.019 44.0458 123.016 44.0716 123.022 44.0659L123.045 44.0802L123.139 44.1348L123.324 44.2496C123.826 44.6141 124.425 44.7777 124.82 45.2972C124.956 45.4809 125.027 45.7019 125.099 45.9201C125.881 48.3885 126.514 50.9 127.316 53.3656L127.71 54.574C127.815 54.8926 127.918 55.2112 128.029 55.5269C128.246 56.1584 128.474 56.7898 128.72 57.4098C129.701 59.8725 130.862 62.3525 132.483 64.1952C132.885 64.6515 133.316 65.0591 133.764 65.3863L133.89 65.4753C133.918 65.4954 133.947 65.5126 133.978 65.5299C134.038 65.5643 134.095 65.5987 134.158 65.6274C134.277 65.6877 134.4 65.7337 134.523 65.768C134.646 65.7996 134.774 65.814 134.891 65.7796C135.008 65.7451 135.102 65.659 135.165 65.5586C135.29 65.349 135.308 65.0993 135.299 64.8869L135.296 64.752C135.305 64.6372 135.311 64.5223 135.319 64.4075C135.336 64.1521 135.35 63.8995 135.368 63.6469C135.405 63.0872 135.442 62.5275 135.481 61.9506C135.504 61.5487 135.533 61.1469 135.593 60.7537C135.67 60.2399 135.67 59.7233 135.547 59.1894C135.065 57.0884 135.211 54.993 135.196 52.892C135.185 51.4856 135.139 50.0762 135.136 48.6698C135.133 47.2863 135.29 45.8971 135.205 44.5165C135.202 44.4562 135.199 44.3902 135.233 44.3386C135.282 44.2697 135.379 44.2639 135.465 44.2639C136.443 44.2582 137.419 44.2525 138.397 44.2467C138.472 44.2467 138.557 44.2496 138.612 44.3041C138.66 44.3558 138.666 44.4362 138.7 44.4993C138.766 44.6141 138.917 44.6428 139.048 44.6399C139.179 44.6371 139.319 44.6199 139.43 44.6859C139.613 44.7949 139.624 45.0504 139.61 45.2628C139.465 47.6336 139.208 49.9901 138.999 52.3581C138.871 53.8018 138.908 55.2743 138.957 56.7439C139.031 58.9511 139.14 61.1613 139.276 63.3714L139.316 64.2669ZM114.802 53.4173C115.327 55.4466 115.295 57.5935 114.811 59.5539C114.334 61.5258 113.378 63.3283 112.097 64.775C111.569 65.3806 110.976 65.8886 110.374 66.3536C109.752 66.7985 109.118 67.1917 108.453 67.5046C107.789 67.8203 107.113 68.0901 106.41 68.2939C105.714 68.5092 104.996 68.6728 104.253 68.7905C102.633 69.066 100.952 69.0947 99.2892 68.8508C97.6313 68.5838 95.985 68.0327 94.5585 67.0884C93.5142 66.4081 92.5983 65.4868 91.9078 64.4133C91.2117 63.3398 90.7238 62.1343 90.4271 60.8828C89.8308 58.3771 89.9791 55.6905 90.8151 53.2135C91.2317 51.9735 91.8308 50.7852 92.6012 49.7117C93.3687 48.6325 94.3274 47.6738 95.4059 46.8989C96.4244 46.1641 97.5486 45.5728 98.7354 45.1824C99.329 44.9873 99.9395 44.8437 100.556 44.7662C100.85 44.7289 101.135 44.6371 101.432 44.6026C101.554 44.5883 101.672 44.5768 101.794 44.551C101.845 44.5395 101.997 44.5366 102.028 44.4936C102.068 44.4362 101.999 44.3472 102.014 44.2812C102.022 44.2324 102.065 44.1951 102.114 44.1807C102.159 44.1663 102.211 44.1663 102.259 44.1692C102.853 44.1951 103.46 44.175 104.057 44.2238C104.622 44.2668 105.166 44.4304 105.714 44.5624C105.925 44.6112 106.128 44.7146 106.339 44.7548C106.519 44.7892 106.673 44.7949 106.844 44.8868C106.953 44.7031 107.061 44.5223 107.169 44.3386C107.512 44.4304 107.734 44.4821 108.048 44.6715C108.257 44.7978 108.476 44.8983 108.684 45.0246C109.104 45.2829 109.503 45.5728 109.886 45.8885C110.647 46.5171 111.338 47.2318 111.983 47.9838C113.307 49.5223 114.294 51.3937 114.802 53.4173ZM102.881 47.6136C102.519 47.671 102.156 47.7513 101.794 47.8489C101.492 47.9322 101.224 48.0584 100.901 48.245C100.581 48.4345 100.214 48.6899 99.8223 48.954C99.4204 49.2267 99.0465 49.4735 98.6844 49.7289C97.229 50.7393 95.9993 51.8386 95.3887 53.0929C94.5585 54.7405 94.6897 56.9276 95.2261 59.1377C95.3716 59.752 95.5485 60.3719 95.7454 60.9976C95.9451 61.6291 96.1477 62.2146 96.3731 62.737C96.5985 63.2623 96.8524 63.713 97.1349 64.0804C97.4117 64.4449 97.7341 64.752 98.1449 65.0333C98.7842 65.4753 99.6031 65.7911 100.473 65.9575C100.907 66.0379 101.352 66.0895 101.8 66.1039C102.248 66.1125 102.696 66.0895 103.143 66.035C104.285 65.8886 105.395 65.5212 106.388 64.9586C107.378 64.4018 108.262 63.6326 108.987 62.717C109.712 61.8042 110.274 60.7479 110.619 59.6314C110.97 58.5264 111.09 57.3036 111.084 56.0206C111.081 55.3805 111.047 54.7233 110.998 54.0573C110.95 53.3972 110.885 52.7686 110.767 52.1888C110.539 51.012 110.091 50.1078 109.278 49.3386C108.476 48.5751 107.429 48.0326 106.282 47.7427C105.147 47.4528 104.011 47.4327 102.881 47.6136ZM95.3031 66.7325C95.7283 66.9794 96.1705 67.1946 96.627 67.3754C96.0279 66.9851 95.4715 66.5086 95.0121 65.9317C94.1961 64.9156 93.7168 63.7417 93.3516 62.6165C92.9949 61.4913 92.6925 60.3576 92.4956 59.1865C92.2959 58.0183 92.2132 56.8157 92.3244 55.6188C92.4443 54.4621 92.7495 53.3082 93.3202 52.3151C93.8709 51.3076 94.6584 50.5011 95.5029 49.8352C96.3531 49.1692 97.2747 48.6354 98.2105 48.1273C98.6811 47.8747 99.1519 47.6193 99.6228 47.3638C100.094 47.1141 100.562 46.8759 101.047 46.7381C101.406 46.629 101.777 46.5803 102.154 46.5602C102.043 46.2789 101.962 45.9947 101.908 45.7077C100.798 45.6847 99.6827 45.8512 98.6216 46.1956C97.2519 46.6463 95.9565 47.361 94.8609 48.3139C93.7567 49.2611 92.8494 50.4293 92.1846 51.7152C91.5113 52.9953 91.0719 54.3874 90.8579 55.7967C90.4242 58.6038 90.9035 61.5976 92.3901 63.9426C93.1319 65.1136 94.1419 66.0608 95.3031 66.7325Z" fill="#48C5C7"/>
<path d="M85.1886 48.7015C84.695 47.9782 84.1015 47.3553 83.4995 46.8014C82.8804 46.2675 82.2384 45.8312 81.5993 45.4753C80.3068 44.7893 79.04 44.4248 77.8188 44.2497C76.5976 44.0631 75.4165 44.0574 74.2581 44.1177C72.9627 44.1894 71.6731 44.4076 70.4177 44.7721C69.1594 45.1424 67.9497 45.6619 66.7599 46.4799C65.9268 47.0511 65.0994 47.8002 64.3547 48.7474C63.61 49.6889 62.9623 50.8169 62.5258 52.0655C61.6299 54.6458 61.7412 57.6309 62.7883 60.3089C63.5216 62.2176 64.6828 64.0403 66.3433 65.53C66.7485 65.9117 67.205 66.2475 67.6615 66.5862C68.1437 66.8962 68.623 67.2177 69.1594 67.476C70.2123 68.0185 71.3564 68.4289 72.549 68.6758C74.9342 69.1953 77.5136 69.1207 79.9701 68.4117C81.4395 67.9927 83.0544 67.3584 84.0816 66.3308C85.0117 65.4094 86.2585 64.5569 86.3784 63.2595C86.404 62.9869 86.3784 62.7142 86.4326 62.4444C86.5011 62.1086 86.6922 61.7957 86.8006 61.4656C86.9262 61.0868 86.9404 60.6907 86.9547 60.3003C87.0432 58.0299 87.3541 55.7079 87.0432 53.4863C86.8234 51.8244 86.1872 50.1395 85.1886 48.7015ZM83.1143 52.1028C83.354 53.5466 83.3369 55.0907 83.2085 56.5718C83.1429 57.3669 83.0801 58.2136 82.9945 58.9886C82.8718 60.0821 82.6293 60.9231 82.0957 61.8905C81.5165 62.9324 81.2427 63.9427 80.1813 64.7377C79.6134 65.108 79.0143 65.4467 78.3495 65.6735C77.0456 66.1701 75.582 66.3078 74.1953 66.1959C72.8058 66.0552 71.4876 65.6304 70.3892 64.976C69.2679 64.2986 68.2978 63.4174 67.5388 62.364C66.9368 61.5489 66.4832 60.6247 66.2378 59.6631C65.9125 58.4461 65.6729 57.232 65.5873 56.0007C65.5188 54.8927 65.5673 53.7676 65.8155 52.7428C66.9796 47.9639 73.8415 44.8094 78.4379 46.2847C81.4138 47.2405 82.6835 49.5052 83.1143 52.1028Z" fill="#48C5C7"/>
<path d="M76.9971 83.8364V77.9035H77.9131L79.9901 83.1361H80.0073L82.0502 77.9035H82.9575V83.8364H82.3583V78.5465H82.3411L80.2641 83.8364H79.6991L77.6106 78.5465H77.5935V83.8364H76.9971Z" fill="white"/>
<path d="M86.755 80.8803C86.755 80.4469 86.8178 80.0393 86.9433 79.6604C87.0689 79.2815 87.2572 78.9514 87.5026 78.6673C87.7479 78.3831 88.0532 78.1621 88.4184 77.9957C88.7836 77.832 89.2031 77.7488 89.6767 77.7488C90.1703 77.7488 90.604 77.8292 90.9749 77.9928C91.3487 78.1564 91.6596 78.3774 91.9078 78.6616C92.1561 78.9457 92.3444 79.2758 92.47 79.6575C92.5955 80.0393 92.6582 80.4469 92.6582 80.8803C92.6582 81.308 92.5955 81.7127 92.47 82.0887C92.3444 82.4647 92.1561 82.7947 91.9107 83.0789C91.6654 83.3631 91.3572 83.5841 90.9863 83.7506C90.6154 83.9171 90.1874 83.9974 89.6995 83.9974C89.2116 83.9974 88.7836 83.9142 88.4127 83.7506C88.0418 83.5869 87.7337 83.3631 87.4883 83.0789C87.2429 82.7947 87.0575 82.4676 86.9348 82.0887C86.8178 81.7098 86.755 81.308 86.755 80.8803ZM89.7138 83.5152C90.1247 83.5152 90.4784 83.4434 90.7752 83.297C91.0719 83.1507 91.3144 82.9584 91.5056 82.7172C91.6968 82.4762 91.8365 82.1949 91.9279 81.8763C92.0192 81.5576 92.0648 81.2247 92.0648 80.8803C92.0648 80.4698 92.0106 80.0996 91.9022 79.7723C91.7938 79.4451 91.6368 79.1667 91.4314 78.9371C91.226 78.7075 90.9777 78.5295 90.6839 78.409C90.39 78.2884 90.0619 78.2282 89.6966 78.2282C89.2915 78.2282 88.9406 78.3028 88.6438 78.452C88.3471 78.6013 88.1046 78.7965 87.9135 79.0405C87.7223 79.2844 87.5825 79.5657 87.4911 79.8843C87.3998 80.2029 87.3542 80.5359 87.3542 80.8803C87.3542 81.2333 87.3998 81.5663 87.4911 81.8849C87.5825 82.2035 87.7223 82.4848 87.9135 82.7259C88.1046 82.967 88.3471 83.1593 88.6438 83.3028C88.9406 83.4463 89.2972 83.5152 89.7138 83.5152Z" fill="white"/>
<path d="M96.7411 82.0654C96.764 82.3295 96.8267 82.5534 96.9294 82.7371C97.0321 82.9208 97.1634 83.0701 97.326 83.1849C97.4886 83.2997 97.6741 83.3829 97.8853 83.4375C98.0964 83.492 98.3217 83.5149 98.5645 83.5149C98.847 83.5149 99.0891 83.4805 99.2948 83.4174C99.5 83.3514 99.6687 83.2624 99.7971 83.1504C99.9254 83.0385 100.022 82.9064 100.082 82.76C100.145 82.6108 100.173 82.4558 100.173 82.2894C100.173 82.0597 100.117 81.8731 100.005 81.7296C99.8941 81.5861 99.7483 81.4713 99.5684 81.3795C99.389 81.2876 99.1833 81.2159 98.9524 81.1613C98.7214 81.1068 98.4816 81.0522 98.239 81.0006C97.9965 80.9489 97.7568 80.8858 97.5257 80.814C97.2946 80.7422 97.0892 80.6475 96.9095 80.527C96.7297 80.4065 96.5842 80.2514 96.4729 80.062C96.3617 79.8726 96.3046 79.6315 96.3046 79.3416C96.3046 79.1378 96.3502 78.9397 96.4415 78.7474C96.5328 78.5551 96.6669 78.3858 96.8467 78.2365C97.0264 78.0872 97.249 77.9696 97.52 77.8835C97.7911 77.7945 98.1021 77.7514 98.453 77.7514C98.8094 77.7514 99.1233 77.7973 99.3918 77.8921C99.6598 77.9868 99.8795 78.1131 100.057 78.2767C100.233 78.4374 100.365 78.6268 100.453 78.8421C100.541 79.0574 100.584 79.2842 100.584 79.5252H100.011C100.011 79.2985 99.9681 79.1062 99.8823 78.9398C99.7971 78.7732 99.6799 78.6412 99.5342 78.535C99.389 78.4317 99.2203 78.3542 99.0319 78.3054C98.8442 78.2566 98.6497 78.2308 98.4502 78.2308C98.1448 78.2308 97.8881 78.271 97.6798 78.3513C97.4715 78.4317 97.3061 78.535 97.1833 78.6613C97.0606 78.7876 96.9751 78.9282 96.9266 79.0804C96.8781 79.2353 96.8695 79.3875 96.9009 79.5425C96.9351 79.7348 97.0179 79.8898 97.1462 80.0046C97.2747 80.1194 97.4344 80.2142 97.6228 80.2888C97.811 80.3634 98.0165 80.4236 98.2447 80.4696C98.4701 80.5155 98.7012 80.5643 98.935 80.6188C99.1693 80.6734 99.3974 80.7336 99.6172 80.8054C99.8369 80.8772 100.034 80.9719 100.202 81.0924C100.373 81.213 100.507 81.368 100.61 81.5574C100.713 81.7468 100.764 81.9851 100.764 82.2692C100.764 82.8175 100.562 83.2452 100.156 83.5465C99.7511 83.8479 99.1805 84 98.4473 84C98.1192 84 97.8139 83.9599 97.5314 83.8795C97.249 83.7991 97.0064 83.6786 96.801 83.5178C96.5956 83.3542 96.4358 83.1562 96.3217 82.9151C96.2076 82.6768 96.1505 82.3955 96.1505 82.0712H96.7411V82.0654Z" fill="white"/>
<path d="M109.018 79.626C108.896 79.1208 108.668 78.762 108.331 78.5468C107.997 78.3315 107.561 78.2253 107.018 78.2253C106.636 78.2253 106.308 78.297 106.031 78.4405C105.754 78.584 105.529 78.7764 105.349 79.0175C105.169 79.2586 105.038 79.537 104.952 79.8527C104.867 80.1684 104.824 80.5014 104.824 80.8545C104.824 81.1845 104.862 81.5089 104.936 81.8275C105.01 82.1461 105.129 82.4302 105.3 82.68C105.472 82.9297 105.7 83.1335 105.988 83.2855C106.276 83.4406 106.636 83.5152 107.072 83.5152C107.344 83.5152 107.589 83.475 107.812 83.3918C108.034 83.3085 108.231 83.1966 108.396 83.0502C108.562 82.9038 108.705 82.7345 108.819 82.5364C108.933 82.3384 109.019 82.1202 109.078 81.8849H109.703C109.632 82.1719 109.529 82.4417 109.395 82.6972C109.261 82.9526 109.084 83.1765 108.862 83.3688C108.642 83.5611 108.373 83.7133 108.06 83.8252C107.746 83.9371 107.378 83.9945 106.956 83.9945C106.467 83.9945 106.051 83.9113 105.706 83.742C105.36 83.5755 105.075 83.3487 104.855 83.0617C104.636 82.7775 104.476 82.4446 104.376 82.0686C104.276 81.6926 104.225 81.2936 104.225 80.8688C104.225 80.3034 104.299 79.824 104.451 79.4279C104.599 79.0318 104.807 78.7104 105.072 78.4606C105.338 78.2109 105.649 78.0301 106.006 77.9181C106.362 77.8062 106.753 77.7488 107.175 77.7488C107.498 77.7488 107.8 77.789 108.077 77.8694C108.356 77.9497 108.602 78.0674 108.816 78.2282C109.03 78.386 109.207 78.584 109.344 78.8165C109.48 79.049 109.577 79.3217 109.629 79.6288H109.018V79.626Z" fill="white"/>
<path d="M113.272 80.8803C113.272 80.4469 113.335 80.0393 113.461 79.6604C113.586 79.2815 113.772 78.9514 114.02 78.6673C114.266 78.3831 114.571 78.1621 114.936 77.9957C115.301 77.832 115.72 77.7488 116.194 77.7488C116.688 77.7488 117.122 77.8292 117.492 77.9928C117.866 78.1564 118.177 78.3774 118.425 78.6616C118.674 78.9457 118.862 79.2758 118.988 79.6575C119.113 80.0393 119.176 80.4469 119.176 80.8803C119.176 81.308 119.113 81.7127 118.988 82.0887C118.862 82.4647 118.674 82.7947 118.428 83.0789C118.183 83.3631 117.874 83.5841 117.504 83.7506C117.133 83.9171 116.705 83.9974 116.217 83.9974C115.729 83.9974 115.301 83.9142 114.93 83.7506C114.559 83.5869 114.251 83.3631 114.006 83.0789C113.761 82.7947 113.575 82.4676 113.452 82.0887C113.332 81.7098 113.272 81.308 113.272 80.8803ZM116.232 83.5152C116.642 83.5152 116.996 83.4434 117.293 83.297C117.589 83.1507 117.832 82.9584 118.023 82.7172C118.214 82.4762 118.354 82.1949 118.445 81.8763C118.536 81.5576 118.582 81.2247 118.582 80.8803C118.582 80.4698 118.528 80.0996 118.42 79.7723C118.311 79.4451 118.154 79.1667 117.949 78.9371C117.743 78.7075 117.492 78.5295 117.201 78.409C116.908 78.2884 116.58 78.2282 116.214 78.2282C115.809 78.2282 115.458 78.3028 115.161 78.452C114.864 78.6013 114.622 78.7965 114.431 79.0405C114.24 79.2844 114.1 79.5657 114.008 79.8843C113.918 80.2029 113.872 80.5359 113.872 80.8803C113.872 81.2333 113.918 81.5663 114.008 81.8849C114.1 82.2035 114.24 82.4848 114.431 82.7259C114.622 82.967 114.864 83.1593 115.161 83.3028C115.455 83.4434 115.814 83.5152 116.232 83.5152Z" fill="white"/>
<path d="M127.987 83.0471H128.003L129.387 77.9064H130.003L128.34 83.8393H127.678L126.209 78.5981H126.192L124.719 83.8393H124.061L122.42 77.9035H123.019L124.383 83.0442H124.4L125.872 77.9035H126.54L127.987 83.0471Z" fill="white"/>
<defs>
<linearGradient id="paint0_linear_3_455" x1="105" y1="0" x2="105" y2="128" gradientUnits="userSpaceOnUse">
<stop stop-color="white" stop-opacity="0"/>
<stop offset="1" stop-color="white"/>
</linearGradient>
<radialGradient id="paint1_radial_3_455" cx="0" cy="0" r="1" gradientUnits="userSpaceOnUse" gradientTransform="translate(105 128) rotate(-90) scale(128 208.905)">
<stop stop-color="#48C5C7"/>
<stop offset="1" stop-color="#48C5C7" stop-opacity="0.1"/>
</radialGradient>
</defs>
</svg>
