<svg width="210" height="128" viewBox="0 0 210 128" fill="none" xmlns="http://www.w3.org/2000/svg">
<rect width="210" height="128" rx="20" fill="url(#paint0_linear_3_423)" fill-opacity="0.1"/>
<path d="M106.69 41.3247L106.189 40.4837C110.987 37.613 112.965 34.6862 112.981 34.6862L113.797 35.247C113.714 35.331 111.692 38.3307 106.69 41.3247Z" fill="white"/>
<path d="M102.57 39.4404C102.64 38.9492 102.517 38.4495 102.228 38.0499C102.018 37.711 101.788 37.3852 101.539 37.0743C100.056 35.4244 98.2663 34.0904 96.273 33.1496L96.7027 32.2749C99.5012 33.6598 101.732 35.4764 102.829 37.1304C103.077 37.5064 103.28 37.911 103.435 38.3358C103.613 38.7794 103.64 39.2709 103.512 39.732" fill="white"/>
<path d="M107.197 44.2178C106.745 45.2887 105.924 45.9559 105.093 45.9559C105.017 45.9614 104.942 45.9614 104.867 45.9559C104.385 45.9024 103.933 45.6908 103.579 45.353C103.225 45.0152 102.989 44.5696 102.906 44.0832C102.751 42.9282 103.528 41.8405 104.999 41.1845L105.396 42.0704C104.349 42.5469 103.776 43.2478 103.87 43.9486C103.924 44.2242 104.065 44.4744 104.27 44.6623C104.475 44.8502 104.735 44.9656 105.01 44.9914C105.451 45.0588 105.991 44.5765 106.294 43.8701" fill="white"/>
<path d="M100.278 38.9627C100.235 39.1272 100.237 39.3003 100.283 39.4639C100.328 39.6276 100.416 39.7759 100.537 39.8934C100.689 40.0689 100.883 40.2025 101.099 40.2819C101.316 40.3612 101.549 40.3838 101.776 40.3475C101.976 40.2808 102.155 40.1609 102.295 40.0002C102.434 39.8396 102.529 39.644 102.569 39.4336L103.512 39.7308C103.429 40.1118 103.244 40.4619 102.978 40.7421C102.711 41.0224 102.374 41.2215 102.002 41.3176C101.603 41.4008 101.189 41.3756 100.802 41.2447C100.415 41.1139 100.069 40.8818 99.7985 40.5718C99.5567 40.3303 99.3847 40.0259 99.3011 39.6917C99.2176 39.3576 99.2258 39.0065 99.3248 38.6768L100.278 38.9627Z" fill="white"/>
<path d="M104.993 83L104.746 82.854C104.646 82.798 102.421 81.447 102.2 79.535C102.019 77.9425 102.333 77.4495 103.671 75.3635L104.564 73.934L104.993 74.203L105.418 73.934C105.765 74.4945 106.057 74.943 106.316 75.341C107.654 77.427 107.968 77.92 107.786 79.5125C107.572 81.4245 105.341 82.7755 105.241 82.832L104.993 83ZM104.993 75.1055L104.492 75.8905C103.192 77.9145 103.027 78.178 103.17 79.4175C103.297 80.5385 104.47 81.475 104.993 81.845C105.544 81.475 106.69 80.533 106.817 79.4175C106.96 78.178 106.817 77.9145 105.495 75.8905L104.993 75.1055Z" fill="white"/>
<path d="M96.7797 76.21L96.1738 75.4475C98.9282 73.205 101.363 72.224 103.203 72.5265C103.649 72.5905 104.076 72.7505 104.456 72.996C104.836 73.2415 105.16 73.567 105.407 73.9505L104.586 74.5115C104.418 74.243 104.194 74.0155 103.931 73.845C103.667 73.6745 103.37 73.565 103.06 73.5245C101.506 73.2385 99.2807 74.203 96.7797 76.21Z" fill="white"/>
<path d="M113.201 76.2085C110.706 74.2015 108.48 73.237 106.938 73.489C106.627 73.5335 106.33 73.6465 106.066 73.8195C105.803 73.993 105.579 74.223 105.412 74.493L104.613 73.932C104.858 73.5475 105.182 73.221 105.562 72.975C105.942 72.7295 106.37 72.57 106.817 72.508C108.662 72.2055 111.092 73.2145 113.852 75.429L113.201 76.2085Z" fill="white"/>
<path d="M104.382 74.214C103.603 73.127 103.057 71.8855 102.779 70.5699C102.461 69.2859 102.462 67.9417 102.782 66.6584C103.103 65.3751 103.732 64.1931 104.613 63.2193L104.977 62.8101V64.307C104.321 65.1504 103.866 66.1372 103.648 67.1899C103.43 68.2426 103.455 69.3325 103.721 70.3736C103.947 71.449 104.38 72.468 104.993 73.373L105.605 74.203C106.089 74.7945 106.632 75.3335 107.224 75.812L107.346 75.9075C109.647 77.7055 112.509 78.5975 115.405 78.4195C116.234 78.3745 117.056 78.251 117.862 78.0495C119.092 77.736 120.289 77.2965 121.432 76.7375L121.9 77.595C120.684 78.195 119.41 78.6645 118.099 78.997C117.234 79.216 116.35 79.349 115.46 79.395H114.738C111.848 79.4155 109.033 78.4545 106.74 76.6645L106.618 76.5635C106.022 76.0885 105.468 75.5595 104.966 74.9825L104.382 74.214Z" fill="white"/>
<path d="M104.993 74.998C104.492 75.578 103.939 76.1095 103.341 76.5845L103.219 76.6855C100.933 78.47 98.1292 79.4305 95.2482 79.416H94.5266C93.6358 79.352 92.7525 79.2055 91.8878 78.979C90.5781 78.6415 89.3048 78.172 88.0867 77.577L88.555 76.7195C89.7001 77.2735 90.8957 77.713 92.1247 78.031C92.9286 78.2325 93.7494 78.3565 94.5761 78.4015C97.4732 78.581 100.337 77.691 102.641 75.895L102.762 75.7995C103.352 75.318 103.895 74.779 104.382 74.1905L104.993 73.372C105.605 72.468 106.038 71.451 106.266 70.3779C106.53 69.3358 106.554 68.2455 106.337 67.1922C106.119 66.1389 105.665 65.1511 105.01 64.3058V62.8144L105.373 63.2181C106.253 64.193 106.881 65.3752 107.2 66.6582C107.519 67.9413 107.52 69.2851 107.202 70.5686C106.93 71.883 106.385 73.1235 105.605 74.2075L104.993 74.998Z" fill="white"/>
<path d="M96.7136 59.5173L95.8598 59.0407C97.2976 56.4671 97.7107 54.2244 97.0938 52.3911C96.6049 51.0552 95.6307 49.9613 94.3724 49.3354L94.7525 48.4382C95.5017 48.796 96.1744 49.3006 96.7321 49.923C97.2898 50.5455 97.7215 51.2736 98.0027 52.0658C98.7299 54.174 98.2946 56.6859 96.7136 59.5173Z" fill="white"/>
<path d="M86.8858 76.809C84.574 75.078 82.5598 72.9695 80.9252 70.5687L81.7516 70.0528C83.3302 72.348 85.2652 74.367 87.4807 76.0295L86.8858 76.809Z" fill="white"/>
<path d="M93.0834 63.033L92.5325 62.2425C92.6758 62.1359 92.852 62.0181 93.0393 61.8948C94.411 60.9753 96.6972 59.439 96.3446 56.1647C96.229 55.0882 95.7937 54.3705 95.0996 54.2079C94.8942 54.1561 94.6785 54.1655 94.4783 54.2351C94.278 54.3046 94.1016 54.4315 93.9703 54.6004C93.7224 54.976 93.8161 55.4863 94.2237 56.0357L93.4415 56.5964C92.4995 55.3293 92.9291 54.3873 93.1605 54.0397C93.3986 53.6965 93.7342 53.4357 94.1222 53.2924C94.5102 53.1491 94.9321 53.1301 95.331 53.2379C96.4328 53.5014 97.1544 54.5499 97.3142 56.0414C97.7108 59.9156 95.0115 61.7322 93.5627 62.719C93.3809 62.8256 93.2211 62.9321 93.0834 63.033Z" fill="white"/>
<path d="M97.9146 62.928C97.4216 62.9196 96.935 62.8129 96.4823 62.614L96.8679 61.7169C97.3595 61.9618 97.9231 62.0118 98.4489 61.8571C98.536 61.8268 98.6158 61.7782 98.6832 61.7144C98.7506 61.6507 98.804 61.5732 98.8401 61.487C98.8843 61.3993 98.905 61.3013 98.9002 61.2029C98.8954 61.1045 98.8651 61.0091 98.8125 60.9263C98.6818 60.7856 98.5206 60.6778 98.3418 60.6116C98.163 60.5454 97.9714 60.5227 97.7824 60.5451V59.5583C98.1311 59.5293 98.4815 59.5882 98.8025 59.7301C99.1234 59.8719 99.405 60.0922 99.6223 60.3713C99.7639 60.5896 99.8491 60.8405 99.8703 61.1012C99.8915 61.3619 99.8479 61.6237 99.7435 61.8627C99.6555 62.0688 99.5277 62.2549 99.3678 62.41C99.2079 62.565 99.0191 62.6859 98.8125 62.7654C98.5265 62.8788 98.2215 62.9341 97.9146 62.928Z" fill="white"/>
<path d="M81.9225 68.7915C81.3825 68.8148 80.8434 68.7276 80.3371 68.535C79.8309 68.3424 79.3678 68.0483 78.9753 67.6702C78.4315 67.119 78.0638 66.4137 77.9203 65.6464C77.7768 64.8792 77.8642 64.0857 78.171 63.3698C78.5702 62.4655 79.1305 61.6442 79.8236 60.9476C80.5692 60.2129 81.0815 59.2677 81.2945 58.2339C81.3936 57.7797 81.6856 56.4005 80.9033 55.4305C80.4451 54.9234 79.8371 54.5817 79.1712 54.4573C78.5054 54.3329 77.8178 54.4324 77.2124 54.7409C76.9303 54.8856 76.6808 55.0884 76.4798 55.3365C76.2787 55.5845 76.1305 55.8724 76.0445 56.1819C75.931 56.6337 75.9704 57.1112 76.1563 57.5374C76.3422 57.9636 76.6638 58.3137 77.0692 58.5311C77.4302 58.6842 77.8316 58.7082 78.2078 58.5992C78.5839 58.4902 78.9127 58.2547 79.1405 57.9311C79.2083 57.7941 79.2485 57.6447 79.259 57.4916C79.2694 57.3386 79.2497 57.1849 79.2011 57.0396C79.1666 56.9396 79.1113 56.8483 79.0391 56.7719C78.9669 56.6954 78.8793 56.6357 78.7824 56.5967C78.6688 56.543 78.5427 56.5224 78.4182 56.5373C78.2937 56.5521 78.1757 56.6018 78.0773 56.6809C77.9593 56.8017 77.8921 56.9646 77.89 57.135L76.926 57.1125C76.9438 56.6867 77.1236 56.2846 77.4273 55.9912C77.6635 55.7828 77.953 55.6469 78.2621 55.5993C78.5712 55.5517 78.8873 55.5942 79.1736 55.722C79.3925 55.8139 79.5903 55.951 79.7543 56.1247C79.9184 56.2985 80.0452 56.505 80.1266 56.7313C80.2238 57.0039 80.2646 57.294 80.2466 57.5834C80.2286 57.8729 80.1521 58.1553 80.0219 58.4133C79.438 59.5963 77.8184 59.9216 76.7166 59.4786C76.089 59.1796 75.5833 58.6672 75.2867 58.0297C74.9901 57.3921 74.9211 56.6693 75.0915 55.9856C75.2067 55.5403 75.4136 55.125 75.6985 54.7673C75.9835 54.4097 76.3399 54.1178 76.7442 53.9111C77.5551 53.4834 78.4831 53.3433 79.3811 53.5129C80.2791 53.6825 81.0959 54.1521 81.7021 54.8474C82.4073 55.7445 82.6001 56.9611 82.2861 58.475C82.0054 59.6718 81.3847 60.758 80.5012 61.598C79.8909 62.2168 79.3979 62.9447 79.0469 63.7454C78.8139 64.2899 78.7492 64.8937 78.8613 65.4766C78.9735 66.0594 79.2572 66.5937 79.6749 67.0085C80.5122 67.8551 81.961 68.0402 83.7514 67.53L84.0213 68.4719C83.3392 68.6752 82.6331 68.7826 81.9225 68.7915Z" fill="white"/>
<path d="M128.064 68.7925C127.356 68.7833 126.652 68.6777 125.971 68.4785L126.236 67.5365C128.031 68.0411 129.48 67.8561 130.318 67.0095C130.735 66.5947 131.019 66.0604 131.131 65.4776C131.243 64.8947 131.179 64.2909 130.946 63.7463C130.595 62.9458 130.101 62.2178 129.491 61.5989C128.612 60.7446 128.005 59.6409 127.751 58.4311C127.431 56.9229 127.629 55.7006 128.334 54.8036C128.939 54.1167 129.75 53.6525 130.64 53.4832C131.531 53.3139 132.452 53.4488 133.259 53.8672C133.663 54.0745 134.019 54.3666 134.304 54.7242C134.589 55.0818 134.796 55.4967 134.912 55.9417C135.08 56.6295 135.006 57.3553 134.705 57.9939C134.403 58.6325 133.892 59.1441 133.259 59.4403C132.158 59.8833 130.543 59.5525 129.954 58.3694C129.824 58.1115 129.747 57.8289 129.729 57.5396C129.711 57.2501 129.752 56.9601 129.849 56.6874C129.932 56.4623 130.059 56.257 130.223 56.0843C130.387 55.9116 130.584 55.7752 130.802 55.6838C131.089 55.5541 131.406 55.5099 131.716 55.5566C132.026 55.6032 132.316 55.7388 132.554 55.9473C132.854 56.2431 133.034 56.6438 133.055 57.0687L132.08 57.0967C132.074 56.926 132.006 56.7639 131.887 56.6426C131.789 56.5636 131.671 56.5139 131.547 56.499C131.422 56.4841 131.296 56.5047 131.182 56.5584C131.085 56.5987 130.998 56.6595 130.926 56.7369C130.853 56.8142 130.798 56.9062 130.764 57.007C130.715 57.1515 130.696 57.3046 130.707 57.4569C130.718 57.6092 130.76 57.7576 130.83 57.8928C131.057 58.2165 131.386 58.452 131.762 58.561C132.139 58.6699 132.54 58.6459 132.901 58.4928C133.312 58.2765 133.638 57.9244 133.827 57.4945C134.014 57.0645 134.054 56.5822 133.937 56.1268C133.852 55.8171 133.703 55.5289 133.502 55.2808C133.301 55.0326 133.051 54.83 132.769 54.6858C132.159 54.3867 131.47 54.2977 130.806 54.4322C130.143 54.5667 129.54 54.9175 129.089 55.4315C128.312 56.4183 128.599 57.7976 128.698 58.2349C128.922 59.2757 129.452 60.2223 130.218 60.9486C130.911 61.6474 131.472 62.4704 131.871 63.3763C132.181 64.0975 132.267 64.8976 132.118 65.67C131.97 66.4424 131.593 67.1502 131.039 67.6992C130.64 68.0745 130.172 68.3645 129.661 68.5523C129.15 68.7401 128.607 68.8218 128.064 68.7925Z" fill="white"/>
<path d="M90.2519 31.159C89.6404 31.0469 87.6462 30.5591 87.536 28.9443C87.5134 28.539 87.6248 28.1377 87.8525 27.8043C88.0801 27.471 88.4109 27.2249 88.792 27.1053C89.1133 26.9956 89.457 26.972 89.79 27.0367C90.1229 27.1016 90.4337 27.2526 90.6926 27.4753C90.9424 27.7232 91.1175 28.0384 91.1975 28.384C91.2775 28.7295 91.2591 29.0912 91.1443 29.4265L90.1968 29.1966C90.2585 29.0294 90.2757 28.8485 90.2467 28.6722C90.2177 28.496 90.1434 28.3307 90.0315 28.193C89.901 28.0887 89.7467 28.0198 89.583 27.9923C89.4193 27.9648 89.2515 27.9799 89.095 28.036C88.9199 28.0905 88.7675 28.2027 88.6618 28.3549C88.5561 28.5071 88.5031 28.6908 88.5111 28.877C88.5496 29.4938 89.2658 29.9984 90.4281 30.1946L90.2519 31.159Z" fill="white"/>
<path d="M119.735 31.1594L119.559 30.2006C120.716 29.9875 121.432 29.4942 121.476 28.8774C121.482 28.6908 121.427 28.5075 121.321 28.3556C121.214 28.2037 121.062 28.0915 120.886 28.0363C120.73 27.9818 120.562 27.9675 120.399 27.9949C120.235 28.0223 120.081 28.0905 119.95 28.1933C119.838 28.331 119.764 28.4964 119.735 28.6726C119.706 28.8488 119.723 29.0297 119.785 29.197L118.837 29.4269C118.724 29.0914 118.707 28.7302 118.787 28.385C118.867 28.0399 119.041 27.7247 119.289 27.4757C119.547 27.2525 119.858 27.1015 120.192 27.0376C120.525 26.9738 120.869 26.9991 121.189 27.1112C121.57 27.2298 121.901 27.4749 122.128 27.8073C122.356 28.1396 122.468 28.5401 122.445 28.9447C122.335 30.5595 120.341 31.0472 119.735 31.1594Z" fill="white"/>
<path d="M85.1122 39.1719C84.4349 39.1556 83.7728 38.9638 83.1886 38.6145C82.6045 38.2652 82.1175 37.7701 81.7738 37.1758C81.3586 36.4457 81.1648 35.6068 81.2167 34.7648C81.2687 33.9228 81.5641 33.1153 82.0658 32.4437C83.6303 30.201 86.8089 29.3992 90.7863 30.2458C92.8334 30.6756 94.8206 31.3612 96.7028 32.2867L96.2731 33.1614C94.4638 32.2736 92.5546 31.6146 90.588 31.199C87.0072 30.4421 84.1922 31.0981 82.8756 33.0044C82.4783 33.5154 82.2382 34.1343 82.1852 34.7837C82.1323 35.433 82.269 36.0838 82.5781 36.6544C82.8585 37.1596 83.2767 37.5715 83.7821 37.8401C84.2875 38.1087 84.8585 38.2227 85.4262 38.1682C85.8542 38.1225 86.2593 37.9484 86.5898 37.6679C86.9204 37.3873 87.1616 37.0131 87.2827 36.5927C87.3875 36.3667 87.4151 36.1117 87.3612 35.8679C87.3073 35.6241 87.175 35.4056 86.9851 35.2471C86.7782 35.0798 86.53 34.9735 86.2677 34.9398C86.0054 34.9062 85.7391 34.9466 85.4978 35.0564C85.3299 35.1597 85.1991 35.3152 85.1247 35.5C85.0503 35.6848 85.0362 35.889 85.0846 36.0825L84.1151 36.1946C84.0442 35.8064 84.0942 35.4054 84.2582 35.0476C84.4221 34.6897 84.6918 34.3929 85.0295 34.1987C85.442 33.9968 85.902 33.9171 86.357 33.9686C86.8119 34.0202 87.2434 34.2009 87.6022 34.4902C87.9422 34.7667 88.1879 35.1452 88.3046 35.5719C88.4213 35.9987 88.403 36.452 88.2522 36.8674C88.0696 37.4633 87.721 37.9924 87.2487 38.3905C86.7763 38.7886 86.2007 39.0386 85.5914 39.1102C85.4334 39.143 85.2732 39.1635 85.1122 39.1719Z" fill="white"/>
<path d="M104.217 27.7506C103.682 27.758 103.155 27.6265 102.685 27.3684C102.214 27.1104 101.816 26.7344 101.528 26.2761C101.097 25.5812 100.913 24.7565 101.007 23.9401C101.101 23.1236 101.468 22.3648 102.046 21.7906L102.724 22.4971C102.308 22.9134 102.045 23.4618 101.978 24.0513C101.911 24.6407 102.044 25.2358 102.355 25.7378C102.977 26.7303 104.112 27.005 105.484 26.5003L105.825 27.4198C105.312 27.6253 104.768 27.7373 104.217 27.7506Z" fill="white"/>
<path d="M105.164 26.0181C104.822 26.0356 104.48 25.9688 104.168 25.8234C103.857 25.678 103.584 25.4582 103.374 25.1827C102.79 24.3641 102.729 22.7717 104.476 21L105.164 21.6896C103.925 22.9399 103.765 24.0613 104.162 24.6164C104.558 25.1715 105.489 25.1771 106.541 24.6781L106.971 25.5583C106.409 25.8447 105.792 26.0016 105.164 26.0181Z" fill="white"/>
<path d="M95.1987 70.7322C95.6071 70.962 96.0652 71.0855 96.5318 71.091C97.167 71.083 97.7784 70.8444 98.2561 70.4182C98.9789 69.7315 99.502 68.8555 99.7682 67.8864C100.034 66.9172 100.034 65.8922 99.7655 64.9235L98.8456 65.2319C99.0464 66.0155 99.0396 66.8393 98.8257 67.6194C98.6119 68.3995 98.1986 69.1079 97.6281 69.6725C97.3644 69.9178 97.0297 70.0694 96.6741 70.1048C96.3186 70.1402 95.9614 70.0573 95.6559 69.8687L95.1987 70.7322Z" fill="white"/>
<path d="M95.1987 70.7322C94.756 70.4951 94.4104 70.1054 94.2238 69.6329C94.0371 69.1605 94.0214 68.636 94.1795 68.1529C94.455 67.3175 95.3254 66.5101 96.934 66.7456L96.7908 67.7099C95.9314 67.5866 95.3034 67.867 95.105 68.4613C95.0214 68.7253 95.0306 69.0107 95.1311 69.2685C95.2316 69.5263 95.4172 69.7404 95.6559 69.8742L95.1987 70.7322Z" fill="white"/>
<path d="M114.788 70.7322C114.378 70.9622 113.918 71.0855 113.449 71.091C112.814 71.082 112.203 70.8435 111.725 70.4182C111.005 69.73 110.483 68.854 110.217 67.8853C109.951 66.9167 109.95 65.8923 110.216 64.9235L111.141 65.2319C110.938 66.0149 110.943 66.839 111.156 67.6193C111.369 68.3997 111.782 69.1083 112.353 69.6725C112.617 69.9178 112.952 70.0694 113.307 70.1048C113.663 70.1402 114.02 70.0573 114.325 69.8687L114.788 70.7322Z" fill="white"/>
<path d="M114.788 70.7322C115.231 70.495 115.576 70.105 115.761 69.6324C115.947 69.1598 115.961 68.6353 115.802 68.1529C115.526 67.3175 114.661 66.5101 113.047 66.7456L113.19 67.7099C114.044 67.5866 114.678 67.867 114.843 68.4613C114.929 68.7252 114.921 69.0113 114.82 69.2697C114.719 69.528 114.533 69.7421 114.292 69.8742L114.788 70.7322Z" fill="white"/>
<path d="M98.4269 31.7985L98.157 30.8622C98.8494 30.6376 99.5105 30.3229 100.124 29.9258C101.394 29.0824 102.849 28.5719 104.36 28.4401C106.85 28.2383 108.073 27.2571 108.1 25.4292C108.113 25.166 108.074 24.9028 107.985 24.6553C107.896 24.4077 107.759 24.1809 107.583 23.9883C107.352 23.78 107.082 23.6207 106.79 23.5197C106.497 23.4186 106.188 23.3778 105.88 23.3996V22.424C106.317 22.4002 106.755 22.4658 107.166 22.617C107.578 22.7682 107.955 23.0019 108.277 23.3043C108.546 23.5868 108.756 23.9227 108.892 24.2912C109.029 24.6597 109.089 25.0528 109.07 25.446C109.07 27.0889 108.227 29.1073 104.443 29.4157C103.077 29.5358 101.762 29.9981 100.614 30.7613C99.9317 31.2012 99.1967 31.5498 98.4269 31.7985Z" fill="white"/>
<path d="M124.875 39.1708C124.718 39.1725 124.562 39.1631 124.406 39.1427C123.798 39.0698 123.223 38.8193 122.751 38.4214C122.278 38.0236 121.929 37.4952 121.746 36.9001C121.596 36.484 121.578 36.0303 121.696 35.6035C121.813 35.1768 122.06 34.7985 122.401 34.5227C122.76 34.2335 123.192 34.0528 123.646 34.0013C124.101 33.9497 124.561 34.0294 124.974 34.2312C125.312 34.425 125.581 34.722 125.744 35.0801C125.908 35.4383 125.956 35.8396 125.883 36.2273L124.919 36.1151C124.966 35.9216 124.952 35.7177 124.877 35.5331C124.803 35.3486 124.673 35.193 124.505 35.0891C124.263 34.9793 123.996 34.939 123.733 34.9726C123.47 35.0062 123.221 35.1124 123.013 35.2797C122.82 35.4331 122.683 35.6476 122.623 35.8892C122.563 36.1308 122.584 36.3859 122.682 36.6141C122.807 37.0323 123.049 37.4042 123.379 37.684C123.709 37.9639 124.112 38.1397 124.539 38.1896C125.106 38.2441 125.677 38.1301 126.183 37.8615C126.688 37.5928 127.106 37.181 127.387 36.6758C127.696 36.111 127.835 35.4664 127.788 34.8216C127.741 34.1769 127.51 33.5604 127.122 33.0482C125.795 31.1419 122.98 30.4859 119.41 31.2428C117.779 31.5889 116.187 32.0997 114.656 32.7678C114.21 32.9641 113.664 33.2388 113.086 33.5303C111.114 34.5227 108.414 35.8796 106.134 35.9076C104.283 35.9076 103.269 35.3133 102.74 34.7863C102.449 34.4998 102.218 34.1564 102.061 33.7768C101.904 33.3972 101.824 32.9892 101.826 32.5772H102.795C102.794 32.8596 102.85 33.1392 102.958 33.3994C103.065 33.6595 103.224 33.8948 103.423 34.0911C104.181 34.7194 105.149 35.0213 106.123 34.932C108.177 34.932 110.761 33.6032 112.651 32.6557C113.24 32.3586 113.796 32.0951 114.265 31.8764C115.86 31.1759 117.521 30.6442 119.223 30.2896C123.2 29.443 126.384 30.2448 127.943 32.4875C128.439 33.1564 128.731 33.9586 128.783 34.7949C128.835 35.6312 128.644 36.4646 128.235 37.1916C127.887 37.7852 127.395 38.2785 126.807 38.6248C126.219 38.9711 125.554 39.159 124.875 39.1708Z" fill="white"/>
<path d="M112.249 33.2401C111.12 33.1859 110.018 32.8776 109.021 32.3373C107.773 31.6865 106.395 31.3391 104.994 31.3225V30.3133C106.528 30.338 108.036 30.7217 109.401 31.4347C110.965 32.1467 112.205 32.713 114.557 31.7094C114.97 31.53 117.047 30.5488 117.311 28.4742C117.379 27.8804 117.303 27.2789 117.09 26.7218C116.876 26.1648 116.533 25.6693 116.088 25.2784C115.587 24.8457 114.981 24.5572 114.333 24.4429C113.685 24.3285 113.018 24.3924 112.403 24.628C111.945 24.7856 111.529 25.0502 111.19 25.4008C110.85 25.7513 110.596 26.1779 110.447 26.6465C110.366 26.9707 110.354 27.3089 110.411 27.6386C110.468 27.9682 110.593 28.2818 110.778 28.5584C110.997 28.8458 111.276 29.0801 111.596 29.244C111.915 29.4079 112.266 29.4974 112.623 29.5059C113.428 29.5059 113.984 29.2984 114.237 28.8667C114.339 28.6846 114.392 28.4789 114.392 28.2696C114.392 28.0603 114.339 27.8546 114.237 27.6725C114.117 27.4933 113.951 27.3517 113.756 27.2635C113.562 27.1754 113.347 27.1442 113.136 27.1735L113.025 26.2035C113.415 26.1379 113.815 26.1888 114.177 26.3499C114.539 26.511 114.848 26.7754 115.065 27.1111C115.283 27.4469 115.4 27.8397 115.402 28.2418C115.405 28.6439 115.293 29.0382 115.08 29.377C114.777 29.8928 114.122 30.4983 112.706 30.4983H112.601C112.092 30.4858 111.592 30.3569 111.138 30.121C110.684 29.8852 110.288 29.5485 109.979 29.1358C109.715 28.746 109.536 28.3033 109.453 27.8373C109.37 27.3713 109.386 26.8927 109.5 26.4334C109.891 24.7514 111.411 23.9832 112.045 23.7365C112.826 23.4336 113.673 23.3492 114.498 23.4922C115.322 23.6352 116.094 24.0003 116.733 24.5495C117.298 25.0455 117.736 25.6747 118.008 26.3822C118.279 27.0897 118.377 27.8541 118.292 28.6089C117.972 31.2104 115.466 32.4046 114.987 32.6233C114.124 33.0154 113.193 33.2253 112.249 33.2401Z" fill="white"/>
<path d="M97.7384 33.2386C96.8031 33.2184 95.8813 33.0067 95.028 32.6162C94.5268 32.4031 92.0202 31.2089 91.7228 28.6017C91.6371 27.8484 91.7339 27.0851 92.0047 26.3784C92.2754 25.6719 92.712 25.0435 93.2763 24.548C93.9143 24.0015 94.6838 23.6375 95.5057 23.4937C96.3277 23.3498 97.1724 23.4312 97.9532 23.7295C98.5868 23.9818 100.107 24.7443 100.504 26.432C100.614 26.8909 100.627 27.3682 100.544 27.8329C100.46 28.2976 100.281 28.7391 100.019 29.1288C99.7103 29.5415 99.3143 29.8781 98.8604 30.114C98.4065 30.3498 97.9063 30.4788 97.3968 30.4913C95.9094 30.5193 95.2319 29.8969 94.9234 29.3699C94.7263 29.0353 94.6221 28.6526 94.6221 28.2625C94.6221 27.8725 94.7263 27.4897 94.9234 27.1552C95.1428 26.8226 95.4482 26.5581 95.8059 26.3909C96.1636 26.2237 96.5597 26.1603 96.9506 26.2077L96.8404 27.1776C96.6294 27.149 96.4147 27.1805 96.2202 27.2686C96.0257 27.3566 95.859 27.4979 95.7387 27.6767C95.6389 27.8602 95.5865 28.0667 95.5865 28.2765C95.5865 28.4864 95.6389 28.6929 95.7387 28.8765C95.9921 29.3082 96.5485 29.5269 97.3528 29.51C97.7105 29.5031 98.0621 29.4144 98.3816 29.2503C98.701 29.0863 98.9802 28.8512 99.1982 28.5625C99.3834 28.2859 99.5086 27.9723 99.5655 27.6427C99.6225 27.3131 99.61 26.9749 99.5288 26.6506C99.3804 26.1827 99.1262 25.7568 98.7864 25.4071C98.4468 25.0575 98.0312 24.794 97.5731 24.6378C96.9579 24.4026 96.2923 24.3384 95.6445 24.4517C94.9968 24.565 94.3905 24.8518 93.8877 25.2825C93.4433 25.6734 93.0997 26.169 92.8865 26.726C92.6734 27.283 92.5972 27.8846 92.6647 28.4784C92.9182 30.5529 94.9895 31.5397 95.4192 31.7135C97.7715 32.7171 99.0109 32.1508 100.581 31.4388C101.947 30.7279 103.454 30.3443 104.988 30.3174V31.293C103.586 31.3186 102.209 31.6755 100.967 32.3359C99.9701 32.8779 98.8671 33.1863 97.7384 33.2386Z" fill="white"/>
<path d="M104.994 34.6848V33.7148C105.224 33.7044 105.447 33.632 105.641 33.5049C105.834 33.3778 105.991 33.2007 106.095 32.9916C106.201 32.7469 106.225 32.4734 106.162 32.2137C106.099 31.9541 105.954 31.7229 105.748 31.5562C105.65 31.4582 105.533 31.3833 105.403 31.3368C105.274 31.2903 105.136 31.2733 104.999 31.2871V30.3115C105.489 30.2816 105.97 30.4511 106.338 30.7825C106.713 31.0771 106.981 31.4905 107.1 31.9576C107.219 32.4247 107.181 32.9187 106.993 33.3616C106.817 33.7521 106.536 34.0838 106.182 34.318C105.828 34.5522 105.416 34.6794 104.994 34.6848Z" fill="white"/>
<path d="M98.4214 31.803L98.1681 30.861C98.8879 30.6367 99.5738 30.3122 100.206 29.8967C101.445 29.0681 102.867 28.567 104.343 28.439C106.431 28.1953 108.533 28.7531 110.238 30.0033C110.736 30.347 111.268 30.6382 111.824 30.8723L111.472 31.7862C110.855 31.5288 110.266 31.2076 109.715 30.8274C108.187 29.6964 106.297 29.1919 104.421 29.4145C103.096 29.5413 101.823 30.0039 100.719 30.7601C100.005 31.2164 99.2317 31.5676 98.4214 31.803Z" fill="white"/>
<path d="M83.1288 56.9563L82.9746 55.9303C82.6228 54.4118 81.8185 53.041 80.6719 52.0056C80.0765 51.4639 79.3922 51.033 78.6501 50.7328C77.517 50.3322 76.5821 49.4974 76.0444 48.406C74.8821 46.1633 75.9453 43.7636 75.9894 43.6626L76.5402 42.4516L76.9148 43.7243C77.0469 44.1402 77.2648 44.5225 77.5539 44.8457C77.4678 43.5424 77.5699 42.2333 77.8568 40.9602C78.1364 39.4825 78.6657 38.0654 79.4214 36.7719L80.5231 35.1572L80.3193 37.0971C80.2301 38.6805 80.6667 40.2485 81.5588 41.5489C82.0231 42.1552 82.5235 42.7319 83.0572 43.2758C84.6382 44.9579 86.4341 46.8249 86.1807 50.4693C86.0008 52.5763 85.1827 54.5746 83.8394 56.1883L83.1288 56.9563ZM76.5568 45.1821C76.3728 46.1082 76.4948 47.0701 76.9038 47.9182C77.1216 48.3678 77.426 48.7682 77.7988 49.0957C78.1717 49.4232 78.6055 49.671 79.0743 49.8245C79.9106 50.1697 80.6821 50.659 81.3549 51.2711C82.3956 52.2273 83.1932 53.4258 83.6797 54.7641C84.5475 53.4607 85.0746 51.9536 85.2111 50.3852C85.4315 47.1725 83.9386 45.597 82.3521 43.9318C81.7881 43.3607 81.26 42.7539 80.771 42.1152C80.0996 41.1827 79.6507 40.1038 79.4599 38.9641C79.1964 39.6792 78.9811 40.4116 78.8154 41.1564C78.4795 42.6269 78.4197 44.1488 78.6391 45.6418L78.8099 46.4716L78.0111 46.2082C77.6022 46.0609 77.2273 45.83 76.9093 45.5297C76.7892 45.4261 76.6786 45.3117 76.5788 45.1877L76.5568 45.1821Z" fill="white"/>
<path d="M83.5641 53.0485L83.1289 52.3477C82.6711 51.6453 82.1726 50.9712 81.636 50.3292C80.1872 48.5407 80.6775 45.4177 80.6995 45.2831L80.8042 44.6383L81.3936 44.9242C82.8373 45.6702 83.931 46.9689 84.4345 48.535C84.7365 49.8138 84.5721 51.1607 83.9718 52.3253L83.5641 53.0485ZM81.5919 46.197C81.5424 47.1334 81.5919 48.7313 82.3962 49.7125C82.8314 50.2731 83.173 50.7048 83.4264 51.0525C83.6479 50.3249 83.6707 49.5496 83.4925 48.8098C83.1648 47.7465 82.4954 46.8264 81.5919 46.197Z" fill="white"/>
<path d="M126.836 56.9549L126.147 56.1869C124.806 54.5699 123.988 52.5704 123.806 50.4623C123.553 46.8235 125.349 44.934 126.924 43.2688C127.461 42.7283 127.963 42.1533 128.428 41.5475C129.328 40.2383 129.765 38.6569 129.668 37.062L129.464 35.1221L130.565 36.7368C131.321 38.0303 131.85 39.4475 132.13 40.9251C132.414 42.2006 132.516 43.5112 132.433 44.8162C132.722 44.493 132.94 44.1107 133.072 43.6949L133.447 42.4333L133.997 43.6332C134.041 43.7397 135.099 46.1619 133.942 48.3766C133.405 49.4694 132.47 50.306 131.336 50.709C130.594 51.0103 129.907 51.441 129.31 51.9818C128.156 53.0107 127.352 54.3844 127.012 55.9065L126.836 56.9549ZM130.505 38.974C130.313 40.1135 129.865 41.1922 129.194 42.125C128.705 42.7638 128.177 43.3705 127.613 43.9416C126.032 45.6237 124.533 47.1823 124.753 50.395C124.89 51.959 125.415 53.462 126.28 54.7627C126.767 53.4218 127.566 52.2212 128.61 51.264C129.288 50.6495 130.068 50.1617 130.912 49.8231C131.377 49.6699 131.805 49.4232 132.173 49.0976C132.542 48.772 132.842 48.3742 133.055 47.928C133.471 47.0819 133.595 46.1184 133.408 45.1919C133.312 45.3293 133.203 45.457 133.083 45.5732C132.765 45.8735 132.39 46.1044 131.981 46.2516L131.177 46.5151L131.353 45.6853C131.575 44.1924 131.515 42.67 131.177 41.1999C131.004 40.443 130.779 39.6993 130.505 38.974Z" fill="white"/>
<path d="M126.417 53.0476L126.02 52.3242C125.416 51.1589 125.25 49.8096 125.552 48.5285C126.057 46.9644 127.15 45.6679 128.593 44.9233L129.183 44.6318L129.287 45.2822C129.287 45.4111 129.799 48.5397 128.351 50.3283C127.814 50.9703 127.316 51.6443 126.858 52.3467L126.417 53.0476ZM128.395 46.1961C127.494 46.8208 126.825 47.7347 126.494 48.792C126.311 49.5312 126.334 50.308 126.561 51.0347C126.814 50.6815 127.155 50.2274 127.591 49.6891C128.384 48.7303 128.444 47.138 128.395 46.1961Z" fill="white"/>
<path d="M113.273 59.5173C111.692 56.6859 111.257 54.174 111.973 52.0602C112.547 50.4635 113.717 49.1619 115.229 48.4382L115.609 49.3354C114.347 49.9577 113.369 51.0497 112.877 52.3855C112.254 54.2244 112.667 56.4615 114.105 59.0407L113.273 59.5173Z" fill="white"/>
<path d="M123.101 76.8105L122.506 76.031C124.723 74.3655 126.66 72.3455 128.241 70.0485L129.067 70.5643C127.431 72.968 125.415 75.0785 123.101 76.8105Z" fill="white"/>
<path d="M116.904 63.0343C116.766 62.9334 116.606 62.8268 116.424 62.7035C114.975 61.7335 112.282 59.9001 112.689 56.065C112.849 54.5736 113.593 53.5252 114.673 53.2617C115.072 53.1542 115.495 53.1734 115.884 53.3166C116.272 53.4599 116.609 53.7204 116.848 54.0634C117.074 54.411 117.504 55.353 116.562 56.6202L115.785 56.0594C116.193 55.4987 116.281 54.9997 116.033 54.6241C115.904 54.4603 115.732 54.3366 115.538 54.2672C115.343 54.1978 115.133 54.1855 114.931 54.2317C114.259 54.3943 113.802 55.1119 113.686 56.1884C113.339 59.4627 115.631 60.9991 116.992 61.9185C117.185 62.0419 117.355 62.1597 117.499 62.2662L116.904 63.0343Z" fill="white"/>
<path d="M112.067 62.928C111.76 62.9308 111.456 62.8756 111.169 62.7654C110.962 62.6872 110.773 62.5668 110.614 62.4115C110.455 62.2563 110.329 62.0695 110.243 61.8627C110.139 61.6237 110.095 61.3619 110.116 61.1012C110.138 60.8405 110.223 60.5896 110.364 60.3713C110.582 60.0922 110.863 59.8719 111.184 59.7301C111.505 59.5882 111.856 59.5293 112.204 59.5583V60.5339C112.015 60.5115 111.824 60.5342 111.645 60.6004C111.466 60.6666 111.305 60.7744 111.174 60.9151C111.126 61.0004 111.1 61.097 111.1 61.1954C111.1 61.2939 111.126 61.3905 111.174 61.4758C111.21 61.562 111.264 61.6395 111.331 61.7032C111.399 61.767 111.478 61.8156 111.565 61.8459C112.091 62.0006 112.655 61.9506 113.146 61.7057L113.532 62.6027C113.07 62.8092 112.572 62.9197 112.067 62.928Z" fill="white"/>
<path d="M115.284 77.493C116.432 78.0205 117.676 78.2995 118.936 78.312C119.85 78.3195 120.756 78.128 121.591 77.751C122.517 77.3685 123.336 76.7585 123.974 75.976C124.612 75.1935 125.05 74.2625 125.25 73.2655C125.415 72.5145 125.405 71.7345 125.219 70.9883C125.033 70.2421 124.677 69.551 124.181 68.9709C123.4 68.1378 122.332 67.6453 121.202 67.5972C120.072 67.5491 118.967 67.9491 118.121 68.713C117.631 69.1274 117.281 69.6881 117.121 70.3159C116.961 70.9437 116.998 71.607 117.229 72.2115C117.435 72.7715 117.807 73.253 118.294 73.589C118.78 73.9255 119.357 74.1005 119.944 74.09H120.01C120.395 74.1045 120.776 74.022 121.121 73.85C121.467 73.678 121.764 73.421 121.988 73.103C122.183 72.7955 122.301 72.444 122.332 72.0795C122.362 71.715 122.305 71.3485 122.164 71.0115L121.266 71.382C121.347 71.573 121.38 71.781 121.363 71.988C121.347 72.195 121.282 72.395 121.173 72.5705C121.037 72.7555 120.858 72.9035 120.653 73.0015C120.447 73.099 120.221 73.144 119.994 73.131C119.594 73.1455 119.2 73.0325 118.867 72.807C118.534 72.582 118.279 72.256 118.137 71.875C117.971 71.4585 117.938 70.9989 118.045 70.5625C118.152 70.126 118.393 69.7355 118.732 69.4474C119.387 68.8408 120.251 68.5212 121.135 68.5579C122.02 68.5947 122.855 68.9848 123.459 69.6437C123.845 70.1145 124.118 70.6698 124.258 71.266C124.397 71.8625 124.399 72.4835 124.263 73.0805C124.093 73.9265 123.718 74.716 123.172 75.3775C122.627 76.0395 121.929 76.5525 121.14 76.871C119.63 77.5715 117.587 77.471 115.67 76.596L115.284 77.493Z" fill="white"/>
<path d="M115.284 77.493C114.144 77.0095 113.12 76.2825 112.281 75.3605C111.441 74.439 110.807 73.344 110.42 72.1505C109.164 67.8948 109.698 62.7813 113.174 61.6936C114.987 61.1329 116.325 61.3011 117.504 62.2543L116.893 63.0168C115.984 62.2767 114.959 62.159 113.466 62.63C111.323 63.2972 109.852 66.7678 111.362 71.87C111.71 72.928 112.277 73.8975 113.025 74.713C113.773 75.5285 114.684 76.1705 115.697 76.5965L115.284 77.493Z" fill="white"/>
<path d="M94.6974 77.493C93.5582 78.0195 92.3236 78.2985 91.0726 78.312C90.1584 78.3195 89.2531 78.128 88.4174 77.751C87.4915 77.3685 86.6731 76.7585 86.0349 75.976C85.3967 75.1935 84.9585 74.2625 84.7595 73.2655C84.5937 72.5145 84.604 71.7345 84.7897 70.9883C84.9754 70.2421 85.3311 69.551 85.8282 68.9709C86.6089 68.1378 87.6767 67.6453 88.8069 67.5972C89.9371 67.5491 91.0416 67.9491 91.8879 68.713C92.3794 69.1264 92.7303 69.687 92.8906 70.3153C93.0508 70.9434 93.0122 71.607 92.7803 72.2115C92.5734 72.7715 92.2014 73.253 91.7151 73.589C91.2289 73.9255 90.6523 74.1005 90.0645 74.09H89.9984C89.6143 74.1045 89.2325 74.022 88.8874 73.85C88.5423 73.678 88.2445 73.421 88.0207 73.103C87.8259 72.7955 87.7081 72.444 87.6773 72.0795C87.6466 71.715 87.7039 71.3485 87.8444 71.0115L88.7424 71.382C88.6623 71.573 88.6291 71.781 88.6454 71.988C88.6617 72.195 88.7271 72.395 88.836 72.5705C88.9719 72.7555 89.1506 72.9035 89.3563 73.0015C89.562 73.099 89.7882 73.144 90.0149 73.131C90.4145 73.1455 90.8086 73.0325 91.1416 72.807C91.4746 72.582 91.7299 72.256 91.8714 71.875C92.0357 71.4565 92.0645 70.9951 91.9535 70.5585C91.8425 70.1218 91.5976 69.7326 91.2544 69.4474C90.6005 68.8411 89.7381 68.5217 88.8542 68.5584C87.9704 68.5952 87.1364 68.9851 86.5333 69.6437C86.147 70.1142 85.873 70.6693 85.7324 71.2655C85.592 71.862 85.5889 72.483 85.7235 73.0805C85.8918 73.926 86.2638 74.715 86.8061 75.378C87.3484 76.0405 88.0441 76.5555 88.8305 76.8765C90.3399 77.5775 92.3837 77.4765 94.3007 76.6015L94.6974 77.493Z" fill="white"/>
<path d="M94.6974 77.493C95.8372 77.0095 96.8616 76.2825 97.7009 75.3605C98.5402 74.439 99.1748 73.344 99.5617 72.1505C100.818 67.8948 100.283 62.7813 96.8073 61.6936C94.9949 61.1329 93.6563 61.3011 92.4773 62.2543L93.0889 63.0168C93.9978 62.2767 95.0224 62.159 96.5153 62.63C98.6583 63.2972 100.129 66.7678 98.6197 71.87C98.2718 72.928 97.7047 73.8975 96.9567 74.713C96.2088 75.5285 95.2974 76.1705 94.2843 76.5965L94.6974 77.493Z" fill="white"/>
<path d="M99.3524 38.6602C99.4704 38.3106 99.6714 37.9962 99.9377 37.7448C100.204 37.4934 100.527 37.3129 100.878 37.2193C101.092 37.146 101.314 37.1008 101.539 37.0847C101.971 37.0641 102.403 37.0904 102.828 37.1632C103.693 37.3594 104.506 37.7417 105.214 38.2846C107.709 40.174 107.841 42.6466 107.197 44.1829L106.299 43.8072C107.114 41.8617 105.908 40.0395 104.646 39.0639C104.28 38.7851 103.882 38.5518 103.462 38.3687C103.061 38.2313 102.65 38.1245 102.233 38.0491C102.131 38.0437 102.028 38.0437 101.925 38.0491C101.67 38.0463 101.415 38.0822 101.17 38.1556C100.969 38.2074 100.783 38.3078 100.627 38.4484C100.472 38.5889 100.352 38.765 100.278 38.9627L99.3524 38.6602Z" fill="white"/>
<path d="M127.403 62.4515C127.339 62.0989 127.192 61.7673 126.975 61.4843C126.759 61.2014 126.478 60.9755 126.158 60.8256C125.53 60.5229 124.506 60.3434 122.985 61.1844L119.741 37.6359C119.672 37.117 119.449 36.6319 119.101 36.2459C118.753 35.8601 118.298 35.5918 117.796 35.4773C117.292 35.3514 116.762 35.3849 116.276 35.5732C115.791 35.7615 115.374 36.0957 115.08 36.5314C114.11 37.9219 112.932 39.4637 111.687 41.1009C111.026 41.97 110.337 42.867 109.676 43.7529C108.332 45.5527 107.109 47.0329 106.035 48.3393C105.665 48.7822 105.318 49.2027 104.993 49.612L103.947 48.3393C102.845 47.0329 101.649 45.5359 100.305 43.7529C99.6553 42.867 98.9612 41.9756 98.2946 41.1009C97.0496 39.4637 95.8707 37.9219 94.8956 36.5314C94.6008 36.099 94.1833 35.7686 93.699 35.5842C93.2146 35.3998 92.6865 35.3704 92.1853 35.4997C91.6826 35.6127 91.2263 35.8805 90.8784 36.2668C90.5304 36.653 90.3078 37.1388 90.2407 37.6583L86.985 61.1844C85.4976 60.3434 84.4399 60.5229 83.8119 60.8256C83.4938 60.9769 83.2158 61.2035 83.0012 61.4863C82.7866 61.7691 82.6414 62.1001 82.5779 62.4515C82.5126 62.8806 82.5691 63.3196 82.7409 63.717C82.9127 64.1144 83.1926 64.4535 83.5475 64.6943C84.6492 65.4849 86.3019 65.4905 87.8278 64.6943L87.3871 63.842C85.9218 64.5821 84.7319 64.3635 84.1094 63.915C83.9059 63.7736 83.746 63.5762 83.6485 63.3459C83.551 63.1156 83.5198 62.8619 83.5585 62.6142C83.5933 62.42 83.6721 62.2367 83.7888 62.079C83.9055 61.9213 84.0568 61.7935 84.2306 61.7058C84.6548 61.4984 85.3984 61.3975 86.5443 62.0591C87.4515 62.6497 88.2953 63.3356 89.0618 64.1055C89.5686 64.5765 90.0919 65.0644 90.6318 65.5073C91.2205 66.0011 91.9569 66.276 92.7197 66.2866C93.32 66.3162 93.9095 66.1162 94.3723 65.7259C94.9232 65.2045 95.2372 64.2121 94.3723 62.9954L93.5736 63.5561C93.8214 63.9149 94.163 64.5709 93.6948 65.0139C93.2265 65.4568 92.1137 65.4737 91.2598 64.7728C90.742 64.3466 90.2242 63.8701 89.7284 63.4104C89.1004 62.8497 88.4999 62.289 87.8884 61.8068L91.1937 37.8153C91.235 37.4928 91.3729 37.191 91.5889 36.9513C91.8047 36.7114 92.0881 36.5452 92.4002 36.4753C92.7116 36.394 93.0401 36.4117 93.3415 36.526C93.6428 36.6402 93.9025 36.8456 94.0859 37.1145C95.0719 38.5218 96.2564 40.0749 97.5069 41.7176C98.1679 42.5867 98.8565 43.4782 99.5121 44.364C100.867 46.1807 102.101 47.6721 103.181 48.9841C103.6 49.4887 103.991 49.9653 104.349 50.4082C104.134 50.6829 103.93 50.9688 103.743 51.2099C103.346 50.7109 102.906 50.1839 102.432 49.6064C101.33 48.2832 100.107 46.803 98.7298 44.9471C98.0743 44.0725 97.3912 43.1754 96.7356 42.312C95.4741 40.63 94.2842 39.0993 93.2871 37.6751C93.2158 37.5699 93.1149 37.4891 92.9975 37.4433C92.8803 37.3976 92.7521 37.389 92.6299 37.4186C92.5077 37.4484 92.3973 37.515 92.313 37.6098C92.2287 37.7047 92.1746 37.8232 92.1578 37.9499L88.8525 62.003H89.8386L93.0447 38.9367C93.9372 40.1758 94.9453 41.499 96.0029 42.8615C96.664 43.7249 97.3416 44.6163 97.9971 45.491C99.3799 47.3525 100.625 48.8551 101.727 50.1895C102.278 50.8399 102.757 51.4454 103.203 52.0005C102.522 52.948 102.062 54.041 101.859 55.1964C101.723 55.8087 101.726 56.4444 101.867 57.0554C102.008 57.6664 102.284 58.2366 102.674 58.723C102.955 59.0783 103.312 59.3638 103.718 59.5581C104.124 59.7523 104.567 59.8503 105.015 59.8444C105.467 59.8679 105.917 59.7779 106.326 59.5823C106.736 59.3867 107.091 59.0916 107.362 58.723C107.913 58.1175 108.464 57.013 108.177 55.1964C107.962 54.0486 107.497 52.9645 106.817 52.0229C107.257 51.4622 107.753 50.8624 108.293 50.212C109.395 48.8832 110.634 47.3749 112.023 45.5135C112.673 44.6388 113.356 43.7473 114.017 42.8839C115.075 41.499 116.083 40.1758 116.975 38.9591L120.154 62.003H121.14L117.834 37.9499C117.822 37.8228 117.769 37.703 117.685 37.6082C117.601 37.5134 117.489 37.4485 117.366 37.4228C117.244 37.3893 117.114 37.3957 116.996 37.4409C116.877 37.4862 116.776 37.5681 116.705 37.6751C115.708 39.0993 114.502 40.658 113.257 42.312C112.596 43.1754 111.918 44.0725 111.257 44.9527C109.885 46.7918 108.651 48.2888 107.56 49.6064C107.087 50.1671 106.646 50.7277 106.249 51.2099C106.023 51.4903 105.82 51.7706 105.621 52.0117C105.423 52.2528 105.203 52.5724 105.015 52.8415L104.806 53.1611C104.365 53.8844 103.704 55.0731 103.704 56.1383C103.704 56.9906 104.128 57.8204 105.015 57.8204C105.902 57.8204 106.321 56.9738 106.321 56.1383C106.254 55.2903 105.988 54.4711 105.544 53.7499C105.721 53.4807 105.963 53.1387 106.172 52.8527C106.678 53.6031 107.023 54.4531 107.186 55.3478C107.296 55.8214 107.3 56.3142 107.198 56.7896C107.096 57.2651 106.89 57.7113 106.596 58.0951C106.414 58.3549 106.173 58.5672 105.895 58.7143C105.616 58.8614 105.307 58.9394 104.993 58.9417C104.677 58.9464 104.365 58.8716 104.085 58.7239C103.804 58.5762 103.564 58.3602 103.385 58.0951C103.093 57.7099 102.889 57.2637 102.787 56.7887C102.685 56.3137 102.688 55.8216 102.795 55.3478C102.958 54.4531 103.303 53.6031 103.809 52.8527C103.98 52.5724 104.173 52.292 104.36 51.9949C104.547 51.6978 104.745 51.4342 104.966 51.1819C105.186 50.9296 105.368 50.6661 105.588 50.3969L106.756 48.9673C107.858 47.6553 109.07 46.1639 110.425 44.3472C111.086 43.4669 111.769 42.5699 112.43 41.7008C113.686 40.0581 114.865 38.5106 115.851 37.0977C116.035 36.8294 116.295 36.6244 116.596 36.5103C116.897 36.3961 117.225 36.378 117.537 36.4585C117.85 36.5281 118.134 36.6941 118.351 36.9339C118.568 37.1737 118.707 37.4755 118.749 37.7985L122.054 61.8012C121.542 62.1992 121.041 62.6702 120.517 63.1581C119.939 63.7169 119.332 64.2446 118.699 64.7392C118.399 65.0022 118.025 65.1639 117.631 65.202C117.236 65.2402 116.84 65.1529 116.496 64.9522C116.006 64.5429 116.248 63.8308 116.435 63.4832L115.559 63.0459C115.008 64.1056 115.146 65.098 115.868 65.6979C116.287 66.0356 116.81 66.2123 117.344 66.1969C118.053 66.1913 118.742 65.9556 119.311 65.5241C119.975 65.0126 120.61 64.4622 121.211 63.8757C121.881 63.1946 122.62 62.5876 123.415 62.0647C124.561 61.4031 125.305 61.504 125.729 61.7114C125.907 61.7926 126.064 61.9157 126.187 62.0707C126.309 62.2257 126.394 62.4081 126.434 62.603C126.474 62.8507 126.444 63.1052 126.346 63.3359C126.249 63.5667 126.088 63.7638 125.883 63.9038C125.266 64.3579 124.076 64.5765 122.611 63.8364L122.175 64.7111C123.729 65.4905 125.365 65.4849 126.456 64.7111C126.813 64.4692 127.092 64.1264 127.261 63.7252C127.429 63.3238 127.478 62.8812 127.403 62.4515ZM104.993 56.7439C104.784 56.7439 104.536 56.6317 104.531 56.0262C104.593 55.5076 104.764 55.0086 105.032 54.5628V54.7198C105.262 55.1191 105.403 55.5651 105.445 56.0262C105.44 56.6205 105.203 56.7439 104.993 56.7439Z" fill="white"/>
<path d="M106.69 41.3247L106.189 40.4837C110.987 37.613 112.965 34.6862 112.981 34.6862L113.797 35.247C113.714 35.331 111.692 38.3307 106.69 41.3247Z" fill="white"/>
<path d="M102.57 39.4404C102.64 38.9492 102.517 38.4495 102.228 38.0499C102.018 37.711 101.788 37.3852 101.539 37.0743C100.056 35.4244 98.2663 34.0904 96.273 33.1496L96.7027 32.2749C99.5012 33.6598 101.732 35.4764 102.829 37.1304C103.077 37.5064 103.28 37.911 103.435 38.3358C103.613 38.7794 103.64 39.2709 103.512 39.732" fill="white"/>
<path d="M107.197 44.2178C106.745 45.2887 105.924 45.9559 105.093 45.9559C105.017 45.9614 104.942 45.9614 104.867 45.9559C104.385 45.9024 103.933 45.6908 103.579 45.353C103.225 45.0152 102.989 44.5696 102.906 44.0832C102.751 42.9282 103.528 41.8405 104.999 41.1845L105.396 42.0704C104.349 42.5469 103.776 43.2478 103.87 43.9486C103.924 44.2242 104.065 44.4744 104.27 44.6623C104.475 44.8502 104.735 44.9656 105.01 44.9914C105.451 45.0588 105.991 44.5765 106.294 43.8701" fill="white"/>
<path d="M100.278 38.9627C100.235 39.1272 100.237 39.3003 100.283 39.4639C100.328 39.6276 100.416 39.7759 100.537 39.8934C100.689 40.0689 100.883 40.2025 101.099 40.2819C101.316 40.3612 101.549 40.3838 101.776 40.3475C101.976 40.2808 102.155 40.1609 102.295 40.0002C102.434 39.8396 102.529 39.644 102.569 39.4336L103.512 39.7308C103.429 40.1118 103.244 40.4619 102.978 40.7421C102.711 41.0224 102.374 41.2215 102.002 41.3176C101.603 41.4008 101.189 41.3756 100.802 41.2447C100.415 41.1139 100.069 40.8818 99.7985 40.5718C99.5567 40.3303 99.3847 40.0259 99.3011 39.6917C99.2176 39.3576 99.2258 39.0065 99.3248 38.6768L100.278 38.9627Z" fill="white"/>
<path d="M104.993 83L104.746 82.854C104.646 82.798 102.421 81.447 102.2 79.535C102.019 77.9425 102.333 77.4495 103.671 75.3635L104.564 73.934L104.993 74.203L105.418 73.934C105.765 74.4945 106.057 74.943 106.316 75.341C107.654 77.427 107.968 77.92 107.786 79.5125C107.572 81.4245 105.341 82.7755 105.241 82.832L104.993 83ZM104.993 75.1055L104.492 75.8905C103.192 77.9145 103.027 78.178 103.17 79.4175C103.297 80.5385 104.47 81.475 104.993 81.845C105.544 81.475 106.69 80.533 106.817 79.4175C106.96 78.178 106.817 77.9145 105.495 75.8905L104.993 75.1055Z" fill="white"/>
<path d="M96.7797 76.21L96.1738 75.4475C98.9282 73.205 101.363 72.224 103.203 72.5265C103.649 72.5905 104.076 72.7505 104.456 72.996C104.836 73.2415 105.16 73.567 105.407 73.9505L104.586 74.5115C104.418 74.243 104.194 74.0155 103.931 73.845C103.667 73.6745 103.37 73.565 103.06 73.5245C101.506 73.2385 99.2807 74.203 96.7797 76.21Z" fill="white"/>
<path d="M113.201 76.2085C110.706 74.2015 108.48 73.237 106.938 73.489C106.627 73.5335 106.33 73.646 106.066 73.8195C105.803 73.9925 105.579 74.223 105.412 74.493L104.613 73.932C104.858 73.5475 105.182 73.221 105.562 72.975C105.942 72.7295 106.37 72.57 106.817 72.508C108.662 72.2055 111.092 73.2145 113.852 75.429L113.201 76.2085Z" fill="white"/>
<path d="M104.382 74.214C103.603 73.127 103.057 71.8855 102.779 70.5699C102.461 69.2859 102.462 67.9417 102.782 66.6584C103.103 65.3751 103.732 64.1931 104.613 63.2193L104.977 62.8101V64.307C104.321 65.1504 103.866 66.1372 103.648 67.1899C103.43 68.2426 103.455 69.3325 103.721 70.3736C103.947 71.449 104.38 72.468 104.993 73.373L105.605 74.203C106.089 74.7945 106.632 75.3335 107.224 75.812L107.346 75.9075C109.647 77.7055 112.509 78.5975 115.405 78.4195C116.234 78.3745 117.056 78.251 117.862 78.0495C119.092 77.736 120.289 77.2965 121.432 76.7375L121.9 77.595C120.684 78.195 119.41 78.6645 118.099 78.997C117.234 79.216 116.35 79.349 115.46 79.395H114.738C111.848 79.4155 109.033 78.4545 106.74 76.6645L106.618 76.5635C106.022 76.0885 105.468 75.5595 104.966 74.9825L104.382 74.214Z" fill="white"/>
<path d="M104.993 74.998C104.492 75.578 103.939 76.1095 103.341 76.5845L103.219 76.6855C100.933 78.47 98.1292 79.4305 95.2482 79.416H94.5266C93.6358 79.352 92.7525 79.2055 91.8878 78.979C90.5781 78.6415 89.3048 78.172 88.0867 77.577L88.555 76.7195C89.7001 77.2735 90.8957 77.713 92.1247 78.031C92.9286 78.2325 93.7494 78.3565 94.5761 78.4015C97.4732 78.581 100.337 77.691 102.641 75.895L102.762 75.7995C103.352 75.318 103.895 74.779 104.382 74.1905L104.993 73.372C105.605 72.468 106.038 71.451 106.266 70.3779C106.53 69.3358 106.554 68.2455 106.337 67.1922C106.119 66.1389 105.665 65.1511 105.01 64.3058V62.8144L105.373 63.2181C106.253 64.193 106.881 65.3752 107.2 66.6582C107.519 67.9413 107.52 69.2851 107.202 70.5686C106.93 71.883 106.385 73.1235 105.605 74.2075L104.993 74.998Z" fill="white"/>
<path d="M96.7136 59.5173L95.8598 59.0407C97.2976 56.4671 97.7107 54.2244 97.0938 52.3911C96.6049 51.0552 95.6307 49.9613 94.3724 49.3354L94.7525 48.4382C95.5017 48.796 96.1744 49.3006 96.7321 49.923C97.2898 50.5455 97.7215 51.2736 98.0027 52.0658C98.7299 54.174 98.2946 56.6859 96.7136 59.5173Z" fill="white"/>
<path d="M86.8858 76.809C84.574 75.078 82.5598 72.9695 80.9252 70.5687L81.7516 70.0528C83.3302 72.348 85.2652 74.367 87.4807 76.0295L86.8858 76.809Z" fill="white"/>
<path d="M93.0834 63.033L92.5325 62.2425C92.6758 62.1359 92.852 62.0181 93.0393 61.8948C94.411 60.9753 96.6972 59.439 96.3446 56.1647C96.229 55.0882 95.7937 54.3705 95.0996 54.2079C94.8942 54.1561 94.6785 54.1655 94.4783 54.2351C94.278 54.3046 94.1016 54.4315 93.9703 54.6004C93.7224 54.976 93.8161 55.4863 94.2237 56.0357L93.4415 56.5964C92.4995 55.3293 92.9291 54.3873 93.1605 54.0397C93.3986 53.6965 93.7342 53.4357 94.1222 53.2924C94.5102 53.1491 94.9321 53.1301 95.331 53.2379C96.4328 53.5014 97.1544 54.5499 97.3142 56.0414C97.7108 59.9156 95.0115 61.7322 93.5627 62.719C93.3809 62.8256 93.2211 62.9321 93.0834 63.033Z" fill="white"/>
<path d="M97.9146 62.928C97.4216 62.9196 96.935 62.8129 96.4823 62.614L96.8679 61.7169C97.3595 61.9618 97.9231 62.0118 98.4489 61.8571C98.536 61.8268 98.6158 61.7782 98.6832 61.7144C98.7506 61.6507 98.804 61.5732 98.8401 61.487C98.8843 61.3993 98.905 61.3013 98.9002 61.2029C98.8954 61.1045 98.8651 61.0091 98.8125 60.9263C98.6818 60.7856 98.5206 60.6778 98.3418 60.6116C98.163 60.5454 97.9714 60.5227 97.7824 60.5451V59.5583C98.1311 59.5293 98.4815 59.5882 98.8025 59.7301C99.1234 59.8719 99.405 60.0922 99.6223 60.3713C99.7639 60.5896 99.8491 60.8405 99.8703 61.1012C99.8915 61.3619 99.8479 61.6237 99.7435 61.8627C99.6555 62.0688 99.5277 62.2549 99.3678 62.41C99.2079 62.565 99.0191 62.6859 98.8125 62.7654C98.5265 62.8788 98.2215 62.9341 97.9146 62.928Z" fill="white"/>
<path d="M81.9225 68.7915C81.3825 68.8148 80.8434 68.7276 80.3371 68.535C79.8309 68.3424 79.3678 68.0483 78.9753 67.6702C78.4315 67.119 78.0638 66.4137 77.9203 65.6464C77.7768 64.8792 77.8642 64.0857 78.171 63.3698C78.5702 62.4655 79.1305 61.6442 79.8236 60.9476C80.5692 60.2129 81.0815 59.2677 81.2945 58.2339C81.3936 57.7797 81.6856 56.4005 80.9033 55.4305C80.4451 54.9234 79.8371 54.5817 79.1712 54.4573C78.5054 54.3329 77.8178 54.4324 77.2124 54.7409C76.9303 54.8856 76.6808 55.0884 76.4798 55.3365C76.2787 55.5845 76.1305 55.8724 76.0445 56.1819C75.931 56.6337 75.9704 57.1112 76.1563 57.5374C76.3422 57.9636 76.6638 58.3137 77.0692 58.5311C77.4302 58.6842 77.8316 58.7082 78.2078 58.5992C78.5839 58.4902 78.9127 58.2547 79.1405 57.9311C79.2083 57.7941 79.2485 57.6447 79.259 57.4916C79.2694 57.3386 79.2497 57.1849 79.2011 57.0396C79.1666 56.9396 79.1113 56.8483 79.0391 56.7719C78.9669 56.6954 78.8793 56.6357 78.7824 56.5967C78.6688 56.543 78.5427 56.5224 78.4182 56.5373C78.2937 56.5521 78.1757 56.6018 78.0773 56.6809C77.9593 56.8017 77.8921 56.9646 77.89 57.135L76.926 57.1125C76.9438 56.6867 77.1236 56.2846 77.4273 55.9912C77.6635 55.7828 77.953 55.6469 78.2621 55.5993C78.5712 55.5517 78.8873 55.5942 79.1736 55.722C79.3925 55.8139 79.5903 55.951 79.7543 56.1247C79.9184 56.2985 80.0452 56.505 80.1266 56.7313C80.2238 57.0039 80.2646 57.294 80.2466 57.5834C80.2286 57.8729 80.1521 58.1553 80.0219 58.4133C79.438 59.5963 77.8184 59.9216 76.7166 59.4786C76.089 59.1796 75.5833 58.6672 75.2867 58.0297C74.9901 57.3921 74.9211 56.6693 75.0915 55.9856C75.2067 55.5403 75.4136 55.125 75.6985 54.7673C75.9835 54.4097 76.3399 54.1178 76.7442 53.9111C77.5551 53.4834 78.4831 53.3433 79.3811 53.5129C80.2791 53.6825 81.0959 54.1521 81.7021 54.8474C82.4073 55.7445 82.6001 56.9611 82.2861 58.475C82.0054 59.6718 81.3847 60.758 80.5012 61.598C79.8909 62.2168 79.3979 62.9447 79.0469 63.7454C78.8139 64.2899 78.7492 64.8937 78.8613 65.4766C78.9735 66.0594 79.2572 66.5937 79.6749 67.0085C80.5122 67.8551 81.961 68.0402 83.7514 67.53L84.0213 68.4719C83.3392 68.6752 82.6331 68.7826 81.9225 68.7915Z" fill="white"/>
<path d="M128.064 68.7925C127.356 68.7833 126.652 68.6777 125.971 68.4785L126.236 67.5365C128.031 68.0411 129.48 67.8561 130.318 67.0095C130.735 66.5947 131.019 66.0604 131.131 65.4776C131.243 64.8947 131.179 64.2909 130.946 63.7463C130.595 62.9458 130.101 62.2178 129.491 61.5989C128.612 60.7446 128.005 59.6409 127.751 58.4311C127.431 56.9229 127.629 55.7006 128.334 54.8036C128.939 54.1167 129.75 53.6525 130.64 53.4832C131.531 53.3139 132.452 53.4488 133.259 53.8672C133.663 54.0745 134.019 54.3666 134.304 54.7242C134.589 55.0818 134.796 55.4967 134.912 55.9417C135.08 56.6295 135.006 57.3553 134.705 57.9939C134.403 58.6325 133.892 59.1441 133.259 59.4403C132.158 59.8833 130.543 59.5525 129.954 58.3694C129.824 58.1115 129.747 57.8289 129.729 57.5396C129.711 57.2501 129.752 56.9601 129.849 56.6874C129.932 56.4623 130.059 56.257 130.223 56.0843C130.387 55.9116 130.584 55.7752 130.802 55.6838C131.089 55.5541 131.406 55.5099 131.716 55.5566C132.026 55.6032 132.316 55.7388 132.554 55.9473C132.854 56.2431 133.034 56.6438 133.055 57.0687L132.08 57.0967C132.074 56.926 132.006 56.7639 131.887 56.6426C131.789 56.5636 131.671 56.5139 131.547 56.499C131.422 56.4841 131.296 56.5047 131.182 56.5584C131.085 56.5987 130.998 56.6595 130.926 56.7369C130.853 56.8142 130.798 56.9062 130.764 57.007C130.715 57.1515 130.696 57.3046 130.707 57.4569C130.718 57.6092 130.76 57.7576 130.83 57.8928C131.057 58.2165 131.386 58.452 131.762 58.561C132.139 58.6699 132.54 58.6459 132.901 58.4928C133.312 58.2765 133.638 57.9244 133.827 57.4945C134.014 57.0645 134.054 56.5822 133.937 56.1268C133.852 55.8171 133.703 55.5289 133.502 55.2808C133.301 55.0326 133.051 54.83 132.769 54.6858C132.159 54.3867 131.47 54.2977 130.806 54.4322C130.143 54.5667 129.54 54.9175 129.089 55.4315C128.312 56.4183 128.599 57.7976 128.698 58.2349C128.922 59.2757 129.452 60.2223 130.218 60.9486C130.911 61.6474 131.472 62.4704 131.871 63.3763C132.181 64.0975 132.267 64.8976 132.118 65.67C131.97 66.4424 131.593 67.1502 131.039 67.6992C130.64 68.0745 130.172 68.3645 129.661 68.5523C129.15 68.7401 128.607 68.8218 128.064 68.7925Z" fill="white"/>
<path d="M90.2519 31.159C89.6404 31.0469 87.6462 30.5591 87.536 28.9443C87.5134 28.539 87.6248 28.1377 87.8525 27.8043C88.0801 27.471 88.4109 27.2249 88.792 27.1053C89.1133 26.9956 89.457 26.972 89.79 27.0367C90.1229 27.1016 90.4337 27.2526 90.6926 27.4753C90.9424 27.7232 91.1175 28.0384 91.1975 28.384C91.2775 28.7295 91.2591 29.0912 91.1443 29.4265L90.1968 29.1966C90.2585 29.0294 90.2757 28.8485 90.2467 28.6722C90.2177 28.496 90.1434 28.3307 90.0315 28.193C89.901 28.0887 89.7467 28.0198 89.583 27.9923C89.4193 27.9648 89.2515 27.9799 89.095 28.036C88.9199 28.0905 88.7675 28.2027 88.6618 28.3549C88.5561 28.5071 88.5031 28.6908 88.5111 28.877C88.5496 29.4938 89.2658 29.9984 90.4281 30.1946L90.2519 31.159Z" fill="white"/>
<path d="M119.735 31.1594L119.559 30.2006C120.716 29.9875 121.432 29.4942 121.476 28.8774C121.482 28.6908 121.427 28.5075 121.321 28.3556C121.214 28.2037 121.062 28.0915 120.886 28.0363C120.73 27.9818 120.562 27.9675 120.399 27.9949C120.235 28.0223 120.081 28.0905 119.95 28.1933C119.838 28.331 119.764 28.4964 119.735 28.6726C119.706 28.8488 119.723 29.0297 119.785 29.197L118.837 29.4269C118.724 29.0914 118.707 28.7302 118.787 28.385C118.867 28.0399 119.041 27.7247 119.289 27.4757C119.547 27.2525 119.858 27.1015 120.192 27.0376C120.525 26.9738 120.869 26.9991 121.189 27.1112C121.57 27.2298 121.901 27.4749 122.128 27.8073C122.356 28.1396 122.468 28.5401 122.445 28.9447C122.335 30.5595 120.341 31.0472 119.735 31.1594Z" fill="white"/>
<path d="M85.1122 39.1719C84.4349 39.1556 83.7728 38.9638 83.1886 38.6145C82.6045 38.2652 82.1175 37.7701 81.7738 37.1758C81.3586 36.4457 81.1648 35.6068 81.2167 34.7648C81.2687 33.9228 81.5641 33.1153 82.0658 32.4437C83.6303 30.201 86.8089 29.3992 90.7863 30.2458C92.8334 30.6756 94.8206 31.3612 96.7028 32.2867L96.2731 33.1614C94.4638 32.2736 92.5546 31.6146 90.588 31.199C87.0072 30.4421 84.1922 31.0981 82.8756 33.0044C82.4783 33.5154 82.2382 34.1343 82.1852 34.7837C82.1323 35.433 82.269 36.0838 82.5781 36.6544C82.8585 37.1596 83.2767 37.5715 83.7821 37.8401C84.2875 38.1087 84.8585 38.2227 85.4262 38.1682C85.8542 38.1225 86.2593 37.9484 86.5898 37.6679C86.9204 37.3873 87.1616 37.0131 87.2827 36.5927C87.3875 36.3667 87.4151 36.1117 87.3612 35.8679C87.3073 35.6241 87.175 35.4056 86.9851 35.2471C86.7782 35.0798 86.53 34.9735 86.2677 34.9398C86.0054 34.9062 85.7391 34.9466 85.4978 35.0564C85.3299 35.1597 85.1991 35.3152 85.1247 35.5C85.0503 35.6848 85.0362 35.889 85.0846 36.0825L84.1151 36.1946C84.0442 35.8064 84.0942 35.4054 84.2582 35.0476C84.4221 34.6897 84.6918 34.3929 85.0295 34.1987C85.442 33.9968 85.902 33.9171 86.357 33.9686C86.8119 34.0202 87.2434 34.2009 87.6022 34.4902C87.9422 34.7667 88.1879 35.1452 88.3046 35.5719C88.4213 35.9987 88.403 36.452 88.2522 36.8674C88.0696 37.4633 87.721 37.9924 87.2487 38.3905C86.7763 38.7886 86.2007 39.0386 85.5914 39.1102C85.4334 39.143 85.2732 39.1635 85.1122 39.1719Z" fill="white"/>
<path d="M104.217 27.7506C103.682 27.758 103.155 27.6265 102.685 27.3684C102.214 27.1104 101.816 26.7344 101.528 26.2761C101.097 25.5812 100.913 24.7565 101.007 23.9401C101.101 23.1236 101.468 22.3648 102.046 21.7906L102.724 22.4971C102.308 22.9134 102.045 23.4618 101.978 24.0513C101.911 24.6407 102.044 25.2358 102.355 25.7378C102.977 26.7303 104.112 27.005 105.484 26.5003L105.825 27.4198C105.312 27.6253 104.768 27.7373 104.217 27.7506Z" fill="white"/>
<path d="M105.164 26.0181C104.822 26.0356 104.48 25.9688 104.168 25.8234C103.857 25.678 103.584 25.4582 103.374 25.1827C102.79 24.3641 102.729 22.7717 104.476 21L105.164 21.6896C103.925 22.9399 103.765 24.0613 104.162 24.6164C104.558 25.1715 105.489 25.1771 106.541 24.6781L106.971 25.5583C106.409 25.8447 105.792 26.0016 105.164 26.0181Z" fill="white"/>
<path d="M95.1987 70.7322C95.6071 70.962 96.0652 71.0855 96.5318 71.091C97.167 71.083 97.7784 70.8444 98.2561 70.4182C98.9789 69.7315 99.502 68.8555 99.7682 67.8864C100.034 66.9172 100.034 65.8922 99.7655 64.9235L98.8456 65.2319C99.0464 66.0155 99.0396 66.8393 98.8257 67.6194C98.6119 68.3995 98.1986 69.1079 97.6281 69.6725C97.3644 69.9178 97.0297 70.0694 96.6741 70.1048C96.3186 70.1402 95.9614 70.0573 95.6559 69.8687L95.1987 70.7322Z" fill="white"/>
<path d="M95.1987 70.7322C94.756 70.4951 94.4104 70.1054 94.2238 69.6329C94.0371 69.1605 94.0214 68.636 94.1795 68.1529C94.455 67.3175 95.3254 66.5101 96.934 66.7456L96.7908 67.7099C95.9314 67.5866 95.3034 67.867 95.105 68.4613C95.0214 68.7253 95.0306 69.0107 95.1311 69.2685C95.2316 69.5263 95.4172 69.7404 95.6559 69.8742L95.1987 70.7322Z" fill="white"/>
<path d="M114.788 70.7322C114.378 70.9622 113.918 71.0855 113.449 71.091C112.814 71.082 112.203 70.8435 111.725 70.4182C111.005 69.73 110.483 68.854 110.217 67.8853C109.951 66.9167 109.95 65.8923 110.216 64.9235L111.141 65.2319C110.938 66.0149 110.943 66.839 111.156 67.6193C111.369 68.3997 111.782 69.1083 112.353 69.6725C112.617 69.9178 112.952 70.0694 113.307 70.1048C113.663 70.1402 114.02 70.0573 114.325 69.8687L114.788 70.7322Z" fill="white"/>
<path d="M114.788 70.7322C115.231 70.495 115.576 70.105 115.761 69.6324C115.947 69.1598 115.961 68.6353 115.802 68.1529C115.526 67.3175 114.661 66.5101 113.047 66.7456L113.19 67.7099C114.044 67.5866 114.678 67.867 114.843 68.4613C114.929 68.7252 114.921 69.0113 114.82 69.2697C114.719 69.528 114.533 69.7421 114.292 69.8742L114.788 70.7322Z" fill="white"/>
<path d="M98.4269 31.7985L98.157 30.8622C98.8494 30.6376 99.5105 30.3229 100.124 29.9258C101.394 29.0824 102.849 28.5719 104.36 28.4401C106.85 28.2383 108.073 27.2571 108.1 25.4292C108.113 25.166 108.074 24.9028 107.985 24.6553C107.896 24.4077 107.759 24.1809 107.583 23.9883C107.352 23.78 107.082 23.6207 106.79 23.5197C106.497 23.4186 106.188 23.3778 105.88 23.3996V22.424C106.317 22.4002 106.755 22.4658 107.166 22.617C107.578 22.7682 107.955 23.0019 108.277 23.3043C108.546 23.5868 108.756 23.9227 108.892 24.2912C109.029 24.6597 109.089 25.0528 109.07 25.446C109.07 27.0889 108.227 29.1073 104.443 29.4157C103.077 29.5358 101.762 29.9981 100.614 30.7613C99.9317 31.2012 99.1967 31.5498 98.4269 31.7985Z" fill="white"/>
<path d="M124.875 39.1708C124.718 39.1725 124.562 39.1631 124.406 39.1427C123.798 39.0698 123.223 38.8193 122.751 38.4214C122.278 38.0236 121.929 37.4952 121.746 36.9001C121.596 36.484 121.578 36.0303 121.696 35.6035C121.813 35.1768 122.06 34.7985 122.401 34.5227C122.76 34.2335 123.192 34.0528 123.646 34.0013C124.101 33.9497 124.561 34.0294 124.974 34.2312C125.312 34.425 125.581 34.722 125.744 35.0801C125.908 35.4383 125.956 35.8396 125.883 36.2273L124.919 36.1151C124.966 35.9216 124.952 35.7177 124.877 35.5331C124.803 35.3486 124.673 35.193 124.505 35.0891C124.263 34.9793 123.996 34.939 123.733 34.9726C123.47 35.0062 123.221 35.1124 123.013 35.2797C122.82 35.4331 122.683 35.6476 122.623 35.8892C122.563 36.1308 122.584 36.3859 122.682 36.6141C122.807 37.0323 123.049 37.4042 123.379 37.684C123.709 37.9639 124.112 38.1397 124.539 38.1896C125.106 38.2441 125.677 38.1301 126.183 37.8615C126.688 37.5928 127.106 37.181 127.387 36.6758C127.696 36.111 127.835 35.4664 127.788 34.8216C127.741 34.1769 127.51 33.5604 127.122 33.0482C125.795 31.1419 122.98 30.4859 119.41 31.2428C117.779 31.5889 116.187 32.0997 114.656 32.7678C114.21 32.9641 113.664 33.2388 113.086 33.5303C111.114 34.5227 108.414 35.8796 106.134 35.9076C104.283 35.9076 103.269 35.3133 102.74 34.7863C102.449 34.4998 102.218 34.1564 102.061 33.7768C101.904 33.3972 101.824 32.9892 101.826 32.5772H102.795C102.794 32.8596 102.85 33.1392 102.958 33.3994C103.065 33.6595 103.224 33.8948 103.423 34.0911C104.181 34.7194 105.149 35.0213 106.123 34.932C108.177 34.932 110.761 33.6032 112.651 32.6557C113.24 32.3586 113.796 32.0951 114.265 31.8764C115.86 31.1759 117.521 30.6442 119.223 30.2896C123.2 29.443 126.384 30.2448 127.943 32.4875C128.439 33.1564 128.731 33.9586 128.783 34.7949C128.835 35.6312 128.644 36.4646 128.235 37.1916C127.887 37.7852 127.395 38.2785 126.807 38.6248C126.219 38.9711 125.554 39.159 124.875 39.1708Z" fill="white"/>
<path d="M112.249 33.2401C111.12 33.1859 110.018 32.8776 109.021 32.3373C107.773 31.6865 106.395 31.3391 104.994 31.3225V30.3133C106.528 30.338 108.036 30.7217 109.401 31.4347C110.965 32.1467 112.205 32.713 114.557 31.7094C114.97 31.53 117.047 30.5488 117.311 28.4742C117.379 27.8804 117.303 27.2789 117.09 26.7218C116.876 26.1648 116.533 25.6693 116.088 25.2784C115.587 24.8457 114.981 24.5572 114.333 24.4429C113.685 24.3285 113.018 24.3924 112.403 24.628C111.945 24.7856 111.529 25.0502 111.19 25.4008C110.85 25.7513 110.596 26.1779 110.447 26.6465C110.366 26.9707 110.354 27.3089 110.411 27.6386C110.468 27.9682 110.593 28.2818 110.778 28.5584C110.997 28.8458 111.276 29.0801 111.596 29.244C111.915 29.4079 112.266 29.4974 112.623 29.5059C113.428 29.5059 113.984 29.2984 114.237 28.8667C114.339 28.6846 114.392 28.4789 114.392 28.2696C114.392 28.0603 114.339 27.8546 114.237 27.6725C114.117 27.4933 113.951 27.3517 113.756 27.2635C113.562 27.1754 113.347 27.1442 113.136 27.1735L113.025 26.2035C113.415 26.1379 113.815 26.1888 114.177 26.3499C114.539 26.511 114.848 26.7754 115.065 27.1111C115.283 27.4469 115.4 27.8397 115.402 28.2418C115.405 28.6439 115.293 29.0382 115.08 29.377C114.777 29.8928 114.122 30.4983 112.706 30.4983H112.601C112.092 30.4858 111.592 30.3569 111.138 30.121C110.684 29.8852 110.288 29.5485 109.979 29.1358C109.715 28.746 109.536 28.3033 109.453 27.8373C109.37 27.3713 109.386 26.8927 109.5 26.4334C109.891 24.7514 111.411 23.9832 112.045 23.7365C112.826 23.4336 113.673 23.3492 114.498 23.4922C115.322 23.6352 116.094 24.0003 116.733 24.5495C117.298 25.0455 117.736 25.6747 118.008 26.3822C118.279 27.0897 118.377 27.8541 118.292 28.6089C117.972 31.2104 115.466 32.4046 114.987 32.6233C114.124 33.0154 113.193 33.2253 112.249 33.2401Z" fill="white"/>
<path d="M97.7384 33.2386C96.8031 33.2184 95.8813 33.0067 95.028 32.6162C94.5268 32.4031 92.0202 31.2089 91.7228 28.6017C91.6371 27.8484 91.7339 27.0851 92.0047 26.3784C92.2754 25.6719 92.712 25.0435 93.2763 24.548C93.9143 24.0015 94.6838 23.6375 95.5057 23.4937C96.3277 23.3498 97.1724 23.4312 97.9532 23.7295C98.5868 23.9818 100.107 24.7443 100.504 26.432C100.614 26.8909 100.627 27.3682 100.544 27.8329C100.46 28.2976 100.281 28.7391 100.019 29.1288C99.7103 29.5415 99.3143 29.8781 98.8604 30.114C98.4065 30.3498 97.9063 30.4788 97.3968 30.4913C95.9094 30.5193 95.2319 29.8969 94.9234 29.3699C94.7263 29.0353 94.6221 28.6526 94.6221 28.2625C94.6221 27.8725 94.7263 27.4897 94.9234 27.1552C95.1428 26.8226 95.4482 26.5581 95.8059 26.3909C96.1636 26.2237 96.5597 26.1603 96.9506 26.2077L96.8404 27.1776C96.6294 27.149 96.4147 27.1805 96.2202 27.2686C96.0257 27.3566 95.859 27.4979 95.7387 27.6767C95.6389 27.8602 95.5865 28.0667 95.5865 28.2765C95.5865 28.4864 95.6389 28.6929 95.7387 28.8765C95.9921 29.3082 96.5485 29.5269 97.3528 29.51C97.7105 29.5031 98.0621 29.4144 98.3816 29.2503C98.701 29.0863 98.9802 28.8512 99.1982 28.5625C99.3834 28.2859 99.5086 27.9723 99.5655 27.6427C99.6225 27.3131 99.61 26.9749 99.5288 26.6506C99.3804 26.1827 99.1262 25.7568 98.7864 25.4071C98.4468 25.0575 98.0312 24.794 97.5731 24.6378C96.9579 24.4026 96.2923 24.3384 95.6445 24.4517C94.9968 24.565 94.3905 24.8518 93.8877 25.2825C93.4433 25.6734 93.0997 26.169 92.8865 26.726C92.6734 27.283 92.5972 27.8846 92.6647 28.4784C92.9182 30.5529 94.9895 31.5397 95.4192 31.7135C97.7715 32.7171 99.0109 32.1508 100.581 31.4388C101.947 30.7279 103.454 30.3443 104.988 30.3174V31.293C103.586 31.3186 102.209 31.6755 100.967 32.3359C99.9701 32.8779 98.8671 33.1863 97.7384 33.2386Z" fill="white"/>
<path d="M104.994 34.6848V33.7148C105.224 33.7044 105.447 33.632 105.641 33.5049C105.834 33.3778 105.991 33.2007 106.095 32.9916C106.201 32.7469 106.225 32.4734 106.162 32.2137C106.099 31.9541 105.954 31.7229 105.748 31.5562C105.65 31.4582 105.533 31.3833 105.403 31.3368C105.274 31.2903 105.136 31.2733 104.999 31.2871V30.3115C105.489 30.2816 105.97 30.4511 106.338 30.7825C106.713 31.0771 106.981 31.4905 107.1 31.9576C107.219 32.4247 107.181 32.9187 106.993 33.3616C106.817 33.7521 106.536 34.0838 106.182 34.318C105.828 34.5522 105.416 34.6794 104.994 34.6848Z" fill="white"/>
<path d="M98.4214 31.803L98.1681 30.861C98.8879 30.6367 99.5738 30.3122 100.206 29.8967C101.445 29.0681 102.867 28.567 104.343 28.439C106.431 28.1953 108.533 28.7531 110.238 30.0033C110.736 30.347 111.268 30.6382 111.824 30.8723L111.472 31.7862C110.855 31.5288 110.266 31.2076 109.715 30.8274C108.187 29.6964 106.297 29.1919 104.421 29.4145C103.096 29.5413 101.823 30.0039 100.719 30.7601C100.005 31.2164 99.2317 31.5676 98.4214 31.803Z" fill="white"/>
<path d="M83.1288 56.9563L82.9746 55.9303C82.6228 54.4118 81.8185 53.041 80.6719 52.0056C80.0765 51.4639 79.3922 51.033 78.6501 50.7328C77.517 50.3322 76.5821 49.4974 76.0444 48.406C74.8821 46.1633 75.9453 43.7636 75.9894 43.6626L76.5402 42.4516L76.9148 43.7243C77.0469 44.1402 77.2648 44.5225 77.5539 44.8457C77.4678 43.5424 77.5699 42.2333 77.8568 40.9602C78.1364 39.4825 78.6657 38.0654 79.4214 36.7719L80.5231 35.1572L80.3193 37.0971C80.2301 38.6805 80.6667 40.2485 81.5588 41.5489C82.0231 42.1552 82.5235 42.7319 83.0572 43.2758C84.6382 44.9579 86.4341 46.8249 86.1807 50.4693C86.0008 52.5763 85.1827 54.5746 83.8394 56.1883L83.1288 56.9563ZM76.5568 45.1821C76.3728 46.1082 76.4948 47.0701 76.9038 47.9182C77.1216 48.3678 77.426 48.7682 77.7988 49.0957C78.1717 49.4232 78.6055 49.671 79.0743 49.8245C79.9106 50.1697 80.6821 50.659 81.3549 51.2711C82.3956 52.2273 83.1932 53.4258 83.6797 54.7641C84.5475 53.4607 85.0746 51.9536 85.2111 50.3852C85.4315 47.1725 83.9386 45.597 82.3521 43.9318C81.7881 43.3607 81.26 42.7539 80.771 42.1152C80.0996 41.1827 79.6507 40.1038 79.4599 38.9641C79.1964 39.6792 78.9811 40.4116 78.8154 41.1564C78.4795 42.6269 78.4197 44.1488 78.6391 45.6418L78.8099 46.4716L78.0111 46.2082C77.6022 46.0609 77.2273 45.83 76.9093 45.5297C76.7892 45.4261 76.6786 45.3117 76.5788 45.1877L76.5568 45.1821Z" fill="white"/>
<path d="M83.5641 53.0485L83.1289 52.3477C82.6711 51.6453 82.1726 50.9712 81.636 50.3292C80.1872 48.5407 80.6775 45.4177 80.6995 45.2831L80.8042 44.6383L81.3936 44.9242C82.8373 45.6702 83.931 46.9689 84.4345 48.535C84.7365 49.8138 84.5721 51.1607 83.9718 52.3253L83.5641 53.0485ZM81.5919 46.197C81.5424 47.1334 81.5919 48.7313 82.3962 49.7125C82.8314 50.2731 83.173 50.7048 83.4264 51.0525C83.6479 50.3249 83.6707 49.5496 83.4925 48.8098C83.1648 47.7465 82.4954 46.8264 81.5919 46.197Z" fill="white"/>
<path d="M126.836 56.9549L126.147 56.1869C124.806 54.5699 123.988 52.5704 123.806 50.4623C123.553 46.8235 125.349 44.934 126.924 43.2688C127.461 42.7283 127.963 42.1533 128.428 41.5475C129.328 40.2383 129.765 38.6569 129.668 37.062L129.464 35.1221L130.565 36.7368C131.321 38.0303 131.85 39.4475 132.13 40.9251C132.414 42.2006 132.516 43.5112 132.433 44.8162C132.722 44.493 132.94 44.1107 133.072 43.6949L133.447 42.4333L133.997 43.6332C134.041 43.7397 135.099 46.1619 133.942 48.3766C133.405 49.4694 132.47 50.306 131.336 50.709C130.594 51.0103 129.908 51.441 129.31 51.9818C128.156 53.0107 127.352 54.3844 127.012 55.9065L126.836 56.9549ZM130.505 38.974C130.313 40.1135 129.865 41.1922 129.194 42.125C128.705 42.7638 128.177 43.3705 127.613 43.9416C126.032 45.6237 124.533 47.1823 124.753 50.395C124.89 51.959 125.415 53.462 126.28 54.7627C126.767 53.4218 127.566 52.2212 128.61 51.264C129.288 50.6495 130.068 50.1617 130.912 49.8231C131.377 49.6699 131.805 49.4232 132.173 49.0976C132.542 48.772 132.842 48.3742 133.055 47.928C133.471 47.0819 133.595 46.1184 133.408 45.1919C133.312 45.3293 133.203 45.457 133.083 45.5732C132.765 45.8735 132.39 46.1044 131.981 46.2516L131.177 46.5151L131.353 45.6853C131.575 44.1924 131.515 42.67 131.177 41.1999C131.004 40.443 130.779 39.6993 130.505 38.974Z" fill="white"/>
<path d="M126.417 53.0476L126.02 52.3242C125.416 51.1589 125.25 49.8096 125.552 48.5285C126.057 46.9644 127.15 45.6679 128.593 44.9233L129.183 44.6318L129.287 45.2822C129.287 45.4111 129.799 48.5397 128.351 50.3283C127.814 50.9703 127.316 51.6443 126.858 52.3467L126.417 53.0476ZM128.395 46.1961C127.494 46.8208 126.825 47.7347 126.494 48.792C126.311 49.5312 126.334 50.308 126.561 51.0347C126.814 50.6815 127.155 50.2274 127.591 49.6891C128.384 48.7303 128.444 47.138 128.395 46.1961Z" fill="white"/>
<path d="M113.273 59.5173C111.692 56.6859 111.257 54.174 111.973 52.0602C112.547 50.4635 113.717 49.1619 115.229 48.4382L115.609 49.3354C114.347 49.9577 113.369 51.0497 112.877 52.3855C112.254 54.2244 112.667 56.4615 114.105 59.0407L113.273 59.5173Z" fill="white"/>
<path d="M123.101 76.8105L122.506 76.031C124.723 74.3655 126.66 72.3455 128.241 70.0485L129.067 70.5643C127.431 72.968 125.415 75.0785 123.101 76.8105Z" fill="white"/>
<path d="M116.904 63.0343C116.766 62.9334 116.606 62.8268 116.424 62.7035C114.975 61.7335 112.282 59.9001 112.689 56.065C112.849 54.5736 113.593 53.5252 114.673 53.2617C115.072 53.1542 115.495 53.1734 115.884 53.3166C116.272 53.4599 116.609 53.7204 116.848 54.0634C117.074 54.411 117.504 55.353 116.562 56.6202L115.785 56.0594C116.193 55.4987 116.281 54.9997 116.033 54.6241C115.904 54.4603 115.732 54.3366 115.538 54.2672C115.343 54.1978 115.133 54.1855 114.931 54.2317C114.259 54.3943 113.802 55.1119 113.686 56.1884C113.339 59.4627 115.631 60.9991 116.992 61.9185C117.185 62.0419 117.355 62.1597 117.499 62.2662L116.904 63.0343Z" fill="white"/>
<path d="M112.067 62.928C111.76 62.9308 111.456 62.8756 111.169 62.7654C110.962 62.6872 110.773 62.5668 110.614 62.4115C110.455 62.2563 110.329 62.0695 110.243 61.8627C110.139 61.6237 110.095 61.3619 110.116 61.1012C110.138 60.8405 110.223 60.5896 110.364 60.3713C110.582 60.0922 110.863 59.8719 111.184 59.7301C111.505 59.5882 111.856 59.5293 112.204 59.5583V60.5339C112.015 60.5115 111.824 60.5342 111.645 60.6004C111.466 60.6666 111.305 60.7744 111.174 60.9151C111.126 61.0004 111.1 61.097 111.1 61.1954C111.1 61.2939 111.126 61.3905 111.174 61.4758C111.21 61.562 111.264 61.6395 111.331 61.7032C111.399 61.767 111.478 61.8156 111.565 61.8459C112.091 62.0006 112.655 61.9506 113.146 61.7057L113.532 62.6027C113.07 62.8092 112.572 62.9197 112.067 62.928Z" fill="white"/>
<path d="M115.284 77.493C116.432 78.0205 117.676 78.2995 118.936 78.312C119.85 78.3195 120.756 78.128 121.591 77.751C122.517 77.3685 123.336 76.7585 123.974 75.976C124.612 75.1935 125.05 74.2625 125.25 73.2655C125.415 72.5145 125.405 71.7345 125.219 70.9883C125.033 70.2421 124.677 69.551 124.181 68.9709C123.4 68.1378 122.332 67.6453 121.202 67.5972C120.072 67.5491 118.967 67.9491 118.121 68.713C117.631 69.1274 117.281 69.6881 117.121 70.3159C116.961 70.9437 116.998 71.607 117.229 72.2115C117.435 72.7715 117.807 73.253 118.294 73.589C118.78 73.9255 119.357 74.1005 119.944 74.09H120.01C120.395 74.1045 120.776 74.022 121.121 73.85C121.467 73.678 121.764 73.421 121.988 73.103C122.183 72.7955 122.301 72.444 122.332 72.0795C122.362 71.715 122.305 71.3485 122.164 71.0115L121.266 71.382C121.347 71.573 121.38 71.781 121.363 71.988C121.347 72.195 121.282 72.395 121.173 72.5705C121.037 72.7555 120.858 72.9035 120.653 73.0015C120.447 73.099 120.221 73.144 119.994 73.131C119.594 73.1455 119.2 73.0325 118.867 72.807C118.534 72.582 118.279 72.256 118.137 71.875C117.971 71.4585 117.938 70.9989 118.045 70.5625C118.152 70.126 118.393 69.7355 118.732 69.4474C119.387 68.8408 120.251 68.5212 121.135 68.5579C122.02 68.5947 122.855 68.9848 123.459 69.6437C123.845 70.1145 124.118 70.6698 124.258 71.266C124.397 71.8625 124.399 72.4835 124.263 73.0805C124.093 73.9265 123.718 74.716 123.172 75.3775C122.627 76.0395 121.929 76.5525 121.14 76.871C119.63 77.5715 117.587 77.471 115.67 76.596L115.284 77.493Z" fill="white"/>
<path d="M115.284 77.493C114.144 77.0095 113.12 76.2825 112.281 75.3605C111.441 74.439 110.807 73.344 110.42 72.1505C109.164 67.8948 109.698 62.7813 113.174 61.6936C114.987 61.1329 116.325 61.3011 117.504 62.2543L116.893 63.0168C115.984 62.2767 114.959 62.159 113.466 62.63C111.323 63.2972 109.852 66.7678 111.362 71.87C111.71 72.928 112.277 73.8975 113.025 74.713C113.773 75.5285 114.684 76.1705 115.697 76.5965L115.284 77.493Z" fill="white"/>
<path d="M94.6974 77.493C93.5582 78.0195 92.3236 78.2985 91.0726 78.312C90.1584 78.3195 89.2531 78.128 88.4174 77.751C87.4915 77.3685 86.6731 76.7585 86.0349 75.976C85.3967 75.1935 84.9585 74.2625 84.7595 73.2655C84.5937 72.5145 84.604 71.7345 84.7897 70.9883C84.9754 70.2421 85.3311 69.551 85.8282 68.9709C86.6089 68.1378 87.6767 67.6453 88.8069 67.5972C89.9371 67.5491 91.0416 67.9491 91.8879 68.713C92.3794 69.1264 92.7303 69.687 92.8906 70.3153C93.0508 70.9434 93.0122 71.607 92.7803 72.2115C92.5734 72.7715 92.2014 73.253 91.7151 73.589C91.2289 73.9255 90.6523 74.1005 90.0645 74.09H89.9984C89.6143 74.1045 89.2325 74.022 88.8874 73.85C88.5423 73.678 88.2445 73.421 88.0207 73.103C87.8259 72.7955 87.7081 72.444 87.6773 72.0795C87.6466 71.715 87.7039 71.3485 87.8444 71.0115L88.7424 71.382C88.6623 71.573 88.6291 71.781 88.6454 71.988C88.6617 72.195 88.7271 72.395 88.836 72.5705C88.9719 72.7555 89.1506 72.9035 89.3563 73.0015C89.562 73.099 89.7882 73.144 90.0149 73.131C90.4145 73.1455 90.8086 73.0325 91.1416 72.807C91.4746 72.582 91.7299 72.256 91.8714 71.875C92.0357 71.4565 92.0645 70.9951 91.9535 70.5585C91.8425 70.1218 91.5976 69.7326 91.2544 69.4474C90.6005 68.8411 89.7381 68.5217 88.8542 68.5584C87.9704 68.5952 87.1364 68.9851 86.5333 69.6437C86.147 70.1142 85.873 70.6693 85.7324 71.2655C85.592 71.862 85.5889 72.483 85.7235 73.0805C85.8918 73.926 86.2638 74.715 86.8061 75.378C87.3484 76.0405 88.0441 76.5555 88.8305 76.8765C90.3399 77.5775 92.3837 77.4765 94.3007 76.6015L94.6974 77.493Z" fill="white"/>
<path d="M94.6974 77.493C95.8372 77.0095 96.8616 76.2825 97.7009 75.3605C98.5402 74.439 99.1748 73.344 99.5617 72.1505C100.818 67.8948 100.283 62.7813 96.8073 61.6936C94.9949 61.1329 93.6563 61.3011 92.4773 62.2543L93.0889 63.0168C93.9978 62.2767 95.0224 62.159 96.5153 62.63C98.6583 63.2972 100.129 66.7678 98.6197 71.87C98.2718 72.928 97.7047 73.8975 96.9567 74.713C96.2088 75.5285 95.2974 76.1705 94.2843 76.5965L94.6974 77.493Z" fill="white"/>
<path d="M99.3524 38.6602C99.4704 38.3106 99.6714 37.9962 99.9377 37.7448C100.204 37.4934 100.527 37.3129 100.878 37.2193C101.092 37.146 101.314 37.1008 101.539 37.0847C101.971 37.0641 102.403 37.0904 102.828 37.1632C103.693 37.3594 104.506 37.7417 105.214 38.2846C107.709 40.174 107.841 42.6466 107.197 44.1829L106.299 43.8072C107.114 41.8617 105.908 40.0395 104.646 39.0639C104.28 38.7851 103.882 38.5518 103.462 38.3687C103.061 38.2313 102.65 38.1245 102.233 38.0491C102.131 38.0437 102.028 38.0437 101.925 38.0491C101.67 38.0463 101.415 38.0822 101.17 38.1556C100.969 38.2074 100.783 38.3078 100.627 38.4484C100.472 38.5889 100.352 38.765 100.278 38.9627L99.3524 38.6602Z" fill="white"/>
<path d="M127.403 62.4515C127.339 62.0989 127.192 61.7673 126.975 61.4843C126.759 61.2014 126.478 60.9755 126.158 60.8256C125.53 60.5229 124.506 60.3434 122.985 61.1844L119.741 37.6359C119.672 37.117 119.449 36.6319 119.101 36.2459C118.753 35.8601 118.298 35.5918 117.796 35.4773C117.292 35.3514 116.762 35.3849 116.276 35.5732C115.791 35.7615 115.374 36.0957 115.08 36.5314C114.11 37.9219 112.932 39.4637 111.687 41.1009C111.026 41.97 110.337 42.867 109.676 43.7529C108.332 45.5527 107.109 47.0329 106.035 48.3393C105.665 48.7822 105.318 49.2027 104.993 49.612L103.947 48.3393C102.845 47.0329 101.649 45.5359 100.305 43.7529C99.6553 42.867 98.9612 41.9756 98.2946 41.1009C97.0496 39.4637 95.8707 37.9219 94.8956 36.5314C94.6008 36.099 94.1833 35.7686 93.699 35.5842C93.2146 35.3998 92.6865 35.3704 92.1853 35.4997C91.6826 35.6127 91.2263 35.8805 90.8784 36.2668C90.5304 36.653 90.3078 37.1388 90.2407 37.6583L86.985 61.1844C85.4976 60.3434 84.4399 60.5229 83.8119 60.8256C83.4938 60.9769 83.2158 61.2035 83.0012 61.4863C82.7866 61.7691 82.6414 62.1001 82.5779 62.4515C82.5126 62.8806 82.5691 63.3196 82.7409 63.717C82.9127 64.1144 83.1926 64.4535 83.5475 64.6943C84.6492 65.4849 86.3019 65.4905 87.8278 64.6943L87.3871 63.842C85.9218 64.5821 84.7319 64.3635 84.1094 63.915C83.9059 63.7736 83.746 63.5762 83.6485 63.3459C83.551 63.1156 83.5198 62.8619 83.5585 62.6142C83.5933 62.42 83.6721 62.2367 83.7888 62.079C83.9055 61.9213 84.0568 61.7935 84.2306 61.7058C84.6548 61.4984 85.3984 61.3975 86.5443 62.0591C87.4515 62.6497 88.2953 63.3356 89.0618 64.1055C89.5686 64.5765 90.0919 65.0644 90.6318 65.5073C91.2205 66.0011 91.9569 66.276 92.7197 66.2866C93.32 66.3162 93.9095 66.1162 94.3723 65.7259C94.9232 65.2045 95.2372 64.2121 94.3723 62.9954L93.5736 63.5561C93.8214 63.9149 94.163 64.5709 93.6948 65.0139C93.2265 65.4568 92.1137 65.4737 91.2598 64.7728C90.742 64.3466 90.2242 63.8701 89.7284 63.4104C89.1004 62.8497 88.4999 62.289 87.8884 61.8068L91.1937 37.8153C91.235 37.4928 91.3729 37.191 91.5889 36.9513C91.8047 36.7114 92.0881 36.5452 92.4002 36.4753C92.7116 36.394 93.0401 36.4117 93.3415 36.526C93.6428 36.6402 93.9025 36.8456 94.0859 37.1145C95.0719 38.5218 96.2564 40.0749 97.5069 41.7176C98.1679 42.5867 98.8565 43.4782 99.5121 44.364C100.867 46.1807 102.101 47.6721 103.181 48.9841C103.6 49.4887 103.991 49.9653 104.349 50.4082C104.134 50.6829 103.93 50.9688 103.743 51.2099C103.346 50.7109 102.906 50.1839 102.432 49.6064C101.33 48.2832 100.107 46.803 98.7298 44.9471C98.0743 44.0725 97.3912 43.1754 96.7356 42.312C95.4741 40.63 94.2842 39.0993 93.2871 37.6751C93.2158 37.5699 93.1149 37.4891 92.9975 37.4433C92.8803 37.3976 92.7521 37.389 92.6299 37.4186C92.5077 37.4484 92.3973 37.515 92.313 37.6098C92.2287 37.7047 92.1746 37.8232 92.1578 37.9499L88.8525 62.003H89.8386L93.0447 38.9367C93.9372 40.1758 94.9453 41.499 96.0029 42.8615C96.664 43.7249 97.3416 44.6163 97.9971 45.491C99.3799 47.3525 100.625 48.8551 101.727 50.1895C102.278 50.8399 102.757 51.4454 103.203 52.0005C102.522 52.948 102.062 54.041 101.859 55.1964C101.723 55.8087 101.726 56.4444 101.867 57.0554C102.008 57.6664 102.284 58.2366 102.674 58.723C102.955 59.0783 103.312 59.3638 103.718 59.5581C104.124 59.7523 104.567 59.8503 105.015 59.8444C105.467 59.8679 105.917 59.7779 106.326 59.5823C106.736 59.3867 107.091 59.0916 107.362 58.723C107.913 58.1175 108.464 57.013 108.177 55.1964C107.962 54.0486 107.497 52.9645 106.817 52.0229C107.257 51.4622 107.753 50.8624 108.293 50.212C109.395 48.8832 110.634 47.3749 112.023 45.5135C112.673 44.6388 113.356 43.7473 114.017 42.8839C115.075 41.499 116.083 40.1758 116.975 38.9591L120.154 62.003H121.14L117.834 37.9499C117.822 37.8228 117.769 37.703 117.685 37.6082C117.601 37.5134 117.489 37.4485 117.366 37.4228C117.244 37.3893 117.114 37.3957 116.996 37.4409C116.877 37.4862 116.776 37.5681 116.705 37.6751C115.708 39.0993 114.502 40.658 113.257 42.312C112.596 43.1754 111.918 44.0725 111.257 44.9527C109.885 46.7918 108.651 48.2888 107.56 49.6064C107.087 50.1671 106.646 50.7277 106.249 51.2099C106.023 51.4903 105.82 51.7706 105.621 52.0117C105.423 52.2528 105.203 52.5724 105.015 52.8415L104.806 53.1611C104.365 53.8844 103.704 55.0731 103.704 56.1383C103.704 56.9906 104.128 57.8204 105.015 57.8204C105.902 57.8204 106.321 56.9738 106.321 56.1383C106.254 55.2903 105.988 54.4711 105.544 53.7499C105.721 53.4807 105.963 53.1387 106.172 52.8527C106.678 53.6031 107.023 54.4531 107.186 55.3478C107.296 55.8214 107.3 56.3142 107.198 56.7896C107.096 57.2651 106.89 57.7113 106.596 58.0951C106.414 58.3549 106.173 58.5672 105.895 58.7143C105.616 58.8614 105.307 58.9394 104.993 58.9417C104.677 58.9464 104.365 58.8716 104.085 58.7239C103.804 58.5762 103.564 58.3602 103.385 58.0951C103.093 57.7099 102.889 57.2637 102.787 56.7887C102.685 56.3137 102.688 55.8216 102.795 55.3478C102.958 54.4531 103.303 53.6031 103.809 52.8527C103.98 52.5724 104.173 52.292 104.36 51.9949C104.547 51.6978 104.745 51.4342 104.966 51.1819C105.186 50.9296 105.368 50.6661 105.588 50.3969L106.756 48.9673C107.858 47.6553 109.07 46.1639 110.425 44.3472C111.086 43.4669 111.769 42.5699 112.43 41.7008C113.686 40.0581 114.865 38.5106 115.851 37.0977C116.035 36.8294 116.295 36.6244 116.596 36.5103C116.897 36.3961 117.225 36.378 117.537 36.4585C117.85 36.5281 118.134 36.6941 118.351 36.9339C118.568 37.1737 118.707 37.4755 118.749 37.7985L122.054 61.8012C121.542 62.1992 121.041 62.6702 120.517 63.1581C119.939 63.7169 119.332 64.2446 118.699 64.7392C118.399 65.0022 118.025 65.1639 117.631 65.202C117.236 65.2402 116.84 65.1529 116.496 64.9522C116.006 64.5429 116.248 63.8308 116.435 63.4832L115.559 63.0459C115.008 64.1056 115.146 65.098 115.868 65.6979C116.287 66.0356 116.81 66.2123 117.344 66.1969C118.053 66.1913 118.742 65.9556 119.311 65.5241C119.975 65.0126 120.61 64.4622 121.211 63.8757C121.881 63.1946 122.62 62.5876 123.415 62.0647C124.561 61.4031 125.305 61.504 125.729 61.7114C125.907 61.7926 126.064 61.9157 126.187 62.0707C126.309 62.2257 126.394 62.4081 126.434 62.603C126.474 62.8507 126.444 63.1052 126.346 63.3359C126.249 63.5667 126.088 63.7638 125.883 63.9038C125.266 64.3579 124.076 64.5765 122.611 63.8364L122.175 64.7111C123.729 65.4905 125.365 65.4849 126.456 64.7111C126.813 64.4692 127.092 64.1264 127.261 63.7252C127.429 63.3238 127.478 62.8812 127.403 62.4515ZM104.993 56.7439C104.784 56.7439 104.536 56.6317 104.531 56.0262C104.593 55.5076 104.764 55.0086 105.032 54.5628V54.7198C105.262 55.1191 105.403 55.5651 105.445 56.0262C105.44 56.6205 105.203 56.7439 104.993 56.7439Z" fill="white"/>
<path d="M127.424 62.5116C127.324 61.8237 126.845 61.1933 126.175 60.8652C125.549 60.5587 124.493 60.377 123.001 61.2289L119.754 37.4408C119.606 36.3537 118.859 35.5176 117.809 35.2606C116.756 35.0036 115.717 35.401 115.096 36.3004C114.123 37.7095 112.944 39.2691 111.698 40.9214C111.036 41.8011 110.348 42.7104 109.687 43.6057C108.342 45.4262 107.122 46.9224 106.044 48.2407C105.694 48.6672 105.346 49.0955 105.001 49.5256C104.674 49.1184 104.327 48.6935 103.958 48.2407C102.88 46.9224 101.66 45.4282 100.315 43.6059C99.6545 42.7104 98.9685 41.8011 98.3038 40.9214C97.0564 39.2691 95.8792 37.7095 94.9045 36.3004C94.2828 35.401 93.2438 35.0017 92.1913 35.2606C91.1388 35.5176 90.3943 36.3539 90.2461 37.4408L86.9989 61.2289C85.5096 60.377 84.4512 60.5587 83.8257 60.8652C83.1551 61.1933 82.6775 61.8258 82.5762 62.5116C82.4457 63.403 82.7985 64.2253 83.5431 64.7709C84.6326 65.5693 86.2737 65.5753 87.8253 64.7846L87.3887 63.9011C85.923 64.6483 84.7359 64.4268 84.1142 63.9703C83.6677 63.6441 83.465 63.1758 83.541 62.6559C83.584 62.3593 83.8198 61.9641 84.2507 61.7546C84.6716 61.5471 85.4161 61.4422 86.5641 62.1123C87.377 62.5886 88.2054 63.3615 89.0805 64.1818C89.5893 64.6581 90.1156 65.1503 90.6554 65.5971C91.322 66.1485 92.0665 66.3856 92.741 66.3856C93.3901 66.3856 93.9767 66.1662 94.3686 65.7986C94.9318 65.2689 95.232 64.2668 94.3861 63.0393L93.5868 63.6066C93.8325 63.9643 94.1755 64.6304 93.7039 65.0752C93.2205 65.5298 92.1269 65.5416 91.2693 64.8321C90.7509 64.4031 90.2363 63.9229 89.7394 63.4565C89.1117 62.8693 88.5075 62.306 87.8974 61.8377L91.2089 37.5751C91.32 36.7668 91.9048 36.3457 92.4174 36.2214C92.93 36.0946 93.6416 36.1994 94.1034 36.8675C95.0896 38.2928 96.2729 39.862 97.5261 41.5224C98.1888 42.4 98.8729 43.3052 99.5299 44.1968C100.888 46.0369 102.118 47.541 103.202 48.8694C103.619 49.3813 104.011 49.8595 104.371 50.3121C104.164 50.5784 103.961 50.848 103.761 51.1206C103.364 50.6185 102.925 50.0828 102.452 49.4998C101.36 48.1637 100.124 46.6496 98.7503 44.7896C98.0952 43.9023 97.4113 42.9969 96.7522 42.1232C95.4932 40.4531 94.3022 38.8778 93.3063 37.4347C93.0938 37.1266 92.8014 37.1443 92.6475 37.1819C92.4935 37.2194 92.2264 37.3379 92.1757 37.7117L88.8564 62.0311H89.8409L93.0218 38.7314C93.9145 39.9865 94.9243 41.3225 95.9826 42.726C96.6414 43.5997 97.3236 44.501 97.9746 45.3844C99.3623 47.2642 100.608 48.7881 101.705 50.1321C102.245 50.7924 102.74 51.4011 103.183 51.9664C102.465 53.0674 102 54.0853 101.838 55.1763C101.565 57.0087 102.132 58.1274 102.654 58.7421C103.354 59.5663 104.159 59.8569 104.999 59.8569C106.042 59.8569 106.646 59.5644 107.344 58.7421C107.866 58.1274 108.432 57.0087 108.161 55.1763C107.999 54.0853 107.533 53.0694 106.816 51.9664C107.258 51.4011 107.755 50.7924 108.293 50.1321C109.393 48.7881 110.636 47.2642 112.024 45.3844C112.677 44.501 113.359 43.5976 114.018 42.7241C115.076 41.3225 116.086 39.9844 116.977 38.7313L120.158 62.0311H121.142L117.823 37.7115C117.772 37.3398 117.505 37.2192 117.351 37.1817C117.197 37.1441 116.905 37.1264 116.69 37.4347C115.694 38.8776 114.503 40.4529 113.244 42.1232C112.583 42.9987 111.901 43.904 111.244 44.7915C109.87 46.6514 108.634 48.1653 107.543 49.5017C107.102 50.0389 106.665 50.5792 106.231 51.1224C106.019 51.3893 105.811 51.6588 105.605 51.9308C105.396 52.206 105.194 52.4868 104.999 52.7729C104.927 52.8774 104.857 52.9835 104.789 53.0911C104.787 53.0931 104.787 53.0951 104.785 53.0989C104.342 53.8283 103.688 55.0321 103.688 56.1113C103.688 56.9731 104.108 57.825 104.995 57.825C105.882 57.825 106.303 56.9731 106.303 56.1113C106.303 55.295 105.929 54.4075 105.555 53.7077C105.756 53.3988 105.966 53.0957 106.184 52.7986C106.724 53.6762 107.075 54.4906 107.198 55.3226C107.371 56.4968 107.173 57.4315 106.607 58.0977C106.079 58.7203 105.609 58.9537 105.001 58.9537C104.331 58.9537 103.923 58.7224 103.395 58.0977C102.83 57.4296 102.631 56.4968 102.805 55.3226C102.927 54.4906 103.278 53.6762 103.818 52.7986C104.002 52.5035 104.194 52.2141 104.395 51.9308C104.592 51.6536 104.794 51.3801 105.001 51.1106C105.206 50.8427 105.414 50.5772 105.625 50.3139C105.988 49.8613 106.377 49.383 106.794 48.8711C107.878 47.5448 109.108 46.0387 110.466 44.1985C111.125 43.307 111.81 42.3998 112.472 41.5222C113.725 39.8618 114.909 38.2946 115.895 36.8674C116.357 36.1995 117.07 36.0946 117.581 36.2211C118.093 36.3456 118.68 36.7687 118.789 37.5749L122.103 61.8453C121.592 62.2485 121.087 62.7249 120.567 63.217C119.982 63.7704 119.378 64.3416 118.749 64.8181C117.924 65.4408 116.965 65.4151 116.513 65.0316C116.025 64.6184 116.265 63.9227 116.452 63.5452L115.579 63.1025C115.051 64.1738 115.166 65.1778 115.885 65.7885C116.281 66.1246 116.807 66.2907 117.367 66.2907C118.025 66.2907 118.733 66.0614 119.327 65.6127C120 65.1047 120.626 64.5138 121.23 63.9426C121.996 63.219 122.717 62.5352 123.436 62.1141C124.584 61.444 125.327 61.5489 125.75 61.7564C126.181 61.9678 126.416 62.3612 126.459 62.6577C126.535 63.1795 126.331 63.646 125.886 63.9721C125.264 64.4287 124.077 64.6501 122.612 63.9029L122.175 64.7864C123.727 65.5771 125.368 65.5732 126.457 64.7727C127.2 64.2271 127.552 63.403 127.424 62.5116ZM105.005 56.7401H104.995C104.787 56.7401 104.543 56.6234 104.535 56.0107C104.527 55.3979 105.038 54.5322 105.038 54.5322L105.042 54.6942C105.188 54.975 105.461 55.562 105.455 56.0107C105.447 56.6154 105.212 56.736 105.005 56.7401Z" fill="white"/>
<path d="M139.716 102.66L143.217 96.4647L146.7 102.66H139.716ZM136.419 106.997H137.255L139.328 103.329H147.076L149.134 106.997H150L143.236 95.0275L136.419 106.997ZM113.592 96.0435H119.76V106.997H120.536V96.0469H126.722V95.3744H113.603L113.592 96.0435ZM91.3367 98.7633C91.3367 96.9295 93.0181 96.0469 94.8199 96.0469H100.003V101.514H94.8169C93.0181 101.514 91.3367 100.597 91.3367 98.7633ZM89.4333 107H90.3334L94.7011 102.186H100.006V107H100.753V95.3744H94.7041C92.563 95.3744 90.5569 96.6135 90.5569 98.7633C90.5569 100.622 92.0538 101.825 93.854 102.121L89.4333 107ZM60 107H60.7479L62.4804 96.7498L68.8203 105.101L75.1586 96.7671L76.8739 107H77.6567L75.6168 95L68.837 103.89L62.0405 95L60 107Z" fill="white"/>
<defs>
<linearGradient id="paint0_linear_3_423" x1="105" y1="0" x2="105" y2="128" gradientUnits="userSpaceOnUse">
<stop stop-color="white" stop-opacity="0"/>
<stop offset="1" stop-color="white"/>
</linearGradient>
</defs>
</svg>
