<svg width="210" height="128" viewBox="0 0 210 128" fill="none" xmlns="http://www.w3.org/2000/svg">
<rect width="210" height="128" rx="20" fill="url(#paint0_linear_3_433)" fill-opacity="0.1"/>
<path d="M132.872 62.5465L138.81 53.2718L132.872 44L127.336 44L133.277 53.2718L127.336 62.5465H132.872Z" fill="white"/>
<path d="M137.407 44L143.347 53.2718L137.407 62.5465H142.942L148.881 53.2718L142.942 44L137.407 44Z" fill="white"/>
<path d="M124.346 69.8835V67.5152C124.346 67.3142 124.301 67.115 124.212 66.9291C124.124 66.7432 123.994 66.5742 123.83 66.4319C123.665 66.2895 123.471 66.1766 123.257 66.0995C123.042 66.0225 122.812 65.9828 122.58 65.9828H117.357L117.116 66.3088H114.661L114.906 65.98H108.505V66.0024H104.574L97.5592 73.277L90.5125 66.0024H85.8952V83.9982H90.3677V71.948L97.5592 79.323L104.702 71.9397V82.5271C104.705 82.919 104.887 83.294 105.208 83.5698C105.53 83.8456 105.965 83.9996 106.417 83.9982H109.126V83.9815H112.177L112.396 83.636H115.044L114.825 83.9843H117.895V80.0836H109.126V76.9492H118.779V73.0486L109.126 73.029V69.8751H118.29L118.783 69.2092H121.218L120.723 69.8751L124.346 69.8835Z" fill="white"/>
<path d="M60.7512 80.2777V73.4879H51.7184V76.5656H52.6821V77.3837H56.2156V80.0773H44.4684V69.8927H56.2156V71.373H60.7384V69.6756C60.7368 69.1886 60.6243 68.7067 60.4075 68.2573C60.1907 67.808 59.8738 67.4001 59.475 67.0569C59.0761 66.7138 58.6031 66.442 58.083 66.2573C57.5629 66.0725 57.0058 65.9784 56.4437 65.9802H44.266C43.7046 65.9765 43.148 66.0695 42.6285 66.254C42.109 66.4383 41.637 66.7104 41.24 67.0543C40.8431 67.3982 40.529 67.807 40.3161 68.257C40.1033 68.7071 39.9958 69.1893 40.0001 69.6756L40.0001 80.2498C39.9958 80.7361 40.1033 81.2183 40.3161 81.6684C40.529 82.1184 40.8431 82.5273 41.24 82.8712C41.637 83.215 42.109 83.4871 42.6285 83.6715C43.148 83.8559 43.7046 83.9489 44.266 83.9452H56.4726C57.5996 83.9453 58.6811 83.5601 59.4823 82.8734C60.2834 82.1867 60.7394 81.2539 60.7512 80.2777Z" fill="white"/>
<path d="M79.4052 65.9802H67.1646C66.6017 65.9765 66.0435 66.0697 65.5226 66.2546C65.0016 66.4394 64.5283 66.7121 64.1302 67.0568C63.7321 67.4015 63.4172 67.8113 63.2038 68.2624C62.9903 68.7134 62.8826 69.1967 62.8869 69.6842V83.9982H67.3676V78.1939H79.1604V83.9982H83.6991V69.6842C83.6948 68.7005 83.2405 67.7585 82.4357 67.0642C81.6309 66.37 80.5412 65.9802 79.4052 65.9802ZM79.1732 73.4468V74.2835H67.3676V69.885H79.1604L79.1732 73.4468Z" fill="white"/>
<path d="M130.783 78.2297C130.795 78.2387 130.809 78.2455 130.824 78.2497C130.839 78.2541 130.854 78.2557 130.87 78.2547C130.87 78.1546 130.841 78.1045 130.783 78.1045L136.737 78.0822L142.491 84H147.114V82.675L142.604 78.0794H142.804C143.369 78.0855 143.93 77.9921 144.452 77.805C144.974 77.6179 145.447 77.341 145.842 76.991C146.25 76.6554 146.573 76.2504 146.792 75.8015C147.01 75.3527 147.119 74.8697 147.111 74.3829V69.7315C147.119 69.2443 147.01 68.7609 146.791 68.3116C146.573 67.8623 146.25 67.4569 145.842 67.1206C145.446 66.7719 144.973 66.496 144.451 66.3094C143.929 66.1229 143.368 66.0295 142.804 66.035H126.302V83.9917H130.783V78.2297ZM130.783 69.9125H142.578V73.3502H141.431V74.1852H130.783V69.9125Z" fill="white"/>
<path d="M170 71.3562V69.6832C169.997 68.7026 169.547 67.7629 168.748 67.0692C167.95 66.3755 166.867 65.9841 165.738 65.9804H153.515C152.955 65.9736 152.399 66.0655 151.882 66.2505C151.364 66.4355 150.895 66.7097 150.502 67.0567C150.097 67.396 149.775 67.8045 149.56 68.2565C149.344 68.7084 149.238 69.1942 149.249 69.6832V73.2355C149.238 73.7245 149.344 74.2103 149.56 74.6623C149.775 75.1142 150.097 75.5227 150.502 75.862C150.895 76.209 151.364 76.4832 151.882 76.6683C152.399 76.8532 152.955 76.9451 153.515 76.9383H165.478V80.089H153.718V78.6224H149.249V80.2953C149.248 80.7819 149.358 81.264 149.572 81.7137C149.785 82.1634 150.1 82.5721 150.496 82.9161C150.893 83.2602 151.364 83.5328 151.882 83.7186C152.399 83.9042 152.955 83.9993 153.515 83.9982H165.738C166.867 83.9945 167.95 83.6031 168.748 82.9094C169.547 82.2157 169.997 81.276 170 80.2953V76.7347C169.991 75.7567 169.539 74.821 168.742 74.1305C167.944 73.44 166.865 73.0503 165.738 73.0459H153.718V69.8952H165.478V71.3702L170 71.3562Z" fill="white"/>
<path d="M43.5297 47.8136L45.5596 47.8136L45.1645 48.4327H48.1258V62.5466H52.6223V48.4327H60.7512V44.5285L40 44.5285L40 48.4327H43.1347L43.5297 47.8136Z" fill="white"/>
<path d="M79.6963 44.5817L62.8867 44.5817V62.5467H67.6715V56.7746C67.6834 56.7836 67.6972 56.7903 67.7122 56.7947C67.727 56.799 67.7428 56.8007 67.7585 56.7997C67.7585 56.6994 67.7295 56.6493 67.6715 56.6493L73.3263 56.6243L79.0744 62.5467H84.0042V61.2214L79.4933 56.6243H79.693C80.2581 56.6298 80.8186 56.5363 81.3407 56.3497C81.8629 56.1631 82.336 55.8871 82.7315 55.5383C83.1397 55.2019 83.4631 54.7963 83.6816 54.3469C83.9 53.8975 84.0088 53.4139 84.001 52.9266V48.2794C84.0089 47.7924 83.9002 47.3092 83.6818 46.8602C83.4632 46.4113 83.1397 46.0062 82.7315 45.6704C82.3373 45.3207 81.865 45.0439 81.3432 44.8567C80.8215 44.6696 80.2612 44.576 79.6963 44.5817ZM80.244 52.7261H67.6779V48.4548L79.1711 48.4548V52.0133H80.2505L80.244 52.7261Z" fill="white"/>
<path d="M90.5004 62.5465H101.889C102.451 62.5502 103.008 62.4569 103.528 62.2721C104.048 62.0873 104.521 61.8147 104.918 61.4701C105.315 61.1254 105.63 60.7157 105.843 60.2647C106.056 59.8137 106.163 59.3304 106.159 58.8431V44.5285H103.641C103.123 44.5292 102.627 44.7081 102.26 45.0259C101.894 45.3437 101.687 45.7746 101.687 46.224V58.6422H100.49V59.3255H91.9054V58.6422H90.7319V44.5285H86.2014V58.8431C86.2056 59.8285 86.6608 60.7721 87.467 61.4666C88.2731 62.161 89.3642 62.5495 90.5004 62.5465Z" fill="white"/>
<path d="M110.29 62.5462H124.348V58.6361H108.479V60.9738C108.478 61.1801 108.525 61.3845 108.616 61.5753C108.707 61.7661 108.84 61.9394 109.008 62.0855C109.177 62.2315 109.377 62.3474 109.596 62.4264C109.817 62.5055 110.052 62.5462 110.29 62.5462Z" fill="white"/>
<path d="M118.245 48.4386L118.737 47.7739H121.176L120.681 48.4386H124.286V46.0646C124.287 45.863 124.242 45.6633 124.153 45.4769C124.065 45.2906 123.935 45.1212 123.771 44.9786C123.607 44.8359 123.413 44.7227 123.198 44.6455C122.984 44.5682 122.754 44.5285 122.522 44.5285L117.32 44.5285L117.079 44.8552H114.627L114.871 44.5285H108.479V48.4386H118.245Z" fill="white"/>
<path d="M118.733 51.5766L108.479 51.5569V55.5199L118.733 55.5087V51.5766Z" fill="white"/>
<path d="M122.149 80.0889H120.989V83.999H122.149V80.0889Z" fill="white"/>
<path d="M120.016 80.0889H118.856V83.999H120.016V80.0889Z" fill="white"/>
<path d="M124.35 80.0889H123.129V83.999H124.35V80.0889Z" fill="white"/>
<defs>
<linearGradient id="paint0_linear_3_433" x1="105" y1="0" x2="105" y2="128" gradientUnits="userSpaceOnUse">
<stop stop-color="white" stop-opacity="0"/>
<stop offset="1" stop-color="white"/>
</linearGradient>
</defs>
</svg>
