<svg width="210" height="128" viewBox="0 0 210 128" fill="none" xmlns="http://www.w3.org/2000/svg">
<rect width="210" height="128" rx="20" fill="url(#paint0_linear_3_450)" fill-opacity="0.1"/>
<path d="M99.7661 77.8187C100.389 77.8187 100.928 77.9959 101.375 78.3504C101.592 78.5276 101.767 78.7525 101.893 79.0389C102.019 79.3252 102.082 79.6523 102.082 80.0137C102.082 80.3749 102.019 80.7022 101.893 80.9885C101.767 81.2748 101.592 81.4997 101.375 81.677C100.935 82.0315 100.396 82.2018 99.7661 82.2018C99.2624 82.2018 98.9125 82.1337 98.7166 81.9973C98.5207 81.8611 98.4228 81.6565 98.4228 81.3702V78.473C98.4228 78.2822 98.3878 78.139 98.3108 78.0436C98.7726 77.8868 99.2554 77.805 99.7592 77.805L99.7661 77.8187ZM99.7661 81.7656C100.235 81.7656 100.627 81.6156 100.935 81.3089C101.242 81.0021 101.403 80.5726 101.403 80.0204C101.403 79.4683 101.249 79.0389 100.935 78.7321C100.627 78.4254 100.235 78.2754 99.7661 78.2754C99.5352 78.2754 99.3044 78.3094 99.0875 78.3776L99.0735 81.4043C99.0735 81.5406 99.1154 81.6361 99.1995 81.6906C99.2834 81.7451 99.4723 81.7724 99.7661 81.7724V81.7656Z" fill="white"/>
<path d="M105.769 81.6496H106.931C107.176 81.6496 107.372 81.5679 107.519 81.4042C107.637 81.4656 107.7 81.561 107.7 81.7042C107.7 81.8474 107.644 81.9565 107.532 82.0314C107.421 82.1132 107.246 82.1473 107.001 82.1473H105.713C105.371 82.1473 105.119 82.0791 104.965 81.9428C104.811 81.8065 104.727 81.5883 104.727 81.2815V78.3775C104.727 78.2344 104.671 78.1389 104.559 78.0913C104.671 77.9344 104.839 77.8595 105.063 77.8595H107.015C107.477 77.8595 107.707 77.9822 107.707 78.2208C107.707 78.3572 107.644 78.4525 107.526 78.5139C107.393 78.4184 107.204 78.3708 106.938 78.3708H105.364V79.6591H106.518C106.77 79.6591 106.945 79.6796 107.057 79.7273C107.162 79.7682 107.218 79.85 107.218 79.9727C107.218 80.0954 107.162 80.1841 107.057 80.2522C106.931 80.1977 106.735 80.1704 106.469 80.1704H105.371V81.2406C105.371 81.3838 105.406 81.4929 105.469 81.5542C105.532 81.6156 105.636 81.6496 105.783 81.6496H105.769Z" fill="white"/>
<path d="M110.408 81.7107V78.309C110.408 78.1728 110.352 78.0773 110.24 78.0296C110.345 77.8933 110.478 77.8251 110.639 77.8251C110.8 77.8251 110.933 77.8592 111.038 77.9273C111.143 77.9955 111.241 78.1045 111.346 78.2614L113.312 81.329V78.3159C113.312 78.1795 113.256 78.0842 113.151 78.0364C113.249 77.9001 113.375 77.8319 113.543 77.8319C113.823 77.8319 113.963 77.9955 113.963 78.3228V81.7243C113.963 81.8675 114.004 81.9766 114.088 82.0447C113.997 82.1606 113.872 82.2149 113.711 82.2149C113.55 82.2149 113.403 82.1674 113.284 82.072C113.165 81.9766 113.025 81.8198 112.885 81.6016L111.059 78.7999V81.7312C111.059 81.8743 111.115 81.9697 111.22 82.0175C111.115 82.1538 110.982 82.2222 110.828 82.2222C110.555 82.2222 110.415 82.0583 110.415 81.7243L110.408 81.7107Z" fill="white"/>
<path d="M116.971 77.8664H119.266C119.539 77.8664 119.679 77.9754 119.679 78.1868C119.679 78.2822 119.637 78.364 119.56 78.439C119.441 78.3776 119.273 78.3504 119.07 78.3504H118.335V81.7111C118.335 81.8542 118.391 81.9497 118.496 81.9974C118.398 82.1337 118.272 82.2019 118.111 82.2019C117.832 82.2019 117.692 82.0383 117.692 81.7043V78.3504H116.768C116.495 78.3504 116.362 78.2413 116.362 78.03C116.362 77.9345 116.397 77.8528 116.474 77.7778C116.593 77.8323 116.761 77.8595 116.971 77.8595V77.8664Z" fill="white"/>
<path d="M125.01 82.2083C124.891 82.2083 124.793 82.1811 124.716 82.1197C124.646 82.0583 124.576 81.9561 124.52 81.8061L124.311 81.1994H122.68L122.449 81.7789C122.337 82.0652 122.191 82.2083 122.002 82.2083C121.918 82.2083 121.841 82.1878 121.771 82.1402C121.701 82.0993 121.652 82.0447 121.624 81.9833C121.722 81.9425 121.806 81.8335 121.883 81.6562L123.261 78.2478C123.212 78.1319 123.149 78.0433 123.079 77.9887C123.184 77.8797 123.303 77.8251 123.443 77.8251C123.583 77.8251 123.681 77.8592 123.751 77.9342C123.821 78.0092 123.884 78.1318 123.947 78.3023L125.143 81.6289C125.213 81.8197 125.304 81.9425 125.43 82.0106C125.353 82.147 125.22 82.2149 125.024 82.2149L125.01 82.2083ZM122.834 80.7768H124.15L123.534 78.8476L122.834 80.7768Z" fill="white"/>
<path d="M127.844 81.3154V78.3024C127.844 78.166 127.788 78.0706 127.683 78.0229C127.788 77.8865 127.914 77.8184 128.075 77.8184C128.355 77.8184 128.495 77.982 128.495 78.3092V81.2677C128.495 81.4109 128.53 81.5199 128.593 81.5813C128.656 81.6427 128.761 81.6768 128.908 81.6768H129.803C130.041 81.6768 130.223 81.5949 130.342 81.4313C130.454 81.4722 130.503 81.5608 130.503 81.6972C130.503 81.8335 130.447 81.9358 130.335 82.0244C130.223 82.1062 130.048 82.1539 129.81 82.1539H128.81C128.467 82.1539 128.222 82.0925 128.068 81.963C127.914 81.8335 127.837 81.6222 127.837 81.3154H127.844Z" fill="white"/>
<path d="M139.571 78.5819C139.571 78.7046 139.529 78.8001 139.445 78.8613C139.361 78.9227 139.263 78.9568 139.144 78.9568C139.025 78.9568 138.927 78.9363 138.836 78.8886C138.836 78.8546 138.836 78.8205 138.836 78.7796C138.836 78.6365 138.78 78.5137 138.675 78.4046C138.57 78.2956 138.388 78.241 138.136 78.241C137.786 78.241 137.486 78.3979 137.227 78.6977C136.968 79.0046 136.842 79.4339 136.842 79.9861C136.842 80.5384 136.968 80.9541 137.213 81.2268C137.458 81.5063 137.8 81.6427 138.234 81.6427C138.472 81.6427 138.703 81.5949 138.913 81.4927C139.123 81.3904 139.298 81.2746 139.424 81.1313C139.522 81.1587 139.571 81.2405 139.571 81.3768C139.571 81.5541 139.424 81.7313 139.123 81.9222C138.822 82.113 138.472 82.2084 138.059 82.2084C137.492 82.2084 137.031 82.0176 136.681 81.6358C136.331 81.2541 136.156 80.7292 136.156 80.0611C136.156 79.3931 136.352 78.8546 136.744 78.4387C137.136 78.0229 137.632 77.8184 138.241 77.8184C138.612 77.8184 138.92 77.8934 139.179 78.0434C139.438 78.1934 139.563 78.3706 139.563 78.5819H139.571Z" fill="white"/>
<path d="M142.313 81.3154V78.3024C142.313 78.166 142.257 78.0706 142.152 78.0229C142.257 77.8865 142.383 77.8184 142.544 77.8184C142.824 77.8184 142.964 77.982 142.964 78.3092V81.2677C142.964 81.4109 142.999 81.5199 143.062 81.5813C143.125 81.6427 143.23 81.6768 143.377 81.6768H144.272C144.51 81.6768 144.692 81.5949 144.811 81.4313C144.923 81.4722 144.972 81.5608 144.972 81.6972C144.972 81.8335 144.916 81.9358 144.804 82.0244C144.692 82.1062 144.517 82.1539 144.279 82.1539H143.279C142.936 82.1539 142.691 82.0925 142.537 81.963C142.383 81.8335 142.306 81.6222 142.306 81.3154H142.313Z" fill="white"/>
<path d="M148.142 78.3092V81.7108C148.142 81.8539 148.197 81.9494 148.302 81.9972C148.204 82.1335 148.071 82.2016 147.911 82.2016C147.638 82.2016 147.498 82.038 147.498 81.704V78.3024C147.498 78.166 147.442 78.0706 147.337 78.0229C147.428 77.8865 147.561 77.8184 147.722 77.8184C148.002 77.8184 148.142 77.982 148.142 78.3092Z" fill="white"/>
<path d="M151.108 81.7107V78.309C151.108 78.1728 151.052 78.0773 150.94 78.0296C151.045 77.8933 151.178 77.8251 151.339 77.8251C151.5 77.8251 151.633 77.8592 151.738 77.9273C151.843 77.9955 151.941 78.1045 152.046 78.2614L154.012 81.329V78.3159C154.012 78.1795 153.956 78.0842 153.851 78.0364C153.949 77.9001 154.075 77.8319 154.243 77.8319C154.522 77.8319 154.662 77.9955 154.662 78.3228V81.7243C154.662 81.8675 154.704 81.9766 154.788 82.0447C154.697 82.1606 154.571 82.2149 154.41 82.2149C154.249 82.2149 154.103 82.1674 153.984 82.072C153.865 81.9766 153.725 81.8198 153.585 81.6016L151.759 78.7999V81.7312C151.759 81.8743 151.815 81.9697 151.92 82.0175C151.815 82.1538 151.682 82.2222 151.528 82.2222C151.255 82.2222 151.115 82.0583 151.115 81.7243L151.108 81.7107Z" fill="white"/>
<path d="M158.21 78.3092V81.7108C158.21 81.8539 158.266 81.9494 158.371 81.9972C158.273 82.1335 158.14 82.2016 157.979 82.2016C157.706 82.2016 157.566 82.038 157.566 81.704V78.3024C157.566 78.166 157.51 78.0706 157.405 78.0229C157.496 77.8865 157.629 77.8184 157.79 77.8184C158.07 77.8184 158.21 77.982 158.21 78.3092Z" fill="white"/>
<path d="M164.311 78.5819C164.311 78.7046 164.269 78.8001 164.185 78.8613C164.101 78.9227 164.003 78.9568 163.884 78.9568C163.765 78.9568 163.667 78.9363 163.576 78.8886C163.576 78.8546 163.576 78.8205 163.576 78.7796C163.576 78.6365 163.52 78.5137 163.415 78.4046C163.31 78.2956 163.128 78.241 162.877 78.241C162.526 78.241 162.226 78.3979 161.967 78.6977C161.708 79.0046 161.582 79.4339 161.582 79.9861C161.582 80.5384 161.708 80.9541 161.953 81.2268C162.198 81.5063 162.54 81.6427 162.974 81.6427C163.213 81.6427 163.443 81.5949 163.653 81.4927C163.863 81.3904 164.038 81.2746 164.163 81.1313C164.262 81.1587 164.311 81.2405 164.311 81.3768C164.311 81.5541 164.163 81.7313 163.863 81.9222C163.562 82.113 163.213 82.2084 162.8 82.2084C162.233 82.2084 161.771 82.0176 161.422 81.6358C161.071 81.2541 160.896 80.7292 160.896 80.0611C160.896 79.3931 161.092 78.8546 161.484 78.4387C161.876 78.0229 162.372 77.8184 162.982 77.8184C163.352 77.8184 163.66 77.8934 163.919 78.0434C164.178 78.1934 164.303 78.3706 164.303 78.5819H164.311Z" fill="white"/>
<path d="M187.494 45.8764V70.5307H183.956V70.0292C183.956 64.2712 182.512 57.7392 180.27 53.3742C178.189 49.455 175.704 47.3561 172.871 47.1332V70.5307H169.333V45.8764H172.366C174.857 45.8764 178.433 47.0712 181.309 52.786C182.4 54.792 183.29 57.182 183.963 59.9V45.8764H187.5H187.494Z" fill="white"/>
<path d="M164.108 55.0642C163.255 51.7951 161.174 49.0709 158.229 47.393C155.37 45.7646 152.081 45.3498 148.961 46.229C142.335 48.0059 138.367 54.8165 140.111 61.4166C140.56 63.0697 141.313 64.5743 142.316 65.8683C143.319 67.1747 144.583 68.2644 146.046 69.0879C147.902 70.1342 149.945 70.6667 152.019 70.6667C153.122 70.6667 154.23 70.5119 155.32 70.2085C158.565 69.3541 161.262 67.2923 162.937 64.3886C164.587 61.5157 165.004 58.1971 164.108 55.058V55.0642ZM160.253 63.8684C159.58 65.7754 158.116 68.2148 154.996 69.0135C151.913 69.8308 149.453 68.4377 147.934 67.1251C146.04 65.4906 144.496 62.9955 143.823 60.4569C143.132 57.8937 143.213 54.9528 144.041 52.5876C144.707 50.6992 146.152 48.2783 149.254 47.4797H149.266C149.958 47.2816 150.612 47.2011 151.234 47.2011C153.445 47.2011 155.214 48.2536 156.41 49.269C158.297 50.885 159.848 53.4048 160.539 55.9929C161.199 58.5624 161.093 61.5033 160.253 63.8746V63.8684Z" fill="white"/>
<path d="M134.979 45.8764V70.5307H131.442V70.0292C131.442 64.2712 129.997 57.7392 127.755 53.3742C125.675 49.455 123.19 47.3561 120.356 47.1332V70.5307H116.818V45.8764H119.851C122.343 45.8764 125.917 47.0775 128.795 52.786C129.885 54.792 130.775 57.182 131.448 59.9V45.8764H134.986H134.979Z" fill="white"/>
<path d="M112.122 64.9213L111.244 70.5307H96.8948V45.8764H111.518V50.2351L110.665 49.4241C109.544 48.3591 108.572 47.7771 107.402 47.4675C106.262 47.1703 104.941 47.1146 102.755 47.1146H100.495V52.0368C100.495 54.0862 100.98 55.3802 102.033 56.1108C102.998 56.7795 104.468 57.0643 106.966 57.0643H107.47V61.5469L106.586 60.5439C106.206 60.1105 105.701 59.7452 104.954 59.3489C104.624 59.1756 104.263 59.0022 103.945 58.8536L103.92 58.8413C103.577 58.6803 103.229 58.5131 102.88 58.3336C102.07 57.9125 101.192 57.3677 100.501 56.4761V69.2615H105.689C107.084 69.2615 108.124 68.9519 108.965 68.2956C109.83 67.6145 110.534 66.5063 111.107 64.9089L111.182 64.6922L112.116 64.9275L112.122 64.9213Z" fill="white"/>
<path d="M91.053 67.0138L91.9 66.2275V70.5305H75.1216L87.6586 47.1144H84.2208C82.1904 47.1144 80.7767 47.1392 79.5809 47.4302C78.4163 47.7212 77.4634 48.266 76.305 49.3248L75.4579 50.0987V45.839H92.5103L79.8425 69.3232H83.1433C85.2796 69.3232 86.6497 69.2675 87.7957 68.9579C88.9479 68.6484 89.8946 68.0849 91.053 67.0138Z" fill="white"/>
<path d="M55.1405 60.3008C54.5299 57.9221 53.3217 55.8124 51.6355 54.1393V54.1527L49.8365 57.5392C50.5136 58.7151 51.0514 59.9917 51.3899 61.2885C52.0803 64.0367 51.9741 67.1814 51.0912 69.7145C50.3875 71.7572 48.8474 74.3643 45.5748 75.2176C43.7028 75.7215 42.0432 75.4326 40.6757 74.8346L39.6933 76.6824C40.6027 76.8907 41.5254 76.9915 42.4548 76.9915C43.6099 76.9915 44.7782 76.8302 45.92 76.501C49.3254 75.5871 52.16 73.3832 53.9191 70.279C55.6517 67.2082 56.0832 63.6605 55.1405 60.3008Z" fill="white"/>
<path d="M39.5405 52.1843H39.5538C40.2774 51.976 40.9678 51.8886 41.6183 51.8886C42.6406 51.8886 43.5766 52.1036 44.4064 52.4463L45.2959 50.7463L45.3358 50.6724C43.3376 50.2222 41.2532 50.276 39.2418 50.8606C32.2849 52.7621 28.1161 60.0391 29.9482 67.0944C30.4195 68.8615 31.2095 70.4675 32.265 71.8516C32.6367 72.3421 33.0417 72.8058 33.4732 73.2358L33.493 73.1887L35.3385 69.6813C34.6813 68.539 34.1635 67.3026 33.8382 66.0528C33.108 63.3114 33.1943 60.1668 34.0706 57.6403C34.7742 55.6178 36.2878 53.0309 39.5405 52.1776V52.1843Z" fill="white"/>
<path d="M52.6909 75.0699L52.1532 75.5806C50.6131 77.0319 49.3651 77.7912 47.8383 78.2078C47.4466 78.3153 47.0285 78.3959 46.5771 78.4631C45.3025 78.6513 43.769 78.6983 41.678 78.6983H37.31L37.9274 77.5359L38.3788 76.6758L38.5447 76.3667L38.7173 76.0442L39.6401 74.2971L49.1128 56.4171L50.5999 53.6018L50.7392 53.333L50.9318 52.9701L51.7151 51.4785L52.1665 50.6251L52.4984 50.0002L52.9498 49.1469L53.2817 48.522L53.7331 47.6686L54.0651 47.0437H31.5015V52.782L32.6234 51.7405C34.1635 50.316 35.4181 49.5769 36.9582 49.1872C37.4361 49.0662 37.9473 48.9789 38.4982 48.9184C39.7529 48.7773 41.2332 48.7639 43.0986 48.7639H47.6459L47.4334 49.1738L46.4775 50.9947L46.3182 51.3038L45.4486 52.9634L34.5153 73.7529L34.3626 74.0485L34.1834 74.3845L32.9487 76.7363L32.6168 77.3612L32.1653 78.2145L31.8334 78.8394L31.382 79.6927L31.0567 80.3176H53.2618V74.5189L53.0826 74.6868L52.6776 75.0699H52.6909Z" fill="white"/>
<path d="M53.4344 50.7461L53.2021 51.1828L53.0958 51.3777C56.5013 54.3611 58.6587 58.769 58.6587 63.6807C58.6587 67.9139 57.0589 71.7707 54.4301 74.6667V75.6813C57.4705 72.6106 59.3491 68.3573 59.3491 63.674C59.3491 58.5002 57.0456 53.8504 53.4278 50.7394L53.4344 50.7461Z" fill="white"/>
<path d="M30.3531 53.1046V52.0498C27.5252 55.0936 25.7926 59.1856 25.7926 63.6808C25.7926 68.8547 28.0894 73.491 31.7006 76.6088L31.933 76.172L32.0392 75.9704C28.6404 72.9871 26.4896 68.5859 26.4896 63.6808C26.4896 59.6426 27.9434 55.9536 30.3531 53.1046Z" fill="white"/>
<path d="M31.2427 77.4753C27.3327 74.1828 24.8366 69.224 24.8366 63.6807C24.8366 58.574 26.9543 53.9578 30.3465 50.6923V49.7314C26.5428 53.1515 24.1397 58.1372 24.1397 63.6739C24.1397 69.2106 26.7751 74.6801 30.9041 78.1002L31.143 77.65L31.236 77.4686L31.2427 77.4753Z" fill="white"/>
<path d="M44.7516 81.4938C44.0347 81.5878 43.3112 81.6282 42.5743 81.6282C41.8374 81.6282 41.1139 81.5811 40.3969 81.4938H37.1044C38.8303 82.038 40.6691 82.3337 42.5743 82.3337C44.4794 82.3337 46.3117 82.038 48.0442 81.4938H44.7516Z" fill="white"/>
<path d="M53.8926 49.8863C57.8024 53.1787 60.3051 58.1443 60.3051 63.6877C60.3051 69.2311 58.0348 73.7263 54.4369 77.0121V77.9461C58.4464 74.5259 61.0021 69.3992 61.0021 63.6877C61.0021 57.9763 58.3601 52.6748 54.2311 49.2547L54.1713 49.3622L53.8926 49.8863Z" fill="white"/>
<path d="M55.0143 47.763L54.8882 48.0049L54.7688 48.2333L54.6825 48.3946C59.1102 51.9894 61.9447 57.5059 61.9447 63.6877C61.9447 69.8694 58.9973 75.5942 54.4302 79.1823V80.0626C59.4023 76.367 62.6351 70.4002 62.6351 63.6877C62.6351 56.9752 59.6545 51.4855 55.0143 47.763Z" fill="white"/>
<path d="M23.1971 63.6876C23.1971 57.5597 25.9851 52.0767 30.3531 48.4886V47.5882C25.5802 51.304 22.5 57.1431 22.5 63.6944C22.5 70.2456 25.4806 75.8966 30.1208 79.6191L30.3664 79.1487L30.4527 78.9808C26.0316 75.3859 23.1904 69.8694 23.1904 63.6944L23.1971 63.6876Z" fill="white"/>
<path d="M42.5675 83.2945C39.6799 83.2945 36.9316 82.6494 34.4688 81.4938H32.9221C35.7832 83.093 39.0758 84 42.5675 84C46.0593 84 49.3518 83.093 52.2129 81.4938H50.6662C48.2034 82.6494 45.4552 83.2945 42.5675 83.2945Z" fill="white"/>
<path d="M54.0784 44H31.5148V44.7055H54.0784V44Z" fill="white"/>
<defs>
<linearGradient id="paint0_linear_3_450" x1="105" y1="0" x2="105" y2="128" gradientUnits="userSpaceOnUse">
<stop stop-color="white" stop-opacity="0"/>
<stop offset="1" stop-color="white"/>
</linearGradient>
</defs>
</svg>
