<svg width="24" height="24" viewBox="0 0 24 24" fill="none" xmlns="http://www.w3.org/2000/svg">
    <path fill-rule="evenodd" clip-rule="evenodd"
        d="M22 17.6079C21.4536 18.8572 21.1917 19.4151 20.4881 20.5188C19.5055 22.0603 18.1219 23.98 16.4069 23.9965C14.8832 24.0109 14.4919 22.9733 12.424 22.9854C10.3561 22.9976 9.92418 24.0142 8.39946 23.9999C6.68442 23.9833 5.37356 22.25 4.39095 20.7085C1.64518 16.3972 1.35756 11.3383 3.05121 8.64897C4.25516 6.7381 6.15302 5.61893 7.93863 5.61893C9.75631 5.61893 10.8993 6.64659 12.4016 6.64659C13.8589 6.64659 14.7474 5.61673 16.8495 5.61673C18.4384 5.61673 20.1214 6.50876 21.32 8.05134C17.3916 10.2732 18.03 16.0609 22 17.6079Z"
        fill="white" />
    <path fill-rule="evenodd" clip-rule="evenodd"
        d="M15.255 3.89671C16.0185 2.8867 16.598 1.45879 16.3884 0C15.1417 0.0882108 13.6822 0.906355 12.83 1.97371C12.057 2.94182 11.4187 4.37856 11.6678 5.7745C13.0289 5.8175 14.4371 4.9795 15.255 3.89671Z"
        fill="white" />
</svg>