<svg width="24" height="24" viewBox="0 0 24 24" fill="none" xmlns="http://www.w3.org/2000/svg">
<path d="M20 18.2222V16.7592C20 16.0322 19.5574 15.3785 18.8825 15.1085L17.0744 14.3853C16.2159 14.0419 15.2375 14.4139 14.824 15.2409L14.6667 15.5556C14.6667 15.5556 12.4444 15.1111 10.6667 13.3333C8.88889 11.5556 8.44444 9.33333 8.44444 9.33333L8.75913 9.17599C9.58612 8.7625 9.95809 7.78412 9.6147 6.92565L8.89146 5.11753C8.62148 4.44258 7.96777 4 7.24083 4H5.77778C4.79594 4 4 4.79594 4 5.77778C4 13.6325 10.3675 20 18.2222 20C19.2041 20 20 19.2041 20 18.2222Z" stroke="white" stroke-linejoin="round"/>
</svg>
