<svg width="24" height="24" viewBox="0 0 24 24" fill="none" xmlns="http://www.w3.org/2000/svg">
<path d="M4.28823 11.8421L12.2857 1.52363C13.0736 0.507162 14.6893 1.06968 14.6893 2.36042V8.60562C14.6893 9.35549 15.2914 9.96337 16.034 9.96337H18.6528C19.7737 9.96337 20.4025 11.2667 19.7118 12.1579L11.7143 22.4764C10.9264 23.4928 9.31066 22.9303 9.31066 21.6396V15.3944C9.31066 14.6445 8.70863 14.0366 7.96599 14.0366H5.34717C4.22633 14.0366 3.59745 12.7333 4.28823 11.8421Z" stroke="#28303F" stroke-linejoin="round"/>
<path d="M4.28823 11.8421L12.2857 1.52363C13.0736 0.507162 14.6893 1.06968 14.6893 2.36042V8.60562C14.6893 9.35549 15.2914 9.96337 16.034 9.96337H18.6528C19.7737 9.96337 20.4025 11.2667 19.7118 12.1579L11.7143 22.4764C10.9264 23.4928 9.31066 22.9303 9.31066 21.6396V15.3944C9.31066 14.6445 8.70863 14.0366 7.96599 14.0366H5.34717C4.22633 14.0366 3.59745 12.7333 4.28823 11.8421Z" stroke="white" stroke-opacity="0.4" stroke-linejoin="round"/>
<path d="M4.28823 11.8421L12.2857 1.52363C13.0736 0.507162 14.6893 1.06968 14.6893 2.36042V8.60562C14.6893 9.35549 15.2914 9.96337 16.034 9.96337H18.6528C19.7737 9.96337 20.4025 11.2667 19.7118 12.1579L11.7143 22.4764C10.9264 23.4928 9.31066 22.9303 9.31066 21.6396V15.3944C9.31066 14.6445 8.70863 14.0366 7.96599 14.0366H5.34717C4.22633 14.0366 3.59745 12.7333 4.28823 11.8421Z" stroke="url(#paint0_linear_3_249)" stroke-linejoin="round"/>
<defs>
<linearGradient id="paint0_linear_3_249" x1="20" y1="-1.44444" x2="-1.60256" y2="16.1025" gradientUnits="userSpaceOnUse">
<stop stop-color="#B9F2F3"/>
<stop offset="1" stop-color="#B9F2F3" stop-opacity="0"/>
</linearGradient>
</defs>
</svg>
