<svg width="24" height="24" viewBox="0 0 24 24" fill="none" xmlns="http://www.w3.org/2000/svg">
<path d="M19.7376 18.6H12.9502M19.7376 18.6C20.9871 18.6 22 19.585 22 20.8C22 22.015 20.9871 23 19.7376 23H12.9502C11.7007 23 10.6878 22.015 10.6878 20.8C10.6878 19.585 11.7007 18.6 12.9502 18.6M19.7376 18.6C20.9871 18.6 22 17.615 22 16.4C22 15.185 20.9871 14.2 19.7376 14.2H18.9834M12.9502 18.6C11.7007 18.6 10.6878 17.615 10.6878 16.4C10.6878 15.185 11.7007 14.2 12.9502 14.2H18.9834M12.5831 23H8.79252C4.15978 23 0.888507 18.5866 2.35351 14.3129L3.48473 11.0129C4.40857 8.31784 7.00227 6.5 9.92374 6.5H11.4519C14.3734 6.5 16.9671 8.31784 17.8909 11.0129L18.9834 14.2M13.0476 6.5L8.32836 6.5L6.74343 4.73225C5.18977 2.99939 7.00228 0.409274 9.27062 1.12083L10.3201 1.45005C10.5591 1.52501 10.8168 1.52501 11.0558 1.45006L12.1053 1.12083C14.3736 0.409274 16.1861 2.99939 14.6325 4.73225L13.0476 6.5Z" stroke="white" stroke-opacity="0.4" stroke-linejoin="round"/>
<path d="M19.7376 18.6H12.9502M19.7376 18.6C20.9871 18.6 22 19.585 22 20.8C22 22.015 20.9871 23 19.7376 23H12.9502C11.7007 23 10.6878 22.015 10.6878 20.8C10.6878 19.585 11.7007 18.6 12.9502 18.6M19.7376 18.6C20.9871 18.6 22 17.615 22 16.4C22 15.185 20.9871 14.2 19.7376 14.2H18.9834M12.9502 18.6C11.7007 18.6 10.6878 17.615 10.6878 16.4C10.6878 15.185 11.7007 14.2 12.9502 14.2H18.9834M12.5831 23H8.79252C4.15978 23 0.888507 18.5866 2.35351 14.3129L3.48473 11.0129C4.40857 8.31784 7.00227 6.5 9.92374 6.5H11.4519C14.3734 6.5 16.9671 8.31784 17.8909 11.0129L18.9834 14.2M13.0476 6.5L8.32836 6.5L6.74343 4.73225C5.18977 2.99939 7.00228 0.409274 9.27062 1.12083L10.3201 1.45005C10.5591 1.52501 10.8168 1.52501 11.0558 1.45006L12.1053 1.12083C14.3736 0.409274 16.1861 2.99939 14.6325 4.73225L13.0476 6.5Z" stroke="url(#paint0_linear_3_250)" stroke-linejoin="round"/>
<defs>
<linearGradient id="paint0_linear_3_250" x1="22" y1="-1.44444" x2="-0.0686851" y2="20.9625" gradientUnits="userSpaceOnUse">
<stop stop-color="#B9F2F3"/>
<stop offset="1" stop-color="#B9F2F3" stop-opacity="0"/>
</linearGradient>
</defs>
</svg>
