<svg width="24" height="24" viewBox="0 0 24 24" fill="none" xmlns="http://www.w3.org/2000/svg">
<path d="M8.64912 12.1818L10.6125 13.8113C11.0805 14.1998 11.7605 14.1371 12.1552 13.6691L15.3698 9.85779M4.59165 3.98176L10.1898 1.40061C11.3483 0.866463 12.6706 0.866462 13.8291 1.40061L19.4051 3.97153C21.0356 4.72333 22.1059 6.41305 21.9917 8.26035C21.5534 15.3461 19.6007 18.5493 14.3221 22.2655C12.929 23.2462 11.0914 23.2438 9.69732 22.2647C4.43489 18.5686 2.40968 15.4101 2.00685 8.2355C1.90381 6.40033 2.97239 4.72836 4.59165 3.98176Z" stroke="white" stroke-opacity="0.4" stroke-linecap="round" stroke-linejoin="round"/>
<path d="M8.64912 12.1818L10.6125 13.8113C11.0805 14.1998 11.7605 14.1371 12.1552 13.6691L15.3698 9.85779M4.59165 3.98176L10.1898 1.40061C11.3483 0.866463 12.6706 0.866462 13.8291 1.40061L19.4051 3.97153C21.0356 4.72333 22.1059 6.41305 21.9917 8.26035C21.5534 15.3461 19.6007 18.5493 14.3221 22.2655C12.929 23.2462 11.0914 23.2438 9.69732 22.2647C4.43489 18.5686 2.40968 15.4101 2.00685 8.2355C1.90381 6.40033 2.97239 4.72836 4.59165 3.98176Z" stroke="url(#paint0_linear_3_247)" stroke-linecap="round" stroke-linejoin="round"/>
<defs>
<linearGradient id="paint0_linear_3_247" x1="22" y1="-1.44444" x2="-0.0686851" y2="20.9625" gradientUnits="userSpaceOnUse">
<stop stop-color="#B9F2F3"/>
<stop offset="1" stop-color="#B9F2F3" stop-opacity="0"/>
</linearGradient>
</defs>
</svg>
