<svg width="24" height="24" viewBox="0 0 24 24" fill="none" xmlns="http://www.w3.org/2000/svg">
<path d="M20.3137 4.5092C18.7606 3.80981 17.1066 3.29448 15.3641 3C15.1495 3.3681 14.897 3.87116 14.7328 4.27607C12.8894 4.00613 11.0586 4.00613 9.25302 4.27607C9.07625 3.87116 8.82372 3.3681 8.60908 3C6.86664 3.29448 5.2126 3.80981 3.65956 4.5092C0.528233 9.09815 -0.31773 13.5767 0.0989384 17.9816C2.18228 19.4908 4.18986 20.3988 6.1722 21C6.66462 20.3497 7.09392 19.6503 7.47271 18.9264C6.75301 18.6687 6.07119 18.3374 5.42724 17.9571C5.60401 17.8344 5.76815 17.6994 5.9323 17.5767C9.88432 19.3681 14.1646 19.3681 18.0662 17.5767C18.2303 17.7117 18.3945 17.8344 18.5712 17.9571C17.9273 18.3374 17.2328 18.6564 16.5258 18.9264C16.9046 19.6503 17.3338 20.3497 17.8263 21C19.8086 20.3988 21.8288 19.4908 23.8995 17.9816C24.392 12.865 23.0536 8.43557 20.3389 4.5092H20.3137ZM8.00301 15.2822C6.81614 15.2822 5.84391 14.2147 5.84391 12.9019C5.84391 11.589 6.79089 10.5215 8.00301 10.5215C9.21514 10.5215 10.1747 11.589 10.1621 12.9019C10.1621 14.2025 9.21514 15.2822 8.00301 15.2822ZM15.9702 15.2822C14.7833 15.2822 13.8111 14.2147 13.8111 12.9019C13.8111 11.589 14.7581 10.5215 15.9702 10.5215C17.1823 10.5215 18.1419 11.589 18.1293 12.9019C18.1293 14.2025 17.1823 15.2822 15.9702 15.2822Z" fill="white"/>
</svg>
